AnekTamil-ExpandedExtraBold.ufo
<glyph name="N" format="2">
  <advance width="1718"/>
  <unicode hex="004E"/>
  <anchor x="859" y="0" name="bottom"/>
  <anchor x="859" y="1278" name="top"/>
  <outline>
    <contour>
      <point x="693" y="1278" type="line"/>
      <point x="134" y="1278" type="line"/>
      <point x="134" y="0" type="line"/>
      <point x="533" y="0" type="line"/>
      <point x="533" y="450" type="line"/>
      <point x="522" y="893" type="line"/>
      <point x="540" y="893" type="line"/>
      <point x="1050" y="0" type="line"/>
      <point x="1584" y="0" type="line"/>
      <point x="1584" y="1278" type="line"/>
      <point x="1185" y="1278" type="line"/>
      <point x="1185" y="863" type="line"/>
      <point x="1196" y="420" type="line"/>
      <point x="1178" y="420" type="line"/>
    </contour>
  </outline>
</glyph>
<glyph name="d" format="2">
  <advance width="1486"/>
  <unicode hex="0064"/>
  <anchor x="743" y="0" name="bottom"/>
  <anchor x="743" y="482" name="center"/>
  <anchor x="743" y="1314" name="top"/>
  <anchor x="1466" y="1314" name="topright"/>
  <outline>
    <contour>
      <point x="552" y="-32" type="curve" smooth="yes"/>
      <point x="809" y="-32"/>
      <point x="940" y="91"/>
      <point x="971" y="251" type="curve"/>
      <point x="1101" y="251" type="line"/>
      <point x="987" y="434" type="line"/>
      <point x="940" y="351"/>
      <point x="839" y="292"/>
      <point x="707" y="292" type="curve" smooth="yes"/>
      <point x="558" y="292"/>
      <point x="474" y="356"/>
      <point x="474" y="477" type="curve" smooth="yes"/>
      <point x="474" y="497" type="line" smooth="yes"/>
      <point x="474" y="620"/>
      <point x="564" y="684"/>
      <point x="713" y="684" type="curve" smooth="yes"/>
      <point x="892" y="684"/>
      <point x="973" y="607"/>
      <point x="978" y="489" type="curve"/>
      <point x="1083" y="712" type="line"/>
      <point x="967" y="712" type="line"/>
      <point x="930" y="891"/>
      <point x="810" y="997"/>
      <point x="561" y="997" type="curve" smooth="yes"/>
      <point x="257" y="997"/>
      <point x="72" y="824"/>
      <point x="72" y="491" type="curve" smooth="yes"/>
      <point x="72" y="472" type="line" smooth="yes"/>
      <point x="72" y="139"/>
      <point x="257" y="-32"/>
    </contour>
    <contour>
      <point x="971" y="0" type="line"/>
      <point x="1368" y="0" type="line"/>
      <point x="1368" y="1314" type="line"/>
      <point x="974" y="1314" type="line"/>
      <point x="974" y="961" type="line"/>
      <point x="978" y="687" type="line"/>
      <point x="978" y="639" type="line"/>
      <point x="978" y="349" type="line"/>
      <point x="985" y="288" type="line"/>
    </contour>
  </outline>
</glyph>
<glyph name="yen" format="2">
  <advance width="1562"/>
  <unicode hex="00A5"/>
  <anchor x="781" y="0" name="bottom"/>
  <anchor x="781" y="1278" name="top"/>
  <anchor x="20" y="1278" name="topleft"/>
  <outline>
    <contour>
      <point x="851" y="501" type="line"/>
      <point x="1413" y="501" type="line"/>
      <point x="1432" y="695" type="line"/>
      <point x="914" y="695" type="line"/>
    </contour>
    <contour>
      <point x="153" y="403" type="line"/>
      <point x="132" y="209" type="line"/>
      <point x="1413" y="209" type="line"/>
      <point x="1432" y="403" type="line"/>
    </contour>
    <contour>
      <point x="665" y="695" type="line"/>
      <point x="153" y="695" type="line"/>
      <point x="132" y="501" type="line"/>
      <point x="729" y="501" type="line"/>
    </contour>
    <component base="Y"/>
  </outline>
</glyph>
<glyph name="macroncomb" format="2">
  <unicode hex="0304"/>
  <anchor x="488" y="963" name="_top"/>
  <anchor x="488" y="1323" name="top"/>
  <outline>
    <contour>
      <point x="90" y="1095" type="line"/>
      <point x="886" y="1095" type="line"/>
      <point x="886" y="1321" type="line"/>
      <point x="90" y="1321" type="line"/>
    </contour>
  </outline>
</glyph>
<glyph name="ringcomb" format="2">
  <unicode hex="030A"/>
  <anchor x="364" y="963" name="_top"/>
  <anchor x="364" y="1403" name="top"/>
  <outline>
    <contour>
      <point x="100" y="1244" type="line" smooth="yes"/>
      <point x="100" y="1129"/>
      <point x="179" y="1050"/>
      <point x="364" y="1050" type="curve" smooth="yes"/>
      <point x="550" y="1050"/>
      <point x="628" y="1129"/>
      <point x="628" y="1244" type="curve" smooth="yes"/>
      <point x="628" y="1251" type="line" smooth="yes"/>
      <point x="628" y="1367"/>
      <point x="550" y="1445"/>
      <point x="364" y="1445" type="curve" smooth="yes"/>
      <point x="179" y="1445"/>
      <point x="100" y="1367"/>
      <point x="100" y="1251" type="curve" smooth="yes"/>
    </contour>
    <contour>
      <point x="281" y="1246" type="curve" smooth="yes"/>
      <point x="281" y="1250" type="line" smooth="yes"/>
      <point x="281" y="1288"/>
      <point x="308" y="1309"/>
      <point x="364" y="1309" type="curve" smooth="yes"/>
      <point x="420" y="1309"/>
      <point x="447" y="1288"/>
      <point x="447" y="1250" type="curve" smooth="yes"/>
      <point x="447" y="1246" type="line" smooth="yes"/>
      <point x="447" y="1208"/>
      <point x="420" y="1186"/>
      <point x="364" y="1186" type="curve" smooth="yes"/>
      <point x="308" y="1186"/>
      <point x="281" y="1208"/>
    </contour>
  </outline>
</glyph>
<glyph name="VowelE.tm" format="2">
  <advance width="1882"/>
  <unicode hex="0B8E"/>
  <note>
vowelE.tm
</note>
  <outline>
    <contour>
      <point x="923" y="845" type="line"/>
      <point x="1910" y="845" type="line"/>
      <point x="1872" y="1137" type="line"/>
      <point x="923" y="1137" type="line"/>
    </contour>
    <contour>
      <point x="1293" y="1054" type="line"/>
      <point x="1293" y="0" type="line"/>
      <point x="1668" y="0" type="line"/>
      <point x="1668" y="1054" type="line"/>
    </contour>
    <component base="VowelE_NonExporting" xOffset="28"/>
  </outline>
</glyph>
<glyph name="VowelO.tm" format="2">
  <advance width="2321"/>
  <unicode hex="0B92"/>
  <note>
vowelO.tm
</note>
  <outline>
    <contour>
      <point x="1138" y="1259" type="curve" smooth="yes"/>
      <point x="429" y="1259"/>
      <point x="80" y="980"/>
      <point x="80" y="546" type="curve" smooth="yes"/>
      <point x="80" y="537" type="line" smooth="yes"/>
      <point x="80" y="239"/>
      <point x="230" y="25"/>
      <point x="610" y="25" type="curve" smooth="yes"/>
      <point x="958" y="25"/>
      <point x="1082" y="190"/>
      <point x="1082" y="422" type="curve" smooth="yes"/>
      <point x="1082" y="422" type="line" smooth="yes"/>
      <point x="1082" y="642"/>
      <point x="971" y="759"/>
      <point x="754" y="759" type="curve" smooth="yes"/>
      <point x="565" y="759"/>
      <point x="465" y="670"/>
      <point x="442" y="556" type="curve"/>
      <point x="423" y="556" type="line"/>
      <point x="434" y="433" type="line"/>
      <point x="457" y="461"/>
      <point x="513" y="488"/>
      <point x="589" y="488" type="curve" smooth="yes"/>
      <point x="682" y="488"/>
      <point x="722" y="456"/>
      <point x="722" y="396" type="curve" smooth="yes"/>
      <point x="722" y="396" type="line" smooth="yes"/>
      <point x="722" y="345"/>
      <point x="686" y="306"/>
      <point x="598" y="306" type="curve" smooth="yes"/>
      <point x="488" y="306"/>
      <point x="444" y="356"/>
      <point x="444" y="440" type="curve"/>
      <point x="444" y="556" type="line"/>
      <point x="432" y="556" type="line"/>
      <point x="432" y="816"/>
      <point x="683" y="958"/>
      <point x="1138" y="958" type="curve" smooth="yes"/>
      <point x="1638" y="958"/>
      <point x="1826" y="810"/>
      <point x="1826" y="510" type="curve" smooth="yes"/>
      <point x="1826" y="510" type="line" smooth="yes"/>
      <point x="1826" y="382"/>
      <point x="1800" y="331"/>
      <point x="1701" y="331" type="curve" smooth="yes"/>
      <point x="1597" y="331"/>
      <point x="1562" y="387"/>
      <point x="1562" y="510" type="curve" smooth="yes"/>
      <point x="1562" y="588"/>
      <point x="1571" y="642"/>
      <point x="1590" y="723" type="curve"/>
      <point x="1245" y="723" type="line"/>
      <point x="1229" y="669"/>
      <point x="1212" y="584"/>
      <point x="1212" y="507" type="curve" smooth="yes"/>
      <point x="1212" y="224"/>
      <point x="1326" y="90"/>
      <point x="1703" y="90" type="curve"/>
      <point x="1831" y="90"/>
      <point x="1928" y="114"/>
      <point x="2002" y="155" type="curve"/>
      <point x="2136" y="225"/>
      <point x="2185" y="375"/>
      <point x="2185" y="553" type="curve" smooth="yes"/>
      <point x="2185" y="553" type="line" smooth="yes"/>
      <point x="2185" y="973"/>
      <point x="1895" y="1259"/>
    </contour>
    <contour>
      <point x="2245" y="262" type="line"/>
      <point x="1877" y="262" type="line"/>
      <point x="1613" y="99" type="line"/>
      <point x="1613" y="79" type="line"/>
      <point x="1474" y="79"/>
      <point x="1418" y="30"/>
      <point x="1397" y="-114" type="curve" smooth="yes"/>
      <point x="1393" y="-141" type="line" smooth="yes"/>
      <point x="1371" y="-287"/>
      <point x="1331" y="-348"/>
      <point x="1196" y="-348" type="curve" smooth="yes"/>
      <point x="1048" y="-348"/>
      <point x="986" y="-268"/>
      <point x="986" y="-90" type="curve" smooth="yes"/>
      <point x="986" y="-59"/>
      <point x="988" y="-26"/>
      <point x="991" y="4" type="curve"/>
      <point x="619" y="-29" type="line"/>
      <point x="618" y="-49"/>
      <point x="617" y="-78"/>
      <point x="617" y="-116" type="curve" smooth="yes"/>
      <point x="617" y="-454"/>
      <point x="812" y="-641"/>
      <point x="1208" y="-641" type="curve" smooth="yes"/>
      <point x="1592" y="-641"/>
      <point x="1743" y="-485"/>
      <point x="1763" y="-151" type="curve" smooth="yes"/>
      <point x="1764" y="-134" type="line" smooth="yes"/>
      <point x="1769" y="-55"/>
      <point x="1791" y="-22"/>
      <point x="1879" y="-21" type="curve" smooth="yes"/>
      <point x="2211" y="-19" type="line"/>
    </contour>
  </outline>
</glyph>
<glyph name="VowelOo.tm" format="2">
  <advance width="2321"/>
  <unicode hex="0B93"/>
  <note>
vowelOo.tm
</note>
  <outline>
    <contour>
      <point x="2245" y="262" type="line"/>
      <point x="1895" y="262" type="line"/>
      <point x="1629" y="99" type="line"/>
      <point x="1629" y="79" type="line"/>
      <point x="1497" y="79"/>
      <point x="1441" y="21"/>
      <point x="1421" y="-148" type="curve" smooth="yes"/>
      <point x="1418" y="-174" type="line" smooth="yes"/>
      <point x="1398" y="-343"/>
      <point x="1323" y="-412"/>
      <point x="1164" y="-412" type="curve" smooth="yes"/>
      <point x="1159" y="-412"/>
      <point x="1155" y="-412"/>
      <point x="1150" y="-412" type="curve"/>
      <point x="1150" y="-398" type="line"/>
      <point x="985" y="-400" type="line"/>
      <point x="891" y="-389"/>
      <point x="837" y="-329"/>
      <point x="837" y="-236" type="curve" smooth="yes"/>
      <point x="837" y="-234" type="line" smooth="yes"/>
      <point x="837" y="-164"/>
      <point x="863" y="-128"/>
      <point x="918" y="-128" type="curve" smooth="yes"/>
      <point x="967" y="-128"/>
      <point x="992" y="-165"/>
      <point x="992" y="-239" type="curve" smooth="yes"/>
      <point x="992" y="-239" type="line" smooth="yes"/>
      <point x="992" y="-324"/>
      <point x="967" y="-403"/>
      <point x="923" y="-447" type="curve"/>
      <point x="1150" y="-444" type="line"/>
      <point x="1150" y="-402" type="line"/>
      <point x="1250" y="-363"/>
      <point x="1303" y="-285"/>
      <point x="1303" y="-162" type="curve" smooth="yes"/>
      <point x="1303" y="-162" type="line"/>
      <point x="1303" y="11"/>
      <point x="1168" y="113"/>
      <point x="964" y="113" type="curve" smooth="yes"/>
      <point x="920" y="113"/>
      <point x="842" y="104"/>
      <point x="789" y="84" type="curve"/>
      <point x="768" y="81"/>
      <point x="745" y="76"/>
      <point x="724" y="72" type="curve"/>
      <point x="583" y="40"/>
      <point x="510" y="-79"/>
      <point x="510" y="-231" type="curve" smooth="yes"/>
      <point x="510" y="-231" type="line" smooth="yes"/>
      <point x="510" y="-507"/>
      <point x="715" y="-679"/>
      <point x="1129" y="-679" type="curve" smooth="yes"/>
      <point x="1580" y="-679"/>
      <point x="1739" y="-515"/>
      <point x="1780" y="-167" type="curve" smooth="yes"/>
      <point x="1782" y="-150" type="line" smooth="yes"/>
      <point x="1793" y="-60"/>
      <point x="1807" y="-22"/>
      <point x="1896" y="-21" type="curve" smooth="yes"/>
      <point x="2211" y="-19" type="line"/>
    </contour>
    <contour>
      <point x="1138" y="1259" type="curve" smooth="yes"/>
      <point x="429" y="1259"/>
      <point x="80" y="980"/>
      <point x="80" y="546" type="curve" smooth="yes"/>
      <point x="80" y="537" type="line" smooth="yes"/>
      <point x="80" y="251"/>
      <point x="230" y="45"/>
      <point x="610" y="45" type="curve" smooth="yes"/>
      <point x="651" y="45"/>
      <point x="724" y="51"/>
      <point x="772" y="63" type="curve"/>
      <point x="828" y="76" type="line"/>
      <point x="1011" y="131"/>
      <point x="1082" y="259"/>
      <point x="1082" y="422" type="curve" smooth="yes"/>
      <point x="1082" y="422" type="line" smooth="yes"/>
      <point x="1082" y="642"/>
      <point x="971" y="759"/>
      <point x="754" y="759" type="curve" smooth="yes"/>
      <point x="565" y="759"/>
      <point x="465" y="670"/>
      <point x="442" y="556" type="curve"/>
      <point x="423" y="556" type="line"/>
      <point x="434" y="433" type="line"/>
      <point x="457" y="461"/>
      <point x="513" y="488"/>
      <point x="589" y="488" type="curve" smooth="yes"/>
      <point x="682" y="488"/>
      <point x="722" y="456"/>
      <point x="722" y="396" type="curve" smooth="yes"/>
      <point x="722" y="396" type="line" smooth="yes"/>
      <point x="722" y="345"/>
      <point x="686" y="306"/>
      <point x="598" y="306" type="curve" smooth="yes"/>
      <point x="488" y="306"/>
      <point x="444" y="356"/>
      <point x="444" y="440" type="curve"/>
      <point x="444" y="556" type="line"/>
      <point x="432" y="556" type="line"/>
      <point x="432" y="816"/>
      <point x="683" y="958"/>
      <point x="1138" y="958" type="curve" smooth="yes"/>
      <point x="1638" y="958"/>
      <point x="1826" y="810"/>
      <point x="1826" y="510" type="curve" smooth="yes"/>
      <point x="1826" y="510" type="line" smooth="yes"/>
      <point x="1826" y="382"/>
      <point x="1800" y="331"/>
      <point x="1701" y="331" type="curve" smooth="yes"/>
      <point x="1597" y="331"/>
      <point x="1562" y="387"/>
      <point x="1562" y="510" type="curve" smooth="yes"/>
      <point x="1562" y="588"/>
      <point x="1571" y="642"/>
      <point x="1590" y="723" type="curve"/>
      <point x="1245" y="723" type="line"/>
      <point x="1229" y="669"/>
      <point x="1212" y="584"/>
      <point x="1212" y="507" type="curve" smooth="yes"/>
      <point x="1212" y="224"/>
      <point x="1326" y="90"/>
      <point x="1703" y="90" type="curve"/>
      <point x="1831" y="90"/>
      <point x="1928" y="114"/>
      <point x="2002" y="155" type="curve"/>
      <point x="2136" y="225"/>
      <point x="2185" y="375"/>
      <point x="2185" y="553" type="curve" smooth="yes"/>
      <point x="2185" y="553" type="line" smooth="yes"/>
      <point x="2185" y="973"/>
      <point x="1895" y="1259"/>
    </contour>
  </outline>
</glyph>
<glyph name="Ya.tm" format="2">
  <advance width="2558"/>
  <unicode hex="0BAF"/>
  <note>
Ya.tm
</note>
  <anchor x="1039" y="1218" name="top"/>
  <outline>
    <contour>
      <point x="2026" y="1137" type="line"/>
      <point x="2026" y="306" type="line"/>
      <point x="1525" y="306" type="line"/>
      <point x="1525" y="0" type="line"/>
      <point x="2412" y="0" type="line"/>
      <point x="2412" y="1137" type="line"/>
    </contour>
    <contour>
      <point x="1750" y="0" type="line"/>
      <point x="1750" y="306" type="line"/>
      <point x="1232" y="306" type="line"/>
      <point x="1232" y="1137" type="line"/>
      <point x="846" y="1137" type="line"/>
      <point x="846" y="515" type="line" smooth="yes"/>
      <point x="846" y="353"/>
      <point x="796" y="287"/>
      <point x="684" y="287" type="curve" smooth="yes"/>
      <point x="583" y="287"/>
      <point x="515" y="344"/>
      <point x="515" y="487" type="curve" smooth="yes"/>
      <point x="515" y="1137" type="line"/>
      <point x="140" y="1137" type="line"/>
      <point x="140" y="496" type="line" smooth="yes"/>
      <point x="140" y="134"/>
      <point x="299" y="-22"/>
      <point x="591" y="-22" type="curve" smooth="yes"/>
      <point x="819" y="-22"/>
      <point x="944" y="65"/>
      <point x="974" y="216" type="curve"/>
      <point x="989" y="216" type="line"/>
      <point x="989" y="0" type="line"/>
    </contour>
  </outline>
</glyph>
<glyph name="La.tm" format="2">
  <advance width="2504"/>
  <unicode hex="0BB2"/>
  <note>
La.tm
</note>
  <anchor x="1427" y="1218" name="top"/>
  <outline>
    <contour>
      <point x="892" y="1172" type="curve" smooth="yes"/>
      <point x="359" y="1172"/>
      <point x="108" y="912"/>
      <point x="108" y="507" type="curve" smooth="yes"/>
      <point x="108" y="495" type="line" smooth="yes"/>
      <point x="108" y="192"/>
      <point x="257" y="-26"/>
      <point x="637" y="-26" type="curve" smooth="yes"/>
      <point x="986" y="-26"/>
      <point x="1109" y="141"/>
      <point x="1109" y="377" type="curve" smooth="yes"/>
      <point x="1109" y="377" type="line" smooth="yes"/>
      <point x="1109" y="598"/>
      <point x="998" y="716"/>
      <point x="782" y="716" type="curve" smooth="yes"/>
      <point x="591" y="716"/>
      <point x="491" y="627"/>
      <point x="470" y="512" type="curve"/>
      <point x="457" y="512" type="line"/>
      <point x="461" y="391" type="line"/>
      <point x="484" y="419"/>
      <point x="541" y="445"/>
      <point x="616" y="445" type="curve" smooth="yes"/>
      <point x="710" y="445"/>
      <point x="750" y="412"/>
      <point x="750" y="350" type="curve" smooth="yes"/>
      <point x="750" y="350" type="line" smooth="yes"/>
      <point x="750" y="296"/>
      <point x="713" y="255"/>
      <point x="625" y="255" type="curve" smooth="yes"/>
      <point x="516" y="255"/>
      <point x="472" y="304"/>
      <point x="472" y="389" type="curve"/>
      <point x="472" y="512" type="line"/>
      <point x="460" y="512" type="line"/>
      <point x="460" y="514"/>
      <point x="460" y="514"/>
      <point x="460" y="516" type="curve"/>
      <point x="470" y="743"/>
      <point x="596" y="866"/>
      <point x="890" y="866" type="curve" smooth="yes"/>
      <point x="1165" y="866"/>
      <point x="1280" y="764"/>
      <point x="1280" y="517" type="curve" smooth="yes"/>
      <point x="1280" y="512" type="line" smooth="yes"/>
      <point x="1280" y="153"/>
      <point x="1440" y="-26"/>
      <point x="1843" y="-26" type="curve" smooth="yes"/>
      <point x="2258" y="-26"/>
      <point x="2404" y="169"/>
      <point x="2404" y="560" type="curve" smooth="yes"/>
      <point x="2404" y="568" type="line" smooth="yes"/>
      <point x="2404" y="950"/>
      <point x="2272" y="1172"/>
      <point x="1841" y="1172" type="curve" smooth="yes"/>
      <point x="1807" y="1172"/>
      <point x="1770" y="1168"/>
      <point x="1746" y="1164" type="curve"/>
      <point x="1682" y="856" type="line"/>
      <point x="1706" y="859"/>
      <point x="1733" y="861"/>
      <point x="1765" y="861" type="curve" smooth="yes"/>
      <point x="1960" y="861"/>
      <point x="2022" y="766"/>
      <point x="2022" y="563" type="curve" smooth="yes"/>
      <point x="2022" y="556" type="line" smooth="yes"/>
      <point x="2022" y="368"/>
      <point x="1980" y="278"/>
      <point x="1843" y="278" type="curve" smooth="yes"/>
      <point x="1704" y="278"/>
      <point x="1655" y="354"/>
      <point x="1655" y="537" type="curve" smooth="yes"/>
      <point x="1655" y="544" type="line" smooth="yes"/>
      <point x="1655" y="964"/>
      <point x="1436" y="1172"/>
    </contour>
  </outline>
</glyph>
<glyph name="Va.tm" format="2">
  <advance width="2494"/>
  <unicode hex="0BB5"/>
  <note>
Va.tm
</note>
  <anchor x="1482" y="1218" name="top"/>
  <outline>
    <contour>
      <point x="1973" y="1137" type="line"/>
      <point x="1973" y="292" type="line"/>
      <point x="1508" y="292" type="line"/>
      <point x="1526" y="0" type="line"/>
      <point x="2348" y="0" type="line"/>
      <point x="2348" y="1137" type="line"/>
    </contour>
    <component base="Va_NonExporting" xOffset="16"/>
  </outline>
</glyph>
<glyph name="Sa.tm" format="2">
  <advance width="3224"/>
  <unicode hex="0BB8"/>
  <note>
Sa.tm
</note>
  <anchor x="1872" y="1218" name="top"/>
  <outline>
    <contour>
      <point x="869" y="1172" type="curve" smooth="yes"/>
      <point x="352" y="1172"/>
      <point x="108" y="912"/>
      <point x="108" y="507" type="curve" smooth="yes"/>
      <point x="108" y="495" type="line" smooth="yes"/>
      <point x="108" y="192"/>
      <point x="257" y="-26"/>
      <point x="637" y="-26" type="curve" smooth="yes"/>
      <point x="986" y="-26"/>
      <point x="1109" y="141"/>
      <point x="1109" y="377" type="curve" smooth="yes"/>
      <point x="1109" y="377" type="line" smooth="yes"/>
      <point x="1109" y="598"/>
      <point x="998" y="716"/>
      <point x="782" y="716" type="curve" smooth="yes"/>
      <point x="591" y="716"/>
      <point x="491" y="627"/>
      <point x="470" y="512" type="curve"/>
      <point x="457" y="512" type="line"/>
      <point x="461" y="391" type="line"/>
      <point x="484" y="419"/>
      <point x="541" y="445"/>
      <point x="616" y="445" type="curve" smooth="yes"/>
      <point x="710" y="445"/>
      <point x="750" y="412"/>
      <point x="750" y="350" type="curve" smooth="yes"/>
      <point x="750" y="350" type="line" smooth="yes"/>
      <point x="750" y="296"/>
      <point x="713" y="255"/>
      <point x="625" y="255" type="curve" smooth="yes"/>
      <point x="516" y="255"/>
      <point x="472" y="304"/>
      <point x="472" y="389" type="curve"/>
      <point x="472" y="512" type="line"/>
      <point x="460" y="512" type="line"/>
      <point x="460" y="514"/>
      <point x="460" y="514"/>
      <point x="460" y="516" type="curve"/>
      <point x="470" y="743"/>
      <point x="596" y="866"/>
      <point x="889" y="866" type="curve" smooth="yes"/>
      <point x="1205" y="866"/>
      <point x="1326" y="746"/>
      <point x="1326" y="472" type="curve" smooth="yes"/>
      <point x="1326" y="0" type="line"/>
      <point x="1701" y="0" type="line"/>
      <point x="1701" y="661" type="line" smooth="yes"/>
      <point x="1701" y="808"/>
      <point x="1746" y="868"/>
      <point x="1843" y="868" type="curve" smooth="yes"/>
      <point x="1953" y="868"/>
      <point x="1987" y="810"/>
      <point x="1987" y="657" type="curve" smooth="yes"/>
      <point x="1987" y="547" type="line" smooth="yes"/>
      <point x="1987" y="156"/>
      <point x="2153" y="-26"/>
      <point x="2558" y="-26" type="curve" smooth="yes"/>
      <point x="2967" y="-26"/>
      <point x="3124" y="171"/>
      <point x="3124" y="565" type="curve" smooth="yes"/>
      <point x="3124" y="574" type="line" smooth="yes"/>
      <point x="3124" y="952"/>
      <point x="2988" y="1172"/>
      <point x="2601" y="1172" type="curve" smooth="yes"/>
      <point x="2564" y="1172"/>
      <point x="2523" y="1168"/>
      <point x="2497" y="1164" type="curve"/>
      <point x="2433" y="856" type="line"/>
      <point x="2454" y="859"/>
      <point x="2478" y="861"/>
      <point x="2506" y="861" type="curve" smooth="yes"/>
      <point x="2687" y="861"/>
      <point x="2742" y="769"/>
      <point x="2742" y="568" type="curve" smooth="yes"/>
      <point x="2742" y="560" type="line" smooth="yes"/>
      <point x="2742" y="370"/>
      <point x="2699" y="278"/>
      <point x="2558" y="278" type="curve" smooth="yes"/>
      <point x="2415" y="278"/>
      <point x="2362" y="357"/>
      <point x="2362" y="547" type="curve" smooth="yes"/>
      <point x="2362" y="678" type="line" smooth="yes"/>
      <point x="2362" y="1016"/>
      <point x="2221" y="1170"/>
      <point x="1922" y="1170" type="curve" smooth="yes"/>
      <point x="1635" y="1170"/>
      <point x="1499" y="1042"/>
      <point x="1499" y="791" type="curve" smooth="yes"/>
      <point x="1499" y="789" type="line"/>
      <point x="1490" y="789" type="line"/>
      <point x="1447" y="1041"/>
      <point x="1256" y="1172"/>
    </contour>
  </outline>
</glyph>
<glyph name="MatraAa.tm" format="2">
  <advance width="1443"/>
  <unicode hex="0BBE"/>
  <note>
RaAltMatraAa.tm
</note>
  <outline>
    <contour>
      <point x="854" y="1054" type="line"/>
      <point x="854" y="0" type="line"/>
      <point x="1229" y="0" type="line"/>
      <point x="1229" y="1054" type="line"/>
    </contour>
    <contour>
      <point x="1143" y="1137" type="line"/>
      <point x="146" y="1137" type="line"/>
      <point x="146" y="0" type="line"/>
      <point x="521" y="0" type="line"/>
      <point x="521" y="845" type="line"/>
      <point x="1143" y="845" type="line"/>
    </contour>
    <component base="RaBeak_Nonexporting" xOffset="865"/>
  </outline>
</glyph>
<glyph name="MatraUuDflt.tm" format="2">
  <advance width="2058"/>
  <unicode hex="0BC2"/>
  <note>
MatraUuDflt.tm
</note>
  <outline>
    <contour>
      <point x="0" y="1137" type="line"/>
      <point x="0" y="843" type="line"/>
      <point x="872" y="843" type="line" smooth="yes"/>
      <point x="999" y="843"/>
      <point x="1040" y="794"/>
      <point x="1040" y="696" type="curve" smooth="yes"/>
      <point x="1040" y="696" type="line" smooth="yes"/>
      <point x="1040" y="612"/>
      <point x="1009" y="566"/>
      <point x="932" y="566" type="curve" smooth="yes"/>
      <point x="846" y="566"/>
      <point x="815" y="624"/>
      <point x="815" y="734" type="curve" smooth="yes"/>
      <point x="815" y="779"/>
      <point x="817" y="814"/>
      <point x="822" y="845" type="curve"/>
      <point x="473" y="887" type="line"/>
      <point x="468" y="857"/>
      <point x="463" y="802"/>
      <point x="463" y="752" type="curve" smooth="yes"/>
      <point x="463" y="479"/>
      <point x="604" y="288"/>
      <point x="942" y="288" type="curve" smooth="yes"/>
      <point x="1248" y="288"/>
      <point x="1388" y="447"/>
      <point x="1388" y="706" type="curve" smooth="yes"/>
      <point x="1388" y="706" type="line" smooth="yes"/>
      <point x="1388" y="969"/>
      <point x="1248" y="1119"/>
      <point x="902" y="1119" type="curve" smooth="yes"/>
      <point x="736" y="1119" type="line"/>
      <point x="625" y="1137" type="line"/>
    </contour>
    <contour>
      <point x="1236" y="1510" type="curve" smooth="yes"/>
      <point x="857" y="1510"/>
      <point x="602" y="1338"/>
      <point x="514" y="1104" type="curve"/>
      <point x="866" y="1079" type="line"/>
      <point x="916" y="1158"/>
      <point x="1016" y="1216"/>
      <point x="1199" y="1216" type="curve" smooth="yes"/>
      <point x="1506" y="1216"/>
      <point x="1606" y="1038"/>
      <point x="1606" y="762" type="curve" smooth="yes"/>
      <point x="1606" y="572"/>
      <point x="1580" y="413"/>
      <point x="1536" y="237" type="curve"/>
      <point x="1913" y="239" type="line"/>
      <point x="1957" y="418"/>
      <point x="1978" y="590"/>
      <point x="1978" y="769" type="curve" smooth="yes"/>
      <point x="1978" y="1241"/>
      <point x="1752" y="1510"/>
    </contour>
  </outline>
</glyph>
<glyph name="MatraE.tm" format="2">
  <advance width="2237"/>
  <unicode hex="0BC6"/>
  <note>
MatraE.tm
</note>
  <outline>
    <contour>
      <point x="1092" y="1441" type="curve" smooth="yes"/>
      <point x="450" y="1441"/>
      <point x="92" y="1156"/>
      <point x="92" y="688" type="curve" smooth="yes"/>
      <point x="92" y="672" type="line" smooth="yes"/>
      <point x="92" y="246"/>
      <point x="367" y="-26"/>
      <point x="897" y="-26" type="curve" smooth="yes"/>
      <point x="1358" y="-26"/>
      <point x="1522" y="167"/>
      <point x="1522" y="438" type="curve" smooth="yes"/>
      <point x="1522" y="449" type="line" smooth="yes"/>
      <point x="1522" y="722"/>
      <point x="1349" y="864"/>
      <point x="1041" y="864" type="curve" smooth="yes"/>
      <point x="745" y="864"/>
      <point x="583" y="741"/>
      <point x="583" y="535" type="curve" smooth="yes"/>
      <point x="583" y="535" type="line" smooth="yes"/>
      <point x="583" y="398"/>
      <point x="663" y="302"/>
      <point x="780" y="270" type="curve"/>
      <point x="780" y="255" type="line"/>
      <point x="920" y="246" type="line"/>
      <point x="906" y="304"/>
      <point x="897" y="363"/>
      <point x="897" y="419" type="curve" smooth="yes"/>
      <point x="897" y="419" type="line" smooth="yes"/>
      <point x="897" y="512"/>
      <point x="944" y="565"/>
      <point x="1025" y="565" type="curve" smooth="yes"/>
      <point x="1117" y="565"/>
      <point x="1148" y="509"/>
      <point x="1148" y="424" type="curve" smooth="yes"/>
      <point x="1148" y="419" type="line" smooth="yes"/>
      <point x="1148" y="326"/>
      <point x="1096" y="257"/>
      <point x="943" y="257" type="curve" smooth="yes"/>
      <point x="901" y="257"/>
      <point x="837" y="262"/>
      <point x="796" y="268" type="curve"/>
      <point x="780" y="271" type="line"/>
      <point x="780" y="258" type="line"/>
      <point x="553" y="294"/>
      <point x="466" y="452"/>
      <point x="466" y="656" type="curve" smooth="yes"/>
      <point x="466" y="669" type="line" smooth="yes"/>
      <point x="466" y="959"/>
      <point x="676" y="1135"/>
      <point x="1082" y="1135" type="curve" smooth="yes"/>
      <point x="1519" y="1135"/>
      <point x="1724" y="968"/>
      <point x="1724" y="609" type="curve" smooth="yes"/>
      <point x="1724" y="0" type="line"/>
      <point x="2099" y="-2" type="line"/>
      <point x="2099" y="646" type="line" smooth="yes"/>
      <point x="2099" y="1153"/>
      <point x="1770" y="1441"/>
    </contour>
  </outline>
</glyph>
<glyph name="MatraEe.tm" format="2">
  <advance width="1709"/>
  <unicode hex="0BC7"/>
  <note>
MatraEe.tm
</note>
  <outline>
    <contour>
      <point x="970" y="1570" type="curve" smooth="yes"/>
      <point x="423" y="1570"/>
      <point x="90" y="1290"/>
      <point x="88" y="771" type="curve" smooth="yes"/>
      <point x="88" y="771" type="line"/>
      <point x="88" y="253"/>
      <point x="425" y="-26"/>
      <point x="977" y="-26" type="curve" smooth="yes"/>
      <point x="1451" y="-26"/>
      <point x="1637" y="167"/>
      <point x="1637" y="436" type="curve" smooth="yes"/>
      <point x="1637" y="436" type="line" smooth="yes"/>
      <point x="1637" y="672"/>
      <point x="1475" y="796"/>
      <point x="1187" y="796" type="curve"/>
      <point x="1141" y="796" type="line"/>
      <point x="853" y="796"/>
      <point x="697" y="672"/>
      <point x="697" y="498" type="curve" smooth="yes"/>
      <point x="697" y="498" type="line" smooth="yes"/>
      <point x="697" y="377"/>
      <point x="767" y="289"/>
      <point x="873" y="264" type="curve"/>
      <point x="873" y="243" type="line"/>
      <point x="1079" y="245" type="line"/>
      <point x="1046" y="282"/>
      <point x="1012" y="348"/>
      <point x="1012" y="421" type="curve" smooth="yes"/>
      <point x="1012" y="421" type="line" smooth="yes"/>
      <point x="1012" y="510"/>
      <point x="1058" y="565"/>
      <point x="1148" y="565" type="curve" smooth="yes"/>
      <point x="1239" y="565"/>
      <point x="1275" y="509"/>
      <point x="1275" y="426" type="curve" smooth="yes"/>
      <point x="1275" y="426" type="line" smooth="yes"/>
      <point x="1275" y="331"/>
      <point x="1213" y="259"/>
      <point x="1041" y="259" type="curve" smooth="yes"/>
      <point x="992" y="259"/>
      <point x="913" y="262"/>
      <point x="873" y="266" type="curve"/>
      <point x="873" y="254" type="line"/>
      <point x="581" y="282"/>
      <point x="449" y="471"/>
      <point x="449" y="771" type="curve" smooth="yes"/>
      <point x="449" y="771" type="line" smooth="yes"/>
      <point x="449" y="1070"/>
      <point x="581" y="1259"/>
      <point x="873" y="1289" type="curve"/>
      <point x="873" y="1276" type="line"/>
      <point x="913" y="1280"/>
      <point x="992" y="1283"/>
      <point x="1041" y="1283" type="curve" smooth="yes"/>
      <point x="1208" y="1283"/>
      <point x="1268" y="1213"/>
      <point x="1268" y="1119" type="curve" smooth="yes"/>
      <point x="1268" y="1119" type="line" smooth="yes"/>
      <point x="1268" y="1037"/>
      <point x="1234" y="980"/>
      <point x="1144" y="980" type="curve" smooth="yes"/>
      <point x="1056" y="980"/>
      <point x="1012" y="1033"/>
      <point x="1012" y="1125" type="curve" smooth="yes"/>
      <point x="1012" y="1125" type="line" smooth="yes"/>
      <point x="1012" y="1195"/>
      <point x="1046" y="1260"/>
      <point x="1079" y="1297" type="curve"/>
      <point x="873" y="1300" type="line"/>
      <point x="873" y="1279" type="line"/>
      <point x="767" y="1253"/>
      <point x="697" y="1166"/>
      <point x="697" y="1047" type="curve" smooth="yes"/>
      <point x="697" y="1047" type="line" smooth="yes"/>
      <point x="697" y="875"/>
      <point x="852" y="750"/>
      <point x="1141" y="750" type="curve"/>
      <point x="1187" y="750" type="line"/>
      <point x="1470" y="750"/>
      <point x="1630" y="876"/>
      <point x="1630" y="1111" type="curve" smooth="yes"/>
      <point x="1630" y="1111" type="line" smooth="yes"/>
      <point x="1630" y="1378"/>
      <point x="1444" y="1570"/>
    </contour>
  </outline>
</glyph>
<glyph name="Zero.tm" format="2">
  <advance width="1643"/>
  <unicode hex="0BE6"/>
  <note>
Zero.tm
</note>
  <outline>
    <contour>
      <point x="825" y="899" type="curve" smooth="yes"/>
      <point x="1056" y="899"/>
      <point x="1162" y="788"/>
      <point x="1162" y="598" type="curve" smooth="yes"/>
      <point x="1162" y="588" type="line" smooth="yes"/>
      <point x="1162" y="398"/>
      <point x="1059" y="285"/>
      <point x="825" y="285" type="curve" smooth="yes"/>
      <point x="586" y="285"/>
      <point x="482" y="398"/>
      <point x="482" y="588" type="curve" smooth="yes"/>
      <point x="482" y="598" type="line" smooth="yes"/>
      <point x="482" y="788"/>
      <point x="590" y="899"/>
    </contour>
    <contour>
      <point x="825" y="1216" type="curve" smooth="yes"/>
      <point x="320" y="1216"/>
      <point x="94" y="977"/>
      <point x="94" y="598" type="curve"/>
      <point x="94" y="588" type="line" smooth="yes"/>
      <point x="94" y="213"/>
      <point x="317" y="-32"/>
      <point x="825" y="-32" type="curve" smooth="yes"/>
      <point x="1330" y="-32"/>
      <point x="1549" y="213"/>
      <point x="1549" y="588" type="curve" smooth="yes"/>
      <point x="1549" y="598" type="line"/>
      <point x="1549" y="977"/>
      <point x="1327" y="1216"/>
    </contour>
  </outline>
</glyph>
<glyph name="Five.tm" format="2">
  <advance width="2695"/>
  <unicode hex="0BEB"/>
  <note>
Five.tm
</note>
  <outline>
    <contour>
      <point x="1538" y="1052" type="line"/>
      <point x="1538" y="0" type="line"/>
      <point x="1913" y="0" type="line"/>
      <point x="1913" y="1052" type="line"/>
    </contour>
    <contour>
      <point x="2242" y="716" type="curve" smooth="yes"/>
      <point x="2052" y="716"/>
      <point x="1946" y="621"/>
      <point x="1924" y="488" type="curve"/>
      <point x="1869" y="488" type="line"/>
      <point x="1869" y="312" type="line"/>
      <point x="1894" y="312" type="line"/>
      <point x="1920" y="370"/>
      <point x="1985" y="410"/>
      <point x="2073" y="410" type="curve" smooth="yes"/>
      <point x="2189" y="410"/>
      <point x="2239" y="343"/>
      <point x="2239" y="206" type="curve" smooth="yes"/>
      <point x="2239" y="206" type="line" smooth="yes"/>
      <point x="2239" y="-97"/>
      <point x="2015" y="-275"/>
      <point x="1477" y="-275" type="curve" smooth="yes"/>
      <point x="1471" y="-275" type="line" smooth="yes"/>
      <point x="785" y="-275"/>
      <point x="498" y="0"/>
      <point x="498" y="588" type="curve" smooth="yes"/>
      <point x="498" y="602" type="line" smooth="yes"/>
      <point x="498" y="1167"/>
      <point x="804" y="1429"/>
      <point x="1542" y="1429" type="curve" smooth="yes"/>
      <point x="1941" y="1429"/>
      <point x="2251" y="1359"/>
      <point x="2529" y="1213" type="curve"/>
      <point x="2462" y="1568" type="line"/>
      <point x="2219" y="1681"/>
      <point x="1911" y="1742"/>
      <point x="1542" y="1742" type="curve" smooth="yes"/>
      <point x="588" y="1742"/>
      <point x="116" y="1364"/>
      <point x="116" y="605" type="curve" smooth="yes"/>
      <point x="116" y="584" type="line" smooth="yes"/>
      <point x="116" y="-197"/>
      <point x="565" y="-588"/>
      <point x="1471" y="-588" type="curve" smooth="yes"/>
      <point x="1478" y="-588" type="line" smooth="yes"/>
      <point x="2246" y="-588"/>
      <point x="2621" y="-297"/>
      <point x="2621" y="224" type="curve" smooth="yes"/>
      <point x="2621" y="224" type="line" smooth="yes"/>
      <point x="2621" y="546"/>
      <point x="2504" y="716"/>
    </contour>
    <contour>
      <point x="1990" y="1137" type="line"/>
      <point x="849" y="1137" type="line"/>
      <point x="849" y="0" type="line"/>
      <point x="1224" y="0" type="line"/>
      <point x="1224" y="845" type="line"/>
      <point x="1990" y="845" type="line"/>
    </contour>
    <component base="RaBeak_Nonexporting" xOffset="1784"/>
  </outline>
</glyph>
<glyph name="Six.tm" format="2">
  <advance width="2833"/>
  <unicode hex="0BEC"/>
  <note>
Six.tm
</note>
  <outline>
    <contour>
      <point x="1208" y="444" type="line"/>
      <point x="1355" y="444" type="line" smooth="yes"/>
      <point x="1515" y="444"/>
      <point x="1561" y="389"/>
      <point x="1561" y="215" type="curve" smooth="yes"/>
      <point x="1561" y="0" type="line"/>
      <point x="1936" y="0" type="line"/>
      <point x="1936" y="215" type="line" smooth="yes"/>
      <point x="1936" y="389"/>
      <point x="1982" y="444"/>
      <point x="2142" y="444" type="curve" smooth="yes"/>
      <point x="2813" y="444" type="line"/>
      <point x="2776" y="732" type="line"/>
      <point x="2100" y="732" type="line" smooth="yes"/>
      <point x="1881" y="732"/>
      <point x="1784" y="665"/>
      <point x="1754" y="482" type="curve"/>
      <point x="1744" y="482" type="line"/>
      <point x="1714" y="665"/>
      <point x="1618" y="732"/>
      <point x="1398" y="732" type="curve" smooth="yes"/>
      <point x="1208" y="732" type="line"/>
    </contour>
    <contour>
      <point x="2191" y="556" type="line"/>
      <point x="2191" y="0" type="line"/>
      <point x="2566" y="0" type="line"/>
      <point x="2566" y="556" type="line"/>
    </contour>
    <component base="KaComponent_Nonexporting" xOffset="30"/>
    <component base="KaBeak_Nonexporting" xOffset="1371"/>
  </outline>
</glyph>
<glyph name="Eight.tm" format="2">
  <advance width="2570"/>
  <unicode hex="0BEE"/>
  <note>
Eight.tm
</note>
  <outline>
    <contour>
      <point x="2049" y="1135" type="line"/>
      <point x="2049" y="-84" type="line"/>
      <point x="2424" y="-84" type="line"/>
      <point x="2424" y="1135" type="line"/>
    </contour>
    <contour>
      <point x="1206" y="1200" type="curve" smooth="yes"/>
      <point x="729" y="1200"/>
      <point x="520" y="949"/>
      <point x="512" y="568" type="curve"/>
      <point x="512" y="553"/>
      <point x="512" y="539"/>
      <point x="512" y="523" type="curve"/>
      <point x="864" y="526" type="line"/>
      <point x="864" y="542"/>
      <point x="864" y="556"/>
      <point x="864" y="572" type="curve"/>
      <point x="872" y="804"/>
      <point x="956" y="936"/>
      <point x="1206" y="936" type="curve" smooth="yes"/>
      <point x="1451" y="936"/>
      <point x="1528" y="804"/>
      <point x="1528" y="572" type="curve" smooth="yes"/>
      <point x="1528" y="532" type="line" smooth="yes"/>
      <point x="1528" y="266"/>
      <point x="1352" y="155"/>
      <point x="982" y="155" type="curve" smooth="yes"/>
      <point x="979" y="155" type="line" smooth="yes"/>
      <point x="636" y="155"/>
      <point x="402" y="255"/>
      <point x="402" y="421" type="curve" smooth="yes"/>
      <point x="402" y="421" type="line"/>
      <point x="402" y="422" type="line"/>
      <point x="2091" y="422" type="line"/>
      <point x="2075" y="676" type="line"/>
      <point x="58" y="676" type="line"/>
      <point x="53" y="634"/>
      <point x="50" y="593"/>
      <point x="50" y="560" type="curve" smooth="yes"/>
      <point x="50" y="560" type="line" smooth="yes"/>
      <point x="50" y="93"/>
      <point x="405" y="-118"/>
      <point x="979" y="-118" type="curve" smooth="yes"/>
      <point x="984" y="-118" type="line" smooth="yes"/>
      <point x="1602" y="-118"/>
      <point x="1889" y="90"/>
      <point x="1889" y="533" type="curve" smooth="yes"/>
      <point x="1889" y="567" type="line" smooth="yes"/>
      <point x="1889" y="949"/>
      <point x="1686" y="1200"/>
    </contour>
  </outline>
</glyph>
<glyph name="Nine.tm" format="2">
  <advance width="2701"/>
  <unicode hex="0BEF"/>
  <note>
Nine.tm
</note>
  <outline>
    <contour>
      <point x="1242" y="444" type="line"/>
      <point x="1355" y="444" type="line" smooth="yes"/>
      <point x="1515" y="444"/>
      <point x="1561" y="389"/>
      <point x="1561" y="215" type="curve" smooth="yes"/>
      <point x="1561" y="0" type="line"/>
      <point x="1936" y="0" type="line"/>
      <point x="1936" y="246" type="line" smooth="yes"/>
      <point x="1936" y="392"/>
      <point x="1992" y="466"/>
      <point x="2109" y="466" type="curve" smooth="yes"/>
      <point x="2223" y="466"/>
      <point x="2263" y="394"/>
      <point x="2263" y="266" type="curve" smooth="yes"/>
      <point x="2263" y="266" type="line" smooth="yes"/>
      <point x="2263" y="155"/>
      <point x="2242" y="74"/>
      <point x="2200" y="0" type="curve"/>
      <point x="2563" y="0" type="line"/>
      <point x="2601" y="84"/>
      <point x="2631" y="220"/>
      <point x="2631" y="363" type="curve" smooth="yes"/>
      <point x="2631" y="368" type="line" smooth="yes"/>
      <point x="2631" y="618"/>
      <point x="2506" y="769"/>
      <point x="2200" y="769" type="curve" smooth="yes"/>
      <point x="1920" y="769"/>
      <point x="1783" y="649"/>
      <point x="1772" y="482" type="curve" smooth="yes"/>
      <point x="1772" y="482" type="line"/>
      <point x="1762" y="482" type="line"/>
      <point x="1731" y="665"/>
      <point x="1630" y="732"/>
      <point x="1398" y="732" type="curve" smooth="yes"/>
      <point x="1242" y="732" type="line"/>
    </contour>
    <component base="KaComponent_Nonexporting" xOffset="30"/>
    <component base="KaBeak_Nonexporting" xOffset="1246"/>
  </outline>
</glyph>
<glyph name="Thousand.tm" format="2">
  <advance width="2894"/>
  <unicode hex="0BF2"/>
  <note>
Thousand.tm
</note>
  <outline>
    <contour>
      <point x="1211" y="444" type="line"/>
      <point x="2672" y="444" type="line"/>
      <point x="2635" y="732" type="line"/>
      <point x="1211" y="732" type="line"/>
    </contour>
    <contour>
      <point x="2065" y="567" type="line"/>
      <point x="2065" y="257" type="line"/>
      <point x="2059" y="232" type="line"/>
      <point x="2059" y="104" type="line" smooth="yes"/>
      <point x="2059" y="25"/>
      <point x="2008" y="-11"/>
      <point x="1892" y="-11" type="curve" smooth="yes"/>
      <point x="1771" y="-11"/>
      <point x="1709" y="23"/>
      <point x="1709" y="77" type="curve" smooth="yes"/>
      <point x="1709" y="77" type="line" smooth="yes"/>
      <point x="1709" y="99"/>
      <point x="1721" y="111"/>
      <point x="1748" y="111" type="curve" smooth="yes"/>
      <point x="2219" y="111" type="line"/>
      <point x="2242" y="104" type="line"/>
      <point x="2343" y="104" type="line" smooth="yes"/>
      <point x="2485" y="104"/>
      <point x="2543" y="51"/>
      <point x="2543" y="-77" type="curve" smooth="yes"/>
      <point x="2543" y="-81" type="line" smooth="yes"/>
      <point x="2543" y="-273"/>
      <point x="2439" y="-347"/>
      <point x="2167" y="-347" type="curve" smooth="yes"/>
      <point x="1787" y="-347" type="line"/>
      <point x="1791" y="-604" type="line"/>
      <point x="2184" y="-604" type="line" smooth="yes"/>
      <point x="2670" y="-604"/>
      <point x="2864" y="-456"/>
      <point x="2864" y="-83" type="curve" smooth="yes"/>
      <point x="2864" y="-79" type="line" smooth="yes"/>
      <point x="2864" y="215"/>
      <point x="2703" y="348"/>
      <point x="2353" y="348" type="curve" smooth="yes"/>
      <point x="2242" y="348" type="line"/>
      <point x="2219" y="341" type="line"/>
      <point x="1721" y="341" type="line" smooth="yes"/>
      <point x="1500" y="341"/>
      <point x="1401" y="257"/>
      <point x="1401" y="77" type="curve" smooth="yes"/>
      <point x="1401" y="77" type="line" smooth="yes"/>
      <point x="1401" y="-141"/>
      <point x="1577" y="-260"/>
      <point x="1899" y="-260" type="curve" smooth="yes"/>
      <point x="2230" y="-260"/>
      <point x="2364" y="-153"/>
      <point x="2364" y="113" type="curve" smooth="yes"/>
      <point x="2364" y="232" type="line"/>
      <point x="2364" y="257" type="line"/>
      <point x="2364" y="567" type="line"/>
    </contour>
    <contour>
      <point x="1970" y="-347" type="line"/>
      <point x="1749" y="-347" type="line" smooth="yes"/>
      <point x="1525" y="-347"/>
      <point x="1423" y="-359"/>
      <point x="1316" y="-401" type="curve"/>
      <point x="1272" y="-693" type="line"/>
      <point x="1411" y="-641"/>
      <point x="1536" y="-604"/>
      <point x="1756" y="-604" type="curve" smooth="yes"/>
      <point x="1970" y="-604" type="line"/>
    </contour>
    <component base="KaComponent_Nonexporting" xOffset="30"/>
    <component base="KaBeak_Nonexporting" xOffset="1246"/>
  </outline>
</glyph>
<glyph name="DaySign.tm" format="2">
  <advance width="2404"/>
  <unicode hex="0BF3"/>
  <note>
DaySign.tm
</note>
  <outline>
    <contour>
      <point x="1623" y="0" type="line"/>
      <point x="2366" y="0" type="line"/>
      <point x="2404" y="299" type="line"/>
      <point x="1623" y="299" type="line"/>
    </contour>
    <component base="Va_NonExporting" xOffset="16"/>
  </outline>
</glyph>
<glyph name="DebitSign.tm" format="2">
  <advance width="2665"/>
  <unicode hex="0BF6"/>
  <note>
DebitSign.tm
</note>
  <anchor x="977" y="1218" name="top"/>
  <outline>
    <contour>
      <point x="2140" y="1135" type="line"/>
      <point x="2140" y="-389" type="line"/>
      <point x="2519" y="-389" type="line"/>
      <point x="2519" y="1135" type="line"/>
    </contour>
    <contour>
      <point x="921" y="-866" type="curve" smooth="yes"/>
      <point x="1490" y="-866"/>
      <point x="1754" y="-641"/>
      <point x="1797" y="-294" type="curve"/>
      <point x="1798" y="-216" type="line"/>
      <point x="1805" y="-155"/>
      <point x="1808" y="-74"/>
      <point x="1808" y="0" type="curve" smooth="yes"/>
      <point x="1808" y="125" type="line"/>
      <point x="1429" y="107" type="line"/>
      <point x="1429" y="-14" type="line"/>
      <point x="1429" y="-81"/>
      <point x="1424" y="-150"/>
      <point x="1415" y="-199" type="curve"/>
      <point x="1410" y="-287" type="line"/>
      <point x="1401" y="-470"/>
      <point x="1242" y="-586"/>
      <point x="921" y="-586" type="curve" smooth="yes"/>
      <point x="613" y="-586"/>
      <point x="448" y="-485"/>
      <point x="429" y="-370" type="curve"/>
      <point x="1447" y="-370" type="line"/>
      <point x="1588" y="-389" type="line"/>
      <point x="2519" y="-389" type="line"/>
      <point x="2519" y="-114" type="line"/>
      <point x="-16" y="-114" type="line"/>
      <point x="2" y="-598"/>
      <point x="320" y="-866"/>
    </contour>
    <component base="Pa.tm"/>
  </outline>
</glyph>
<glyph name="AsAboveSign.tm" format="2">
  <advance width="4838"/>
  <unicode hex="0BF8"/>
  <note>
AsAboveSign.tm
</note>
  <outline>
    <contour>
      <point x="92" y="688" type="curve" smooth="yes"/>
      <point x="92" y="672" type="line" smooth="yes"/>
      <point x="92" y="246"/>
      <point x="367" y="-26"/>
      <point x="897" y="-26" type="curve" smooth="yes"/>
      <point x="1358" y="-26"/>
      <point x="1522" y="167"/>
      <point x="1522" y="438" type="curve" smooth="yes"/>
      <point x="1522" y="449" type="line" smooth="yes"/>
      <point x="1522" y="722"/>
      <point x="1349" y="864"/>
      <point x="1041" y="864" type="curve" smooth="yes"/>
      <point x="745" y="864"/>
      <point x="583" y="741"/>
      <point x="583" y="535" type="curve" smooth="yes"/>
      <point x="583" y="535" type="line" smooth="yes"/>
      <point x="583" y="398"/>
      <point x="663" y="302"/>
      <point x="780" y="270" type="curve"/>
      <point x="780" y="256" type="line"/>
      <point x="920" y="246" type="line"/>
      <point x="906" y="304"/>
      <point x="897" y="363"/>
      <point x="897" y="419" type="curve" smooth="yes"/>
      <point x="897" y="419" type="line" smooth="yes"/>
      <point x="897" y="512"/>
      <point x="944" y="565"/>
      <point x="1025" y="565" type="curve" smooth="yes"/>
      <point x="1117" y="565"/>
      <point x="1148" y="509"/>
      <point x="1148" y="424" type="curve" smooth="yes"/>
      <point x="1148" y="419" type="line" smooth="yes"/>
      <point x="1148" y="326"/>
      <point x="1096" y="257"/>
      <point x="943" y="257" type="curve" smooth="yes"/>
      <point x="901" y="257"/>
      <point x="837" y="262"/>
      <point x="796" y="268" type="curve"/>
      <point x="780" y="271" type="line"/>
      <point x="780" y="259" type="line"/>
      <point x="553" y="295"/>
      <point x="466" y="452"/>
      <point x="466" y="656" type="curve" smooth="yes"/>
      <point x="466" y="669" type="line" smooth="yes"/>
      <point x="466" y="963"/>
      <point x="670" y="1142"/>
      <point x="1064" y="1142" type="curve" smooth="yes"/>
      <point x="1490" y="1142"/>
      <point x="1682" y="984"/>
      <point x="1717" y="644" type="curve"/>
      <point x="1976" y="929" type="line"/>
      <point x="1902" y="1227"/>
      <point x="1606" y="1448"/>
      <point x="1075" y="1448" type="curve" smooth="yes"/>
      <point x="444" y="1448"/>
      <point x="92" y="1160"/>
    </contour>
    <contour>
      <point x="1679" y="503" type="curve" smooth="yes"/>
      <point x="1679" y="495" type="line" smooth="yes"/>
      <point x="1679" y="192"/>
      <point x="1828" y="-26"/>
      <point x="2208" y="-26" type="curve" smooth="yes"/>
      <point x="2557" y="-26"/>
      <point x="2680" y="141"/>
      <point x="2680" y="377" type="curve" smooth="yes"/>
      <point x="2680" y="377" type="line" smooth="yes"/>
      <point x="2680" y="598"/>
      <point x="2569" y="716"/>
      <point x="2353" y="716" type="curve" smooth="yes"/>
      <point x="2162" y="716"/>
      <point x="2062" y="627"/>
      <point x="2041" y="512" type="curve"/>
      <point x="2028" y="512" type="line"/>
      <point x="2032" y="391" type="line"/>
      <point x="2055" y="419"/>
      <point x="2112" y="445"/>
      <point x="2187" y="445" type="curve" smooth="yes"/>
      <point x="2281" y="445"/>
      <point x="2321" y="412"/>
      <point x="2321" y="350" type="curve" smooth="yes"/>
      <point x="2321" y="350" type="line" smooth="yes"/>
      <point x="2321" y="296"/>
      <point x="2284" y="255"/>
      <point x="2196" y="255" type="curve" smooth="yes"/>
      <point x="2087" y="255"/>
      <point x="2043" y="304"/>
      <point x="2043" y="389" type="curve"/>
      <point x="2043" y="512" type="line"/>
      <point x="2031" y="512" type="line"/>
      <point x="2031" y="512" type="line"/>
      <point x="2042" y="739"/>
      <point x="2181" y="862"/>
      <point x="2479" y="862" type="curve" smooth="yes"/>
      <point x="2776" y="862"/>
      <point x="2904" y="739"/>
      <point x="2904" y="477" type="curve" smooth="yes"/>
      <point x="2904" y="463" type="line" smooth="yes"/>
      <point x="2904" y="294"/>
      <point x="2871" y="150"/>
      <point x="2785" y="19" type="curve"/>
      <point x="2785" y="0" type="line"/>
      <point x="3561" y="0" type="line"/>
      <point x="3561" y="292" type="line"/>
      <point x="3051" y="292" type="line"/>
      <point x="3110" y="100" type="line"/>
      <point x="3239" y="216"/>
      <point x="3286" y="359"/>
      <point x="3286" y="546" type="curve" smooth="yes"/>
      <point x="3286" y="558" type="line" smooth="yes"/>
      <point x="3286" y="947"/>
      <point x="3066" y="1172"/>
      <point x="2512" y="1172" type="curve" smooth="yes"/>
      <point x="2186" y="1172"/>
      <point x="1933" y="1052"/>
      <point x="1875" y="875" type="curve"/>
      <point x="1833" y="891" type="line"/>
      <point x="1714" y="796"/>
      <point x="1679" y="655"/>
    </contour>
    <component base="Ssa_Above_NonExporting" xOffset="3160"/>
    <component base="Ssa_Below_NonExporting" xOffset="3626"/>
  </outline>
</glyph>
<glyph name="CaMatraU.tm" format="2">
  <advance width="2184"/>
  <note>
CaMatraU.tm
</note>
  <outline>
    <contour>
      <point x="1142" y="444" type="line"/>
      <point x="2164" y="444" type="line"/>
      <point x="2127" y="732" type="line"/>
      <point x="1142" y="732" type="line"/>
    </contour>
    <contour>
      <point x="1542" y="556" type="line"/>
      <point x="1542" y="0" type="line"/>
      <point x="1917" y="0" type="line"/>
      <point x="1917" y="556" type="line"/>
    </contour>
    <component base="KaComponent_Nonexporting" xOffset="30"/>
    <component base="KaBeak_Nonexporting" xOffset="1286"/>
  </outline>
</glyph>
<glyph name="CaMatraUu.tm" format="2">
  <advance width="3220"/>
  <note>
CaMatraUu.tm
</note>
  <outline>
    <contour>
      <point x="1855" y="444" type="line"/>
      <point x="2301" y="444" type="line"/>
      <point x="2424" y="461" type="line"/>
      <point x="2987" y="461" type="line"/>
      <point x="2950" y="732" type="line"/>
      <point x="1855" y="732" type="line"/>
    </contour>
    <contour>
      <point x="2181" y="532" type="line"/>
      <point x="2181" y="0" type="line"/>
      <point x="2556" y="0" type="line"/>
      <point x="2556" y="532" type="line"/>
    </contour>
    <contour>
      <point x="265" y="1137" type="line"/>
      <point x="175" y="991"/>
      <point x="110" y="753"/>
      <point x="110" y="482" type="curve" smooth="yes"/>
      <point x="110" y="-292"/>
      <point x="639" y="-658"/>
      <point x="1795" y="-658" type="curve" smooth="yes"/>
      <point x="1802" y="-658" type="line" smooth="yes"/>
      <point x="2740" y="-658"/>
      <point x="3184" y="-411"/>
      <point x="3184" y="51" type="curve" smooth="yes"/>
      <point x="3184" y="62" type="line" smooth="yes"/>
      <point x="3184" y="292"/>
      <point x="3089" y="415"/>
      <point x="2876" y="415" type="curve" smooth="yes"/>
      <point x="2689" y="415"/>
      <point x="2587" y="331"/>
      <point x="2565" y="211" type="curve"/>
      <point x="2510" y="211" type="line"/>
      <point x="2510" y="76" type="line"/>
      <point x="2535" y="76" type="line"/>
      <point x="2563" y="118"/>
      <point x="2617" y="146"/>
      <point x="2689" y="146" type="curve" smooth="yes"/>
      <point x="2772" y="146"/>
      <point x="2809" y="109"/>
      <point x="2809" y="40" type="curve" smooth="yes"/>
      <point x="2809" y="33" type="line" smooth="yes"/>
      <point x="2809" y="-217"/>
      <point x="2492" y="-345"/>
      <point x="1802" y="-345" type="curve" smooth="yes"/>
      <point x="1795" y="-345" type="line" smooth="yes"/>
      <point x="864" y="-345"/>
      <point x="492" y="-83"/>
      <point x="492" y="486" type="curve" smooth="yes"/>
      <point x="492" y="736"/>
      <point x="543" y="929"/>
      <point x="662" y="1137" type="curve"/>
    </contour>
    <component base="KaComponent_Nonexporting" xOffset="701"/>
    <component base="KaBeak_Nonexporting" xOffset="2043"/>
  </outline>
</glyph>
<glyph name="CaMatraUu_Simple.tm" format="2">
  <advance width="3246"/>
  <note>
CaMatraUu.tm
</note>
  <outline>
    <contour>
      <point x="1881" y="444" type="line"/>
      <point x="2327" y="444" type="line"/>
      <point x="2450" y="461" type="line"/>
      <point x="3013" y="461" type="line"/>
      <point x="2976" y="732" type="line"/>
      <point x="1881" y="732" type="line"/>
    </contour>
    <contour>
      <point x="2207" y="532" type="line"/>
      <point x="2207" y="0" type="line"/>
      <point x="2582" y="0" type="line"/>
      <point x="2582" y="532" type="line"/>
    </contour>
    <contour>
      <point x="136" y="1137" type="line"/>
      <point x="136" y="482" type="line"/>
      <point x="136" y="-292"/>
      <point x="665" y="-658"/>
      <point x="1821" y="-658" type="curve" smooth="yes"/>
      <point x="1828" y="-658" type="line" smooth="yes"/>
      <point x="2766" y="-658"/>
      <point x="3210" y="-411"/>
      <point x="3210" y="51" type="curve" smooth="yes"/>
      <point x="3210" y="62" type="line" smooth="yes"/>
      <point x="3210" y="292"/>
      <point x="3115" y="415"/>
      <point x="2902" y="415" type="curve" smooth="yes"/>
      <point x="2715" y="415"/>
      <point x="2613" y="331"/>
      <point x="2591" y="211" type="curve"/>
      <point x="2536" y="211" type="line"/>
      <point x="2536" y="76" type="line"/>
      <point x="2561" y="76" type="line"/>
      <point x="2589" y="118"/>
      <point x="2643" y="146"/>
      <point x="2715" y="146" type="curve" smooth="yes"/>
      <point x="2798" y="146"/>
      <point x="2835" y="109"/>
      <point x="2835" y="40" type="curve" smooth="yes"/>
      <point x="2835" y="33" type="line" smooth="yes"/>
      <point x="2835" y="-217"/>
      <point x="2518" y="-345"/>
      <point x="1828" y="-345" type="curve" smooth="yes"/>
      <point x="1821" y="-345" type="line" smooth="yes"/>
      <point x="890" y="-345"/>
      <point x="518" y="-83"/>
      <point x="518" y="486" type="curve"/>
      <point x="518" y="1137" type="line"/>
    </contour>
    <component base="KaComponent_Nonexporting" xOffset="727"/>
    <component base="KaBeak_Nonexporting" xOffset="2069"/>
  </outline>
</glyph>
<glyph name="HaMatraI_Fly.tm" format="2">
  <advance width="3915"/>
  <note>
HaMatraI.tm
</note>
  <anchor x="1797" y="1218" name="top"/>
  <outline>
    <contour>
      <point x="3903" y="1646" type="line"/>
      <point x="3393" y="1646" type="line" smooth="yes"/>
      <point x="3161" y="1646"/>
      <point x="3048" y="1575"/>
      <point x="3048" y="1415" type="curve" smooth="yes"/>
      <point x="3048" y="1324"/>
      <point x="3081" y="1242"/>
      <point x="3165" y="1123" type="curve"/>
      <point x="3530" y="1123" type="line"/>
      <point x="3476" y="1196"/>
      <point x="3450" y="1243"/>
      <point x="3450" y="1281" type="curve" smooth="yes"/>
      <point x="3450" y="1327"/>
      <point x="3477" y="1345"/>
      <point x="3538" y="1345" type="curve" smooth="yes"/>
      <point x="3947" y="1345" type="line"/>
    </contour>
    <component base="Ha.tm"/>
  </outline>
</glyph>
<glyph name="JaMatraI_Fused_Fly.tm" format="2">
  <advance width="2441"/>
  <note>
JaMatraI.tm
</note>
  <anchor x="1398" y="1218" name="top"/>
  <outline>
    <contour>
      <point x="2426" y="1646" type="line"/>
      <point x="1916" y="1646" type="line" smooth="yes"/>
      <point x="1684" y="1646"/>
      <point x="1571" y="1575"/>
      <point x="1571" y="1415" type="curve" smooth="yes"/>
      <point x="1571" y="1324"/>
      <point x="1604" y="1242"/>
      <point x="1688" y="1123" type="curve"/>
      <point x="2053" y="1123" type="line"/>
      <point x="1999" y="1196"/>
      <point x="1973" y="1243"/>
      <point x="1973" y="1281" type="curve" smooth="yes"/>
      <point x="1973" y="1327"/>
      <point x="2000" y="1345"/>
      <point x="2061" y="1345" type="curve" smooth="yes"/>
      <point x="2470" y="1345" type="line"/>
    </contour>
    <component base="Ja_dummy.tm"/>
  </outline>
</glyph>
<glyph name="JaMatraIi_Fused_SimpleIi.tm" format="2">
  <advance width="2441"/>
  <note>
JaMatraIi.tm
</note>
  <anchor x="1398" y="1218" name="top"/>
  <outline>
    <contour>
      <point x="2105" y="1869" type="curve" smooth="yes"/>
      <point x="1727" y="1869"/>
      <point x="1602" y="1710"/>
      <point x="1602" y="1445" type="curve" smooth="yes"/>
      <point x="1602" y="1445" type="line" smooth="yes"/>
      <point x="1602" y="1304"/>
      <point x="1643" y="1206"/>
      <point x="1694" y="1143" type="curve"/>
      <point x="2031" y="1143" type="line"/>
      <point x="1977" y="1211"/>
      <point x="1939" y="1313"/>
      <point x="1939" y="1421" type="curve" smooth="yes"/>
      <point x="1939" y="1424" type="line"/>
      <point x="1939" y="1470" type="line" smooth="yes"/>
      <point x="1939" y="1577"/>
      <point x="1983" y="1621"/>
      <point x="2091" y="1621" type="curve" smooth="yes"/>
      <point x="2180" y="1621"/>
      <point x="2219" y="1588"/>
      <point x="2219" y="1529" type="curve" smooth="yes"/>
      <point x="2219" y="1529" type="line" smooth="yes"/>
      <point x="2219" y="1470"/>
      <point x="2188" y="1438"/>
      <point x="2100" y="1438" type="curve" smooth="yes"/>
      <point x="2015" y="1438"/>
      <point x="1975" y="1456"/>
      <point x="1934" y="1471" type="curve"/>
      <point x="1931" y="1471" type="line"/>
      <point x="1931" y="1419" type="line"/>
      <point x="1946" y="1419" type="line"/>
      <point x="2034" y="1241" type="line"/>
      <point x="2082" y="1227"/>
      <point x="2145" y="1218"/>
      <point x="2219" y="1218" type="curve" smooth="yes"/>
      <point x="2448" y="1218"/>
      <point x="2552" y="1320"/>
      <point x="2552" y="1529" type="curve" smooth="yes"/>
      <point x="2552" y="1529" type="line" smooth="yes"/>
      <point x="2552" y="1744"/>
      <point x="2422" y="1869"/>
    </contour>
    <component base="Ja_dummy.tm"/>
  </outline>
</glyph>
<glyph name="JaMatraUu_SimpleUu.tm" format="2">
  <advance width="4162"/>
  <note>
JaMatraUu.tm
</note>
  <outline>
    <contour>
      <point x="2294" y="1135" type="line"/>
      <point x="2007" y="1135" type="line"/>
      <point x="2007" y="841" type="line"/>
      <point x="2294" y="841" type="line"/>
    </contour>
    <contour>
      <point x="1852" y="1172" type="curve" smooth="yes"/>
      <point x="1563" y="1172"/>
      <point x="1443" y="1035"/>
      <point x="1413" y="817" type="curve"/>
      <point x="1404" y="817" type="line"/>
      <point x="1365" y="1019"/>
      <point x="1224" y="1179"/>
      <point x="824" y="1179" type="curve" smooth="yes"/>
      <point x="350" y="1179"/>
      <point x="100" y="966"/>
      <point x="100" y="607" type="curve" smooth="yes"/>
      <point x="100" y="590" type="line" smooth="yes"/>
      <point x="100" y="352"/>
      <point x="198" y="183"/>
      <point x="418" y="114" type="curve"/>
      <point x="844" y="128" type="line"/>
      <point x="1025" y="201"/>
      <point x="1092" y="338"/>
      <point x="1092" y="484" type="curve" smooth="yes"/>
      <point x="1092" y="484" type="line" smooth="yes"/>
      <point x="1092" y="679"/>
      <point x="992" y="796"/>
      <point x="767" y="796" type="curve" smooth="yes"/>
      <point x="575" y="796"/>
      <point x="463" y="703"/>
      <point x="453" y="576" type="curve"/>
      <point x="433" y="576" type="line"/>
      <point x="450" y="479" type="line"/>
      <point x="473" y="509"/>
      <point x="529" y="533"/>
      <point x="603" y="533" type="curve" smooth="yes"/>
      <point x="696" y="533"/>
      <point x="735" y="500"/>
      <point x="735" y="440" type="curve" smooth="yes"/>
      <point x="735" y="440" type="line" smooth="yes"/>
      <point x="735" y="387"/>
      <point x="700" y="347"/>
      <point x="612" y="347" type="curve" smooth="yes"/>
      <point x="504" y="347"/>
      <point x="459" y="396"/>
      <point x="459" y="479" type="curve" smooth="yes"/>
      <point x="459" y="576" type="line"/>
      <point x="441" y="576" type="line"/>
      <point x="439" y="767"/>
      <point x="563" y="891"/>
      <point x="847" y="891" type="curve" smooth="yes"/>
      <point x="1134" y="891"/>
      <point x="1238" y="773"/>
      <point x="1238" y="549" type="curve" smooth="yes"/>
      <point x="1238" y="417" type="line"/>
      <point x="1599" y="417" type="line"/>
      <point x="1599" y="662" type="line" smooth="yes"/>
      <point x="1599" y="824"/>
      <point x="1681" y="882"/>
      <point x="1794" y="882" type="curve" smooth="yes"/>
      <point x="1923" y="882"/>
      <point x="1972" y="801"/>
      <point x="1972" y="672" type="curve" smooth="yes"/>
      <point x="1972" y="672" type="line" smooth="yes"/>
      <point x="1972" y="479"/>
      <point x="1891" y="378"/>
      <point x="1636" y="368" type="curve" smooth="yes"/>
      <point x="835" y="336" type="line"/>
      <point x="383" y="218" type="line"/>
      <point x="230" y="171"/>
      <point x="147" y="67"/>
      <point x="147" y="-121" type="curve" smooth="yes"/>
      <point x="147" y="-121" type="line" smooth="yes"/>
      <point x="147" y="-417"/>
      <point x="368" y="-563"/>
      <point x="711" y="-563" type="curve" smooth="yes"/>
      <point x="1014" y="-563"/>
      <point x="1152" y="-474"/>
      <point x="1359" y="-304" type="curve" smooth="yes"/>
      <point x="1495" y="-192" type="line" smooth="yes"/>
      <point x="1625" y="-85"/>
      <point x="1706" y="-26"/>
      <point x="1824" y="-26" type="curve" smooth="yes"/>
      <point x="1938" y="-26"/>
      <point x="1975" y="-72"/>
      <point x="1975" y="-141" type="curve" smooth="yes"/>
      <point x="1975" y="-141" type="line" smooth="yes"/>
      <point x="1975" y="-222"/>
      <point x="1926" y="-266"/>
      <point x="1773" y="-266" type="curve" smooth="yes"/>
      <point x="1692" y="-266"/>
      <point x="1627" y="-260"/>
      <point x="1551" y="-252" type="curve"/>
      <point x="1636" y="-547" type="line"/>
      <point x="1713" y="-558"/>
      <point x="1789" y="-563"/>
      <point x="1864" y="-563" type="curve" smooth="yes"/>
      <point x="2197" y="-563"/>
      <point x="2341" y="-419"/>
      <point x="2341" y="-141" type="curve" smooth="yes"/>
      <point x="2341" y="-141" type="line" smooth="yes"/>
      <point x="2341" y="79"/>
      <point x="2238" y="220"/>
      <point x="1977" y="259" type="curve"/>
      <point x="1840" y="268" type="line"/>
      <point x="1629" y="268"/>
      <point x="1521" y="224"/>
      <point x="1336" y="79" type="curve" smooth="yes"/>
      <point x="1071" y="-128" type="line" smooth="yes"/>
      <point x="956" y="-218"/>
      <point x="869" y="-271"/>
      <point x="723" y="-271" type="curve" smooth="yes"/>
      <point x="574" y="-271"/>
      <point x="510" y="-209"/>
      <point x="511" y="-113" type="curve" smooth="yes"/>
      <point x="511" y="-113" type="line" smooth="yes"/>
      <point x="515" y="-5"/>
      <point x="580" y="48"/>
      <point x="768" y="55" type="curve" smooth="yes"/>
      <point x="1755" y="92" type="line" smooth="yes"/>
      <point x="2199" y="109"/>
      <point x="2333" y="298"/>
      <point x="2333" y="644" type="curve" smooth="yes"/>
      <point x="2333" y="644" type="line" smooth="yes"/>
      <point x="2333" y="781"/>
      <point x="2297" y="908"/>
      <point x="2220" y="994" type="curve"/>
      <point x="2220" y="1030" type="line"/>
      <point x="2144" y="1123"/>
      <point x="2030" y="1172"/>
    </contour>
    <component base="MatraUuDflt_Simple.tm" xOffset="2084"/>
  </outline>
</glyph>
<glyph name="KaBeak_Nonexporting" format="2">
  <advance width="379"/>
  <outline>
    <contour>
      <point x="0" y="848" type="line"/>
      <point x="379" y="848" type="line"/>
      <point x="342" y="1137" type="line"/>
      <point x="0" y="1137" type="line"/>
    </contour>
  </outline>
</glyph>
<glyph name="KaComponent_Nonexporting" format="2">
  <advance width="1397"/>
  <outline>
    <contour>
      <point x="1112" y="722" type="line"/>
      <point x="576" y="722" type="line"/>
      <point x="283" y="708" type="line"/>
      <point x="70" y="649" type="line"/>
      <point x="57" y="593"/>
      <point x="50" y="528"/>
      <point x="50" y="461" type="curve" smooth="yes"/>
      <point x="50" y="151"/>
      <point x="229" y="-26"/>
      <point x="682" y="-26" type="curve" smooth="yes"/>
      <point x="1126" y="-26"/>
      <point x="1272" y="123"/>
      <point x="1272" y="442" type="curve" smooth="yes"/>
      <point x="1272" y="595" type="line"/>
      <point x="1272" y="628" type="line"/>
      <point x="1272" y="1012" type="line"/>
      <point x="924" y="1012" type="line"/>
      <point x="924" y="628" type="line"/>
      <point x="917" y="595" type="line"/>
      <point x="917" y="429" type="line" smooth="yes"/>
      <point x="917" y="326"/>
      <point x="849" y="268"/>
      <point x="673" y="268" type="curve" smooth="yes"/>
      <point x="488" y="268"/>
      <point x="409" y="324"/>
      <point x="409" y="422" type="curve" smooth="yes"/>
      <point x="409" y="431"/>
      <point x="409" y="444"/>
      <point x="411" y="454" type="curve"/>
      <point x="448" y="454" type="line"/>
      <point x="1112" y="454" type="line"/>
    </contour>
    <contour>
      <point x="1397" y="1137" type="line"/>
      <point x="278" y="1137" type="line"/>
      <point x="278" y="609" type="line"/>
      <point x="618" y="598" type="line"/>
      <point x="644" y="873" type="line"/>
      <point x="1111" y="873" type="line"/>
      <point x="1133" y="848" type="line"/>
      <point x="1397" y="848" type="line"/>
    </contour>
  </outline>
</glyph>
<glyph name="KaMatraI.tm" format="2">
  <advance width="2086"/>
  <note>
KaMatraI.tm
</note>
  <outline>
    <contour>
      <point x="1158" y="454" type="line"/>
      <point x="1447" y="454" type="line" smooth="yes"/>
      <point x="1545" y="454"/>
      <point x="1588" y="426"/>
      <point x="1588" y="363" type="curve"/>
      <point x="1588" y="363" type="line" smooth="yes"/>
      <point x="1588" y="303"/>
      <point x="1552" y="268"/>
      <point x="1442" y="268" type="curve" smooth="yes"/>
      <point x="1364" y="268"/>
      <point x="1310" y="275"/>
      <point x="1243" y="290" type="curve"/>
      <point x="1239" y="268" type="line"/>
      <point x="1308" y="-16" type="line"/>
      <point x="1375" y="-25"/>
      <point x="1470" y="-26"/>
      <point x="1533" y="-26" type="curve" smooth="yes"/>
      <point x="1823" y="-26"/>
      <point x="1961" y="97"/>
      <point x="1961" y="357" type="curve"/>
      <point x="1961" y="357" type="line" smooth="yes"/>
      <point x="1961" y="609"/>
      <point x="1830" y="732"/>
      <point x="1475" y="732" type="curve" smooth="yes"/>
      <point x="1158" y="732" type="line"/>
    </contour>
    <contour>
      <point x="1464" y="1790" type="curve" smooth="yes"/>
      <point x="1111" y="1790"/>
      <point x="912" y="1616"/>
      <point x="912" y="1318" type="curve" smooth="yes"/>
      <point x="912" y="1318" type="line" smooth="yes"/>
      <point x="912" y="1251"/>
      <point x="927" y="1173"/>
      <point x="950" y="1123" type="curve"/>
      <point x="1302" y="1123" type="line"/>
      <point x="1288" y="1163"/>
      <point x="1278" y="1223"/>
      <point x="1278" y="1283" type="curve" smooth="yes"/>
      <point x="1278" y="1283" type="line" smooth="yes"/>
      <point x="1278" y="1421"/>
      <point x="1342" y="1490"/>
      <point x="1464" y="1490" type="curve" smooth="yes"/>
      <point x="1606" y="1490"/>
      <point x="1652" y="1410"/>
      <point x="1652" y="1214" type="curve" smooth="yes"/>
      <point x="1652" y="769" type="line"/>
      <point x="2016" y="769" type="line"/>
      <point x="2016" y="1192" type="line" smooth="yes"/>
      <point x="2016" y="1609"/>
      <point x="1865" y="1790"/>
    </contour>
    <component base="KaComponent_Nonexporting" xOffset="30"/>
    <component base="KaBeak_Nonexporting" xOffset="1187"/>
  </outline>
</glyph>
<glyph name="KaMatraU.tm" format="2">
  <advance width="2660"/>
  <note>
KaMatraU.tm
</note>
  <outline>
    <contour>
      <point x="1787" y="454" type="line"/>
      <point x="1974" y="454" type="line" smooth="yes"/>
      <point x="2148" y="454"/>
      <point x="2223" y="377"/>
      <point x="2223" y="204" type="curve"/>
      <point x="2223" y="204" type="line" smooth="yes"/>
      <point x="2223" y="-93"/>
      <point x="2004" y="-257"/>
      <point x="1450" y="-257" type="curve" smooth="yes"/>
      <point x="1445" y="-257" type="line" smooth="yes"/>
      <point x="763" y="-257"/>
      <point x="492" y="-23"/>
      <point x="492" y="486" type="curve"/>
      <point x="492" y="736"/>
      <point x="543" y="929"/>
      <point x="662" y="1137" type="curve"/>
      <point x="265" y="1137" type="line"/>
      <point x="175" y="991"/>
      <point x="110" y="753"/>
      <point x="110" y="482" type="curve" smooth="yes"/>
      <point x="110" y="-232"/>
      <point x="529" y="-570"/>
      <point x="1445" y="-570" type="curve" smooth="yes"/>
      <point x="1452" y="-570" type="line" smooth="yes"/>
      <point x="2233" y="-570"/>
      <point x="2600" y="-297"/>
      <point x="2600" y="211" type="curve" smooth="yes"/>
      <point x="2600" y="211" type="line"/>
      <point x="2600" y="561"/>
      <point x="2440" y="732"/>
      <point x="2002" y="732" type="curve" smooth="yes"/>
      <point x="1787" y="732" type="line"/>
    </contour>
    <component base="KaComponent_Nonexporting" xOffset="701"/>
    <component base="KaBeak_Nonexporting" xOffset="2006"/>
  </outline>
</glyph>
<glyph name="LaMatraIi.tm" format="2">
  <advance width="2504"/>
  <note>
LaMatraIi.tm
</note>
  <outline>
    <contour>
      <point x="1842" y="1393" type="line"/>
      <point x="1842" y="1578"/>
      <point x="1946" y="1676"/>
      <point x="2113" y="1684" type="curve"/>
      <point x="2113" y="1670" type="line"/>
      <point x="2144" y="1677"/>
      <point x="2185" y="1681"/>
      <point x="2225" y="1681" type="curve" smooth="yes"/>
      <point x="2340" y="1681"/>
      <point x="2380" y="1637"/>
      <point x="2380" y="1565" type="curve" smooth="yes"/>
      <point x="2380" y="1565" type="line" smooth="yes"/>
      <point x="2380" y="1500"/>
      <point x="2352" y="1464"/>
      <point x="2294" y="1464" type="curve" smooth="yes"/>
      <point x="2224" y="1464"/>
      <point x="2194" y="1505"/>
      <point x="2194" y="1580" type="curve" smooth="yes"/>
      <point x="2194" y="1580" type="line" smooth="yes"/>
      <point x="2194" y="1621"/>
      <point x="2201" y="1651"/>
      <point x="2211" y="1683" type="curve"/>
      <point x="2113" y="1695" type="line"/>
      <point x="2113" y="1675" type="line"/>
      <point x="2023" y="1663"/>
      <point x="1940" y="1610"/>
      <point x="1938" y="1484" type="curve" smooth="yes"/>
      <point x="1938" y="1484" type="line" smooth="yes"/>
      <point x="1938" y="1334"/>
      <point x="2048" y="1227"/>
      <point x="2297" y="1227" type="curve" smooth="yes"/>
      <point x="2554" y="1227"/>
      <point x="2688" y="1348"/>
      <point x="2688" y="1568" type="curve" smooth="yes"/>
      <point x="2688" y="1568" type="line" smooth="yes"/>
      <point x="2688" y="1799"/>
      <point x="2502" y="1938"/>
      <point x="2141" y="1938" type="curve" smooth="yes"/>
      <point x="1710" y="1938"/>
      <point x="1490" y="1739"/>
      <point x="1490" y="1393" type="curve" smooth="yes"/>
      <point x="1490" y="1393" type="line"/>
      <point x="1490" y="1198"/>
      <point x="1568" y="1009"/>
      <point x="1678" y="866" type="curve"/>
      <point x="1702" y="870"/>
      <point x="1727" y="873"/>
      <point x="1755" y="873" type="curve" smooth="yes"/>
      <point x="1959" y="873"/>
      <point x="2022" y="774"/>
      <point x="2022" y="563" type="curve" smooth="yes"/>
      <point x="2022" y="556" type="line" smooth="yes"/>
      <point x="2022" y="368"/>
      <point x="1980" y="278"/>
      <point x="1843" y="278" type="curve" smooth="yes"/>
      <point x="1704" y="278"/>
      <point x="1655" y="354"/>
      <point x="1655" y="537" type="curve" smooth="yes"/>
      <point x="1655" y="544" type="line" smooth="yes"/>
      <point x="1655" y="964"/>
      <point x="1436" y="1172"/>
      <point x="892" y="1172" type="curve" smooth="yes"/>
      <point x="359" y="1172"/>
      <point x="108" y="912"/>
      <point x="108" y="507" type="curve" smooth="yes"/>
      <point x="108" y="495" type="line" smooth="yes"/>
      <point x="108" y="192"/>
      <point x="257" y="-26"/>
      <point x="637" y="-26" type="curve" smooth="yes"/>
      <point x="986" y="-26"/>
      <point x="1109" y="141"/>
      <point x="1109" y="377" type="curve" smooth="yes"/>
      <point x="1109" y="377" type="line" smooth="yes"/>
      <point x="1109" y="598"/>
      <point x="998" y="716"/>
      <point x="782" y="716" type="curve" smooth="yes"/>
      <point x="591" y="716"/>
      <point x="491" y="627"/>
      <point x="470" y="512" type="curve"/>
      <point x="457" y="512" type="line"/>
      <point x="461" y="391" type="line"/>
      <point x="484" y="419"/>
      <point x="541" y="445"/>
      <point x="616" y="445" type="curve" smooth="yes"/>
      <point x="710" y="445"/>
      <point x="750" y="412"/>
      <point x="750" y="350" type="curve" smooth="yes"/>
      <point x="750" y="350" type="line" smooth="yes"/>
      <point x="750" y="296"/>
      <point x="713" y="255"/>
      <point x="625" y="255" type="curve" smooth="yes"/>
      <point x="516" y="255"/>
      <point x="472" y="304"/>
      <point x="472" y="389" type="curve"/>
      <point x="472" y="512" type="line"/>
      <point x="460" y="512" type="line"/>
      <point x="460" y="514"/>
      <point x="460" y="514"/>
      <point x="460" y="516" type="curve"/>
      <point x="470" y="743"/>
      <point x="596" y="866"/>
      <point x="890" y="866" type="curve" smooth="yes"/>
      <point x="1165" y="866"/>
      <point x="1280" y="764"/>
      <point x="1280" y="517" type="curve" smooth="yes"/>
      <point x="1280" y="512" type="line" smooth="yes"/>
      <point x="1280" y="153"/>
      <point x="1440" y="-26"/>
      <point x="1843" y="-26" type="curve" smooth="yes"/>
      <point x="2258" y="-26"/>
      <point x="2404" y="169"/>
      <point x="2404" y="560" type="curve" smooth="yes"/>
      <point x="2404" y="568" type="line" smooth="yes"/>
      <point x="2404" y="943"/>
      <point x="2276" y="1162"/>
      <point x="1853" y="1162" type="curve" smooth="yes"/>
      <point x="1767" y="1162"/>
      <point x="1704" y="1155"/>
      <point x="1637" y="1140" type="curve"/>
      <point x="2016" y="1038" type="line"/>
      <point x="1912" y="1124"/>
      <point x="1842" y="1244"/>
      <point x="1842" y="1393" type="curve" smooth="yes"/>
    </contour>
  </outline>
</glyph>
<glyph name="LaMatraIi_SimpleIi.tm" format="2">
  <advance width="2504"/>
  <note>
LaMatraIi.tm
</note>
  <outline>
    <contour>
      <point x="892" y="1172" type="curve" smooth="yes"/>
      <point x="359" y="1172"/>
      <point x="108" y="912"/>
      <point x="108" y="507" type="curve" smooth="yes"/>
      <point x="108" y="495" type="line" smooth="yes"/>
      <point x="108" y="192"/>
      <point x="257" y="-26"/>
      <point x="637" y="-26" type="curve" smooth="yes"/>
      <point x="986" y="-26"/>
      <point x="1109" y="141"/>
      <point x="1109" y="377" type="curve" smooth="yes"/>
      <point x="1109" y="377" type="line" smooth="yes"/>
      <point x="1109" y="598"/>
      <point x="998" y="716"/>
      <point x="782" y="716" type="curve" smooth="yes"/>
      <point x="591" y="716"/>
      <point x="491" y="627"/>
      <point x="470" y="512" type="curve"/>
      <point x="457" y="512" type="line"/>
      <point x="461" y="391" type="line"/>
      <point x="484" y="419"/>
      <point x="541" y="445"/>
      <point x="616" y="445" type="curve" smooth="yes"/>
      <point x="710" y="445"/>
      <point x="750" y="412"/>
      <point x="750" y="350" type="curve" smooth="yes"/>
      <point x="750" y="350" type="line" smooth="yes"/>
      <point x="750" y="296"/>
      <point x="713" y="255"/>
      <point x="625" y="255" type="curve" smooth="yes"/>
      <point x="516" y="255"/>
      <point x="472" y="304"/>
      <point x="472" y="389" type="curve"/>
      <point x="472" y="512" type="line"/>
      <point x="460" y="512" type="line"/>
      <point x="460" y="514"/>
      <point x="460" y="514"/>
      <point x="460" y="516" type="curve"/>
      <point x="470" y="743"/>
      <point x="596" y="866"/>
      <point x="890" y="866" type="curve" smooth="yes"/>
      <point x="1165" y="866"/>
      <point x="1280" y="764"/>
      <point x="1280" y="517" type="curve" smooth="yes"/>
      <point x="1280" y="512" type="line" smooth="yes"/>
      <point x="1280" y="153"/>
      <point x="1440" y="-26"/>
      <point x="1843" y="-26" type="curve" smooth="yes"/>
      <point x="2258" y="-26"/>
      <point x="2404" y="169"/>
      <point x="2404" y="560" type="curve" smooth="yes"/>
      <point x="2404" y="568" type="line" smooth="yes"/>
      <point x="2404" y="943"/>
      <point x="2276" y="1162"/>
      <point x="1853" y="1162" type="curve" smooth="yes"/>
      <point x="1778" y="1162"/>
      <point x="1723" y="1155"/>
      <point x="1664" y="1140" type="curve"/>
      <point x="1988" y="1046" type="line"/>
      <point x="1988" y="1419" type="line"/>
      <point x="1988" y="1424" type="line"/>
      <point x="1988" y="1470" type="line" smooth="yes"/>
      <point x="1988" y="1577"/>
      <point x="2032" y="1621"/>
      <point x="2139" y="1621" type="curve" smooth="yes"/>
      <point x="2229" y="1621"/>
      <point x="2268" y="1588"/>
      <point x="2268" y="1529" type="curve" smooth="yes"/>
      <point x="2268" y="1529" type="line" smooth="yes"/>
      <point x="2268" y="1470"/>
      <point x="2236" y="1438"/>
      <point x="2148" y="1438" type="curve" smooth="yes"/>
      <point x="2064" y="1438"/>
      <point x="2023" y="1456"/>
      <point x="1983" y="1471" type="curve"/>
      <point x="1979" y="1471" type="line"/>
      <point x="1979" y="1419" type="line"/>
      <point x="1995" y="1419" type="line"/>
      <point x="2083" y="1241" type="line"/>
      <point x="2131" y="1227"/>
      <point x="2194" y="1218"/>
      <point x="2268" y="1218" type="curve" smooth="yes"/>
      <point x="2497" y="1218"/>
      <point x="2601" y="1320"/>
      <point x="2601" y="1529" type="curve" smooth="yes"/>
      <point x="2601" y="1529" type="line" smooth="yes"/>
      <point x="2601" y="1744"/>
      <point x="2470" y="1869"/>
      <point x="2154" y="1869" type="curve" smooth="yes"/>
      <point x="1777" y="1869"/>
      <point x="1652" y="1711"/>
      <point x="1652" y="1441" type="curve" smooth="yes"/>
      <point x="1652" y="866" type="line"/>
      <point x="1684" y="870"/>
      <point x="1718" y="873"/>
      <point x="1755" y="873" type="curve" smooth="yes"/>
      <point x="1959" y="873"/>
      <point x="2022" y="774"/>
      <point x="2022" y="563" type="curve" smooth="yes"/>
      <point x="2022" y="556" type="line" smooth="yes"/>
      <point x="2022" y="368"/>
      <point x="1980" y="278"/>
      <point x="1843" y="278" type="curve" smooth="yes"/>
      <point x="1704" y="278"/>
      <point x="1655" y="354"/>
      <point x="1655" y="537" type="curve" smooth="yes"/>
      <point x="1655" y="544" type="line" smooth="yes"/>
      <point x="1655" y="964"/>
      <point x="1436" y="1172"/>
    </contour>
  </outline>
</glyph>
<glyph name="LlaMatraU_Simple.tm" format="2">
  <advance width="3847"/>
  <note>
LlaMatraU.tm
</note>
  <outline>
    <contour>
      <point x="3393" y="716" type="curve" smooth="yes"/>
      <point x="3201" y="716"/>
      <point x="3095" y="621"/>
      <point x="3072" y="488" type="curve"/>
      <point x="3018" y="488" type="line"/>
      <point x="3018" y="312" type="line"/>
      <point x="3043" y="312" type="line"/>
      <point x="3071" y="370"/>
      <point x="3134" y="410"/>
      <point x="3224" y="410" type="curve" smooth="yes"/>
      <point x="3342" y="410"/>
      <point x="3391" y="343"/>
      <point x="3391" y="206" type="curve"/>
      <point x="3391" y="206" type="line" smooth="yes"/>
      <point x="3391" y="-172"/>
      <point x="3060" y="-370"/>
      <point x="2148" y="-370" type="curve" smooth="yes"/>
      <point x="2063" y="-370" type="line" smooth="yes"/>
      <point x="952" y="-370"/>
      <point x="526" y="-107"/>
      <point x="526" y="540" type="curve"/>
      <point x="526" y="1137" type="line"/>
      <point x="142" y="1137" type="line"/>
      <point x="142" y="537" type="line"/>
      <point x="142" y="-299"/>
      <point x="728" y="-679"/>
      <point x="2074" y="-679" type="curve" smooth="yes"/>
      <point x="2142" y="-679" type="line" smooth="yes"/>
      <point x="3301" y="-679"/>
      <point x="3773" y="-378"/>
      <point x="3773" y="224" type="curve" smooth="yes"/>
      <point x="3773" y="224" type="line" smooth="yes"/>
      <point x="3773" y="546"/>
      <point x="3655" y="716"/>
    </contour>
    <contour>
      <point x="2687" y="1052" type="line"/>
      <point x="2687" y="0" type="line"/>
      <point x="3064" y="0" type="line"/>
      <point x="3064" y="1052" type="line"/>
    </contour>
    <contour>
      <point x="1536" y="1172" type="curve" smooth="yes"/>
      <point x="1028" y="1172"/>
      <point x="788" y="912"/>
      <point x="788" y="507" type="curve" smooth="yes"/>
      <point x="788" y="495" type="line" smooth="yes"/>
      <point x="788" y="192"/>
      <point x="937" y="-26"/>
      <point x="1317" y="-26" type="curve" smooth="yes"/>
      <point x="1666" y="-26"/>
      <point x="1789" y="141"/>
      <point x="1789" y="377" type="curve" smooth="yes"/>
      <point x="1789" y="377" type="line" smooth="yes"/>
      <point x="1789" y="598"/>
      <point x="1678" y="716"/>
      <point x="1462" y="716" type="curve" smooth="yes"/>
      <point x="1271" y="716"/>
      <point x="1171" y="627"/>
      <point x="1150" y="512" type="curve"/>
      <point x="1137" y="512" type="line"/>
      <point x="1141" y="391" type="line"/>
      <point x="1164" y="419"/>
      <point x="1221" y="445"/>
      <point x="1296" y="445" type="curve" smooth="yes"/>
      <point x="1390" y="445"/>
      <point x="1430" y="412"/>
      <point x="1430" y="350" type="curve" smooth="yes"/>
      <point x="1430" y="350" type="line" smooth="yes"/>
      <point x="1430" y="296"/>
      <point x="1393" y="255"/>
      <point x="1305" y="255" type="curve" smooth="yes"/>
      <point x="1196" y="255"/>
      <point x="1152" y="304"/>
      <point x="1152" y="389" type="curve"/>
      <point x="1152" y="512" type="line"/>
      <point x="1140" y="512" type="line"/>
      <point x="1140" y="514"/>
      <point x="1140" y="514"/>
      <point x="1140" y="516" type="curve"/>
      <point x="1150" y="743"/>
      <point x="1276" y="866"/>
      <point x="1569" y="866" type="curve" smooth="yes"/>
      <point x="1880" y="866"/>
      <point x="1996" y="729"/>
      <point x="1996" y="424" type="curve" smooth="yes"/>
      <point x="1996" y="0" type="line"/>
      <point x="2373" y="0" type="line"/>
      <point x="2373" y="845" type="line"/>
      <point x="3137" y="845" type="line"/>
      <point x="3137" y="1137" type="line"/>
      <point x="2117" y="1137" type="line"/>
      <point x="2117" y="871" type="line"/>
      <point x="2108" y="871" type="line"/>
      <point x="2046" y="1054"/>
      <point x="1879" y="1172"/>
    </contour>
    <component base="RaBeak_Nonexporting" xOffset="2961"/>
  </outline>
</glyph>
<glyph name="LlaMatraUu.tm" format="2">
  <advance width="4280"/>
  <note>
LlaMatraUu.tm
</note>
  <outline>
    <contour>
      <point x="1964" y="1172" type="curve" smooth="yes"/>
      <point x="1456" y="1172"/>
      <point x="1216" y="912"/>
      <point x="1216" y="507" type="curve" smooth="yes"/>
      <point x="1216" y="495" type="line" smooth="yes"/>
      <point x="1216" y="192"/>
      <point x="1365" y="-26"/>
      <point x="1745" y="-26" type="curve" smooth="yes"/>
      <point x="2094" y="-26"/>
      <point x="2217" y="141"/>
      <point x="2217" y="377" type="curve" smooth="yes"/>
      <point x="2217" y="377" type="line" smooth="yes"/>
      <point x="2217" y="598"/>
      <point x="2106" y="716"/>
      <point x="1890" y="716" type="curve" smooth="yes"/>
      <point x="1699" y="716"/>
      <point x="1599" y="627"/>
      <point x="1578" y="512" type="curve"/>
      <point x="1565" y="512" type="line"/>
      <point x="1569" y="391" type="line"/>
      <point x="1592" y="419"/>
      <point x="1649" y="445"/>
      <point x="1724" y="445" type="curve" smooth="yes"/>
      <point x="1818" y="445"/>
      <point x="1858" y="412"/>
      <point x="1858" y="350" type="curve" smooth="yes"/>
      <point x="1858" y="350" type="line" smooth="yes"/>
      <point x="1858" y="296"/>
      <point x="1821" y="255"/>
      <point x="1733" y="255" type="curve" smooth="yes"/>
      <point x="1624" y="255"/>
      <point x="1580" y="304"/>
      <point x="1580" y="389" type="curve"/>
      <point x="1580" y="512" type="line"/>
      <point x="1568" y="512" type="line"/>
      <point x="1568" y="514"/>
      <point x="1568" y="514"/>
      <point x="1568" y="516" type="curve"/>
      <point x="1578" y="743"/>
      <point x="1704" y="866"/>
      <point x="1997" y="866" type="curve" smooth="yes"/>
      <point x="2308" y="866"/>
      <point x="2424" y="729"/>
      <point x="2424" y="424" type="curve" smooth="yes"/>
      <point x="2424" y="0" type="line"/>
      <point x="2801" y="0" type="line"/>
      <point x="2801" y="845" type="line"/>
      <point x="3564" y="845" type="line"/>
      <point x="3564" y="1137" type="line"/>
      <point x="2545" y="1137" type="line"/>
      <point x="2545" y="871" type="line"/>
      <point x="2538" y="871" type="line"/>
      <point x="2476" y="1054"/>
      <point x="2308" y="1172"/>
    </contour>
    <contour>
      <point x="3115" y="1054" type="line"/>
      <point x="3115" y="0" type="line"/>
      <point x="3492" y="0" type="line"/>
      <point x="3492" y="1054" type="line"/>
    </contour>
    <contour>
      <point x="3826" y="716" type="curve" smooth="yes"/>
      <point x="3632" y="716"/>
      <point x="3525" y="621"/>
      <point x="3502" y="488" type="curve"/>
      <point x="3448" y="488" type="line"/>
      <point x="3448" y="312" type="line"/>
      <point x="3472" y="312" type="line"/>
      <point x="3500" y="370"/>
      <point x="3566" y="410"/>
      <point x="3657" y="410" type="curve" smooth="yes"/>
      <point x="3775" y="410"/>
      <point x="3824" y="343"/>
      <point x="3824" y="206" type="curve" smooth="yes"/>
      <point x="3824" y="206" type="line" smooth="yes"/>
      <point x="3824" y="-176"/>
      <point x="3407" y="-389"/>
      <point x="2341" y="-389" type="curve" smooth="yes"/>
      <point x="2281" y="-389" type="line" smooth="yes"/>
      <point x="987" y="-389"/>
      <point x="482" y="-130"/>
      <point x="469" y="567" type="curve"/>
      <point x="469" y="567" type="line"/>
      <point x="469" y="584" type="line"/>
      <point x="469" y="785"/>
      <point x="520" y="876"/>
      <point x="636" y="876" type="curve" smooth="yes"/>
      <point x="721" y="876"/>
      <point x="760" y="829"/>
      <point x="760" y="743" type="curve" smooth="yes"/>
      <point x="760" y="743" type="line" smooth="yes"/>
      <point x="760" y="648"/>
      <point x="719" y="600"/>
      <point x="606" y="600" type="curve" smooth="yes"/>
      <point x="538" y="600"/>
      <point x="476" y="620"/>
      <point x="453" y="637" type="curve"/>
      <point x="445" y="637" type="line"/>
      <point x="445" y="567" type="line"/>
      <point x="478" y="567" type="line"/>
      <point x="573" y="354" type="line"/>
      <point x="610" y="342"/>
      <point x="666" y="335"/>
      <point x="726" y="335" type="curve" smooth="yes"/>
      <point x="1002" y="335"/>
      <point x="1126" y="487"/>
      <point x="1126" y="736" type="curve" smooth="yes"/>
      <point x="1126" y="736" type="line" smooth="yes"/>
      <point x="1126" y="996"/>
      <point x="988" y="1172"/>
      <point x="656" y="1172" type="curve" smooth="yes"/>
      <point x="279" y="1172"/>
      <point x="100" y="966"/>
      <point x="100" y="535" type="curve" smooth="yes"/>
      <point x="100" y="503" type="line" smooth="yes"/>
      <point x="100" y="-303"/>
      <point x="760" y="-704"/>
      <point x="2286" y="-704" type="curve" smooth="yes"/>
      <point x="2337" y="-704" type="line" smooth="yes"/>
      <point x="3643" y="-704"/>
      <point x="4206" y="-378"/>
      <point x="4206" y="224" type="curve" smooth="yes"/>
      <point x="4206" y="224" type="line" smooth="yes"/>
      <point x="4206" y="546"/>
      <point x="4088" y="716"/>
    </contour>
    <component base="RaBeak_Nonexporting" xOffset="3389"/>
  </outline>
</glyph>
<glyph name="LllaMatraU.tm" format="2">
  <advance width="2853"/>
  <note>
LllaMatraU.tm
</note>
  <anchor x="1860" y="1218" name="top"/>
  <outline>
    <contour>
      <point x="257" y="1137" type="line"/>
      <point x="178" y="964"/>
      <point x="116" y="722"/>
      <point x="116" y="412" type="curve" smooth="yes"/>
      <point x="116" y="-336"/>
      <point x="515" y="-702"/>
      <point x="1338" y="-702" type="curve" smooth="yes"/>
      <point x="1716" y="-702"/>
      <point x="1986" y="-605"/>
      <point x="2190" y="-482" type="curve" smooth="yes"/>
      <point x="2208" y="-472" type="line" smooth="yes"/>
      <point x="2259" y="-442"/>
      <point x="2296" y="-426"/>
      <point x="2345" y="-426" type="curve" smooth="yes"/>
      <point x="2432" y="-426" type="line"/>
      <point x="2479" y="-134" type="line"/>
      <point x="2154" y="-134" type="line" smooth="yes"/>
      <point x="2032" y="-134"/>
      <point x="1995" y="-92"/>
      <point x="1995" y="30" type="curve"/>
      <point x="1995" y="118" type="line"/>
      <point x="1620" y="118" type="line"/>
      <point x="1620" y="12" type="line" smooth="yes"/>
      <point x="1620" y="-88"/>
      <point x="1696" y="-225"/>
      <point x="1918" y="-259" type="curve"/>
      <point x="1918" y="-262" type="line"/>
      <point x="1893" y="-268"/>
      <point x="1858" y="-280"/>
      <point x="1828" y="-292" type="curve" smooth="yes"/>
      <point x="1816" y="-297" type="line" smooth="yes"/>
      <point x="1710" y="-342"/>
      <point x="1565" y="-389"/>
      <point x="1338" y="-389" type="curve" smooth="yes"/>
      <point x="752" y="-389"/>
      <point x="498" y="-128"/>
      <point x="498" y="415" type="curve" smooth="yes"/>
      <point x="498" y="700"/>
      <point x="554" y="919"/>
      <point x="651" y="1137" type="curve"/>
    </contour>
    <component base="Ma.tm" xOffset="739"/>
  </outline>
</glyph>
<glyph name="MaMatraI_Fly.tm" format="2">
  <advance width="2114"/>
  <note>
MaMatraI.tm
</note>
  <anchor x="1121" y="1218" name="top"/>
  <outline>
    <contour>
      <point x="1946" y="1646" type="line"/>
      <point x="1436" y="1646" type="line" smooth="yes"/>
      <point x="1204" y="1646"/>
      <point x="1091" y="1575"/>
      <point x="1091" y="1415" type="curve" smooth="yes"/>
      <point x="1091" y="1317"/>
      <point x="1126" y="1229"/>
      <point x="1212" y="1105" type="curve"/>
      <point x="1584" y="1105" type="line"/>
      <point x="1523" y="1183"/>
      <point x="1493" y="1236"/>
      <point x="1493" y="1281" type="curve" smooth="yes"/>
      <point x="1493" y="1327"/>
      <point x="1520" y="1345"/>
      <point x="1581" y="1345" type="curve" smooth="yes"/>
      <point x="1990" y="1345" type="line"/>
    </contour>
    <component base="Ma.tm"/>
  </outline>
</glyph>
<glyph name="MaMatraU_Simple.tm" format="2">
  <advance width="2880"/>
  <note>
MaMatraU.tm
</note>
  <anchor x="1887" y="1218" name="top"/>
  <outline>
    <contour>
      <point x="142" y="1137" type="line"/>
      <point x="142" y="396" type="line" smooth="yes"/>
      <point x="142" y="-266"/>
      <point x="455" y="-614"/>
      <point x="1137" y="-614" type="curve" smooth="yes"/>
      <point x="1144" y="-614" type="line" smooth="yes"/>
      <point x="1695" y="-614"/>
      <point x="1986" y="-377"/>
      <point x="2019" y="33" type="curve"/>
      <point x="2026" y="113" type="line"/>
      <point x="1646" y="121" type="line"/>
      <point x="1639" y="48" type="line"/>
      <point x="1613" y="-166"/>
      <point x="1471" y="-301"/>
      <point x="1142" y="-301" type="curve" smooth="yes"/>
      <point x="1137" y="-301" type="line" smooth="yes"/>
      <point x="697" y="-301"/>
      <point x="524" y="-57"/>
      <point x="524" y="399" type="curve" smooth="yes"/>
      <point x="524" y="1137" type="line"/>
    </contour>
    <component base="Ma.tm" xOffset="766"/>
  </outline>
</glyph>
<glyph name="NgaMatraUu_SimpleUu.tm" format="2">
  <advance width="3160"/>
  <note>
NgaMatraUu.tm
</note>
  <anchor x="1499" y="1218" name="top"/>
  <outline>
    <contour>
      <point x="2142" y="319" type="line"/>
      <point x="2142" y="-341" type="line"/>
      <point x="2516" y="-341" type="line"/>
      <point x="2516" y="319" type="line"/>
    </contour>
    <contour>
      <point x="2819" y="380" type="curve" smooth="yes"/>
      <point x="2643" y="380"/>
      <point x="2548" y="278"/>
      <point x="2527" y="137" type="curve"/>
      <point x="2472" y="137" type="line"/>
      <point x="2472" y="-32" type="line"/>
      <point x="2495" y="-32" type="line"/>
      <point x="2520" y="26"/>
      <point x="2575" y="67"/>
      <point x="2654" y="67" type="curve" smooth="yes"/>
      <point x="2758" y="67"/>
      <point x="2800" y="-4"/>
      <point x="2800" y="-143" type="curve" smooth="yes"/>
      <point x="2800" y="-148" type="line" smooth="yes"/>
      <point x="2800" y="-405"/>
      <point x="2671" y="-533"/>
      <point x="2363" y="-533" type="curve" smooth="yes"/>
      <point x="2054" y="-533"/>
      <point x="1920" y="-400"/>
      <point x="1920" y="-130" type="curve" smooth="yes"/>
      <point x="1920" y="-77" type="line"/>
      <point x="1552" y="-99" type="line"/>
      <point x="1552" y="-128" type="line" smooth="yes"/>
      <point x="1552" y="-584"/>
      <point x="1812" y="-843"/>
      <point x="2363" y="-843" type="curve" smooth="yes"/>
      <point x="2925" y="-843"/>
      <point x="3175" y="-604"/>
      <point x="3175" y="-139" type="curve" smooth="yes"/>
      <point x="3175" y="-128" type="line" smooth="yes"/>
      <point x="3175" y="204"/>
      <point x="3067" y="380"/>
    </contour>
    <component base="Nga.tm"/>
  </outline>
</glyph>
<glyph name="NnaMatraAa_Simple.tm" format="2">
  <advance width="4968"/>
  <outline>
    <contour>
      <point x="3022" y="1170" type="curve" smooth="yes"/>
      <point x="2681" y="1170"/>
      <point x="2444" y="1105"/>
      <point x="2309" y="1026" type="curve"/>
      <point x="2481" y="806" type="line"/>
      <point x="2624" y="850"/>
      <point x="2813" y="884"/>
      <point x="3022" y="884" type="curve" smooth="yes"/>
      <point x="3219" y="884"/>
      <point x="3443" y="852"/>
      <point x="3545" y="806" type="curve"/>
      <point x="3557" y="803" type="line"/>
      <point x="3686" y="766"/>
      <point x="3735" y="658"/>
      <point x="3735" y="512" type="curve" smooth="yes"/>
      <point x="3735" y="502" type="line" smooth="yes"/>
      <point x="3735" y="359"/>
      <point x="3702" y="275"/>
      <point x="3600" y="275" type="curve" smooth="yes"/>
      <point x="3497" y="275"/>
      <point x="3459" y="359"/>
      <point x="3459" y="502" type="curve" smooth="yes"/>
      <point x="3459" y="514" type="line" smooth="yes"/>
      <point x="3459" y="658"/>
      <point x="3510" y="766"/>
      <point x="3642" y="803" type="curve"/>
      <point x="3508" y="996" type="line"/>
      <point x="3204" y="949"/>
      <point x="3082" y="729"/>
      <point x="3082" y="489" type="curve" smooth="yes"/>
      <point x="3082" y="479" type="line" smooth="yes"/>
      <point x="3082" y="183"/>
      <point x="3233" y="-26"/>
      <point x="3603" y="-26" type="curve" smooth="yes"/>
      <point x="3974" y="-26"/>
      <point x="4108" y="183"/>
      <point x="4108" y="479" type="curve" smooth="yes"/>
      <point x="4108" y="489" type="line" smooth="yes"/>
      <point x="4108" y="729"/>
      <point x="3994" y="908"/>
      <point x="3747" y="1019" type="curve"/>
      <point x="3744" y="1021" type="line"/>
      <point x="3602" y="1104"/>
      <point x="3387" y="1170"/>
    </contour>
    <contour>
      <point x="4202" y="1172" type="curve" smooth="yes"/>
      <point x="3901" y="1172"/>
      <point x="3675" y="1130"/>
      <point x="3519" y="1072" type="curve"/>
      <point x="3672" y="843" type="line"/>
      <point x="3824" y="884"/>
      <point x="3961" y="910"/>
      <point x="4182" y="910" type="curve" smooth="yes"/>
      <point x="4421" y="910"/>
      <point x="4509" y="859"/>
      <point x="4509" y="760" type="curve" smooth="yes"/>
      <point x="4509" y="760" type="line" smooth="yes"/>
      <point x="4509" y="662"/>
      <point x="4447" y="611"/>
      <point x="4301" y="604" type="curve" smooth="yes"/>
      <point x="4213" y="600" type="line"/>
      <point x="4213" y="320" type="line"/>
      <point x="4282" y="317" type="line" smooth="yes"/>
      <point x="4452" y="310"/>
      <point x="4500" y="253"/>
      <point x="4500" y="136" type="curve"/>
      <point x="4500" y="136" type="line"/>
      <point x="4500" y="-220"/>
      <point x="3847" y="-391"/>
      <point x="2740" y="-391" type="curve" smooth="yes"/>
      <point x="2629" y="-391" type="line" smooth="yes"/>
      <point x="1090" y="-391"/>
      <point x="524" y="-106"/>
      <point x="524" y="553" type="curve"/>
      <point x="524" y="1137" type="line"/>
      <point x="142" y="1137" type="line"/>
      <point x="142" y="549" type="line"/>
      <point x="142" y="-315"/>
      <point x="882" y="-704"/>
      <point x="2629" y="-704" type="curve" smooth="yes"/>
      <point x="2742" y="-704" type="line" smooth="yes"/>
      <point x="4141" y="-704"/>
      <point x="4882" y="-436"/>
      <point x="4882" y="141" type="curve" smooth="yes"/>
      <point x="4882" y="141" type="line"/>
      <point x="4882" y="326"/>
      <point x="4801" y="452"/>
      <point x="4581" y="463" type="curve"/>
      <point x="4581" y="472" type="line"/>
      <point x="4788" y="496"/>
      <point x="4857" y="612"/>
      <point x="4857" y="788" type="curve" smooth="yes"/>
      <point x="4857" y="788" type="line"/>
      <point x="4857" y="1042"/>
      <point x="4673" y="1172"/>
    </contour>
    <contour>
      <point x="1806" y="1177" type="curve" smooth="yes"/>
      <point x="1117" y="1177"/>
      <point x="782" y="913"/>
      <point x="782" y="503" type="curve" smooth="yes"/>
      <point x="782" y="495" type="line" smooth="yes"/>
      <point x="782" y="192"/>
      <point x="931" y="-26"/>
      <point x="1311" y="-26" type="curve" smooth="yes"/>
      <point x="1660" y="-26"/>
      <point x="1783" y="141"/>
      <point x="1783" y="377" type="curve" smooth="yes"/>
      <point x="1783" y="377" type="line" smooth="yes"/>
      <point x="1783" y="598"/>
      <point x="1672" y="716"/>
      <point x="1456" y="716" type="curve" smooth="yes"/>
      <point x="1265" y="716"/>
      <point x="1165" y="627"/>
      <point x="1144" y="512" type="curve"/>
      <point x="1131" y="512" type="line"/>
      <point x="1135" y="391" type="line"/>
      <point x="1158" y="419"/>
      <point x="1215" y="445"/>
      <point x="1290" y="445" type="curve" smooth="yes"/>
      <point x="1384" y="445"/>
      <point x="1424" y="412"/>
      <point x="1424" y="350" type="curve" smooth="yes"/>
      <point x="1424" y="350" type="line" smooth="yes"/>
      <point x="1424" y="296"/>
      <point x="1387" y="255"/>
      <point x="1299" y="255" type="curve" smooth="yes"/>
      <point x="1190" y="255"/>
      <point x="1146" y="304"/>
      <point x="1146" y="389" type="curve"/>
      <point x="1146" y="512" type="line"/>
      <point x="1134" y="512" type="line"/>
      <point x="1134" y="512" type="line"/>
      <point x="1151" y="752"/>
      <point x="1365" y="882"/>
      <point x="1822" y="882" type="curve" smooth="yes"/>
      <point x="2089" y="882"/>
      <point x="2268" y="850"/>
      <point x="2376" y="806" type="curve"/>
      <point x="2388" y="803" type="line"/>
      <point x="2515" y="766"/>
      <point x="2566" y="658"/>
      <point x="2566" y="512" type="curve" smooth="yes"/>
      <point x="2566" y="502" type="line" smooth="yes"/>
      <point x="2566" y="359"/>
      <point x="2532" y="275"/>
      <point x="2430" y="275" type="curve" smooth="yes"/>
      <point x="2328" y="275"/>
      <point x="2288" y="359"/>
      <point x="2288" y="502" type="curve" smooth="yes"/>
      <point x="2288" y="514" type="line" smooth="yes"/>
      <point x="2288" y="658"/>
      <point x="2339" y="766"/>
      <point x="2471" y="803" type="curve"/>
      <point x="2339" y="996" type="line"/>
      <point x="2034" y="949"/>
      <point x="1913" y="729"/>
      <point x="1913" y="489" type="curve" smooth="yes"/>
      <point x="1913" y="479" type="line" smooth="yes"/>
      <point x="1913" y="183"/>
      <point x="2062" y="-26"/>
      <point x="2434" y="-26" type="curve" smooth="yes"/>
      <point x="2803" y="-26"/>
      <point x="2939" y="183"/>
      <point x="2939" y="479" type="curve" smooth="yes"/>
      <point x="2939" y="489" type="line" smooth="yes"/>
      <point x="2939" y="729"/>
      <point x="2824" y="908"/>
      <point x="2576" y="1019" type="curve"/>
      <point x="2573" y="1021" type="line"/>
      <point x="2423" y="1107"/>
      <point x="2193" y="1177"/>
    </contour>
  </outline>
</glyph>
<glyph name="NnaMatraI.tm" format="2">
  <advance width="4879"/>
  <note>
NnaMatraI.tm
</note>
  <outline>
    <contour>
      <point x="2356" y="1170" type="curve" smooth="yes"/>
      <point x="2013" y="1170"/>
      <point x="1775" y="1105"/>
      <point x="1638" y="1026" type="curve"/>
      <point x="1811" y="806" type="line"/>
      <point x="1954" y="850"/>
      <point x="2146" y="884"/>
      <point x="2356" y="884" type="curve" smooth="yes"/>
      <point x="2556" y="884"/>
      <point x="2782" y="852"/>
      <point x="2885" y="806" type="curve"/>
      <point x="2897" y="803" type="line"/>
      <point x="3025" y="766"/>
      <point x="3075" y="658"/>
      <point x="3075" y="512" type="curve" smooth="yes"/>
      <point x="3075" y="502" type="line" smooth="yes"/>
      <point x="3075" y="359"/>
      <point x="3041" y="275"/>
      <point x="2939" y="275" type="curve" smooth="yes"/>
      <point x="2837" y="275"/>
      <point x="2798" y="359"/>
      <point x="2798" y="502" type="curve" smooth="yes"/>
      <point x="2798" y="514" type="line" smooth="yes"/>
      <point x="2798" y="658"/>
      <point x="2849" y="766"/>
      <point x="2981" y="803" type="curve"/>
      <point x="2848" y="996" type="line"/>
      <point x="2543" y="949"/>
      <point x="2422" y="729"/>
      <point x="2422" y="489" type="curve" smooth="yes"/>
      <point x="2422" y="479" type="line" smooth="yes"/>
      <point x="2422" y="183"/>
      <point x="2573" y="-26"/>
      <point x="2943" y="-26" type="curve" smooth="yes"/>
      <point x="3314" y="-26"/>
      <point x="3448" y="183"/>
      <point x="3448" y="479" type="curve" smooth="yes"/>
      <point x="3448" y="489" type="line" smooth="yes"/>
      <point x="3448" y="729"/>
      <point x="3333" y="908"/>
      <point x="3087" y="1019" type="curve"/>
      <point x="3083" y="1021" type="line"/>
      <point x="2940" y="1104"/>
      <point x="2723" y="1170"/>
    </contour>
    <contour>
      <point x="3650" y="869" type="line"/>
      <point x="3650" y="0" type="line"/>
      <point x="4025" y="0" type="line"/>
      <point x="4025" y="869" type="line"/>
    </contour>
    <contour>
      <point x="3887" y="1137" type="line"/>
      <point x="3407" y="1137" type="line"/>
      <point x="3302" y="1137"/>
      <point x="3205" y="1137"/>
      <point x="3098" y="1137" type="curve"/>
      <point x="2997" y="845" type="line"/>
      <point x="3113" y="845"/>
      <point x="3224" y="845"/>
      <point x="3340" y="845" type="curve"/>
      <point x="3887" y="845" type="line"/>
    </contour>
    <contour>
      <point x="1126" y="1177" type="curve" smooth="yes"/>
      <point x="437" y="1177"/>
      <point x="102" y="913"/>
      <point x="102" y="503" type="curve" smooth="yes"/>
      <point x="102" y="495" type="line" smooth="yes"/>
      <point x="102" y="192"/>
      <point x="251" y="-26"/>
      <point x="631" y="-26" type="curve" smooth="yes"/>
      <point x="980" y="-26"/>
      <point x="1103" y="141"/>
      <point x="1103" y="377" type="curve" smooth="yes"/>
      <point x="1103" y="377" type="line" smooth="yes"/>
      <point x="1103" y="598"/>
      <point x="992" y="716"/>
      <point x="776" y="716" type="curve" smooth="yes"/>
      <point x="585" y="716"/>
      <point x="485" y="627"/>
      <point x="464" y="512" type="curve"/>
      <point x="451" y="512" type="line"/>
      <point x="455" y="391" type="line"/>
      <point x="478" y="419"/>
      <point x="535" y="445"/>
      <point x="610" y="445" type="curve" smooth="yes"/>
      <point x="704" y="445"/>
      <point x="744" y="412"/>
      <point x="744" y="350" type="curve" smooth="yes"/>
      <point x="744" y="350" type="line" smooth="yes"/>
      <point x="744" y="296"/>
      <point x="707" y="255"/>
      <point x="619" y="255" type="curve" smooth="yes"/>
      <point x="510" y="255"/>
      <point x="466" y="304"/>
      <point x="466" y="389" type="curve"/>
      <point x="466" y="512" type="line"/>
      <point x="454" y="512" type="line"/>
      <point x="454" y="512" type="line"/>
      <point x="471" y="752"/>
      <point x="685" y="882"/>
      <point x="1142" y="882" type="curve" smooth="yes"/>
      <point x="1413" y="882"/>
      <point x="1595" y="850"/>
      <point x="1705" y="806" type="curve"/>
      <point x="1718" y="803" type="line"/>
      <point x="1844" y="766"/>
      <point x="1895" y="658"/>
      <point x="1895" y="512" type="curve" smooth="yes"/>
      <point x="1895" y="502" type="line" smooth="yes"/>
      <point x="1895" y="359"/>
      <point x="1862" y="275"/>
      <point x="1760" y="275" type="curve" smooth="yes"/>
      <point x="1658" y="275"/>
      <point x="1617" y="359"/>
      <point x="1617" y="502" type="curve" smooth="yes"/>
      <point x="1617" y="514" type="line" smooth="yes"/>
      <point x="1617" y="658"/>
      <point x="1668" y="766"/>
      <point x="1800" y="803" type="curve"/>
      <point x="1668" y="996" type="line"/>
      <point x="1364" y="949"/>
      <point x="1242" y="729"/>
      <point x="1242" y="489" type="curve" smooth="yes"/>
      <point x="1242" y="479" type="line" smooth="yes"/>
      <point x="1242" y="183"/>
      <point x="1392" y="-26"/>
      <point x="1763" y="-26" type="curve" smooth="yes"/>
      <point x="2133" y="-26"/>
      <point x="2268" y="183"/>
      <point x="2268" y="479" type="curve" smooth="yes"/>
      <point x="2268" y="489" type="line" smooth="yes"/>
      <point x="2268" y="729"/>
      <point x="2154" y="908"/>
      <point x="1906" y="1019" type="curve"/>
      <point x="1902" y="1021" type="line"/>
      <point x="1750" y="1107"/>
      <point x="1518" y="1177"/>
    </contour>
    <component base="MatraIDflt.tm" xOffset="3636"/>
    <component base="RaBeak_Nonexporting" xOffset="3661"/>
  </outline>
</glyph>
<glyph name="NnaMatraU.tm" format="2">
  <advance width="4990"/>
  <note>
NnaMatraU.tm
</note>
  <outline>
    <contour>
      <point x="2346" y="1170" type="curve" smooth="yes"/>
      <point x="2003" y="1170"/>
      <point x="1765" y="1105"/>
      <point x="1628" y="1026" type="curve"/>
      <point x="1801" y="806" type="line"/>
      <point x="1944" y="850"/>
      <point x="2136" y="884"/>
      <point x="2346" y="884" type="curve" smooth="yes"/>
      <point x="2546" y="884"/>
      <point x="2772" y="852"/>
      <point x="2875" y="806" type="curve"/>
      <point x="2887" y="803" type="line"/>
      <point x="3015" y="766"/>
      <point x="3065" y="658"/>
      <point x="3065" y="512" type="curve" smooth="yes"/>
      <point x="3065" y="502" type="line" smooth="yes"/>
      <point x="3065" y="359"/>
      <point x="3031" y="275"/>
      <point x="2929" y="275" type="curve" smooth="yes"/>
      <point x="2827" y="275"/>
      <point x="2788" y="359"/>
      <point x="2788" y="502" type="curve" smooth="yes"/>
      <point x="2788" y="514" type="line" smooth="yes"/>
      <point x="2788" y="658"/>
      <point x="2839" y="766"/>
      <point x="2971" y="803" type="curve"/>
      <point x="2838" y="996" type="line"/>
      <point x="2533" y="949"/>
      <point x="2412" y="729"/>
      <point x="2412" y="489" type="curve" smooth="yes"/>
      <point x="2412" y="479" type="line" smooth="yes"/>
      <point x="2412" y="183"/>
      <point x="2563" y="-26"/>
      <point x="2933" y="-26" type="curve" smooth="yes"/>
      <point x="3304" y="-26"/>
      <point x="3438" y="183"/>
      <point x="3438" y="479" type="curve" smooth="yes"/>
      <point x="3438" y="489" type="line" smooth="yes"/>
      <point x="3438" y="729"/>
      <point x="3323" y="908"/>
      <point x="3077" y="1019" type="curve"/>
      <point x="3073" y="1021" type="line"/>
      <point x="2930" y="1104"/>
      <point x="2714" y="1170"/>
    </contour>
    <contour>
      <point x="3525" y="1172" type="curve" smooth="yes"/>
      <point x="3227" y="1172"/>
      <point x="3004" y="1130"/>
      <point x="2848" y="1072" type="curve"/>
      <point x="3001" y="843" type="line"/>
      <point x="3152" y="884"/>
      <point x="3287" y="910"/>
      <point x="3506" y="910" type="curve" smooth="yes"/>
      <point x="3749" y="910"/>
      <point x="3838" y="859"/>
      <point x="3838" y="760" type="curve" smooth="yes"/>
      <point x="3838" y="760" type="line" smooth="yes"/>
      <point x="3838" y="662"/>
      <point x="3777" y="611"/>
      <point x="3631" y="604" type="curve" smooth="yes"/>
      <point x="3543" y="600" type="line"/>
      <point x="3543" y="320" type="line"/>
      <point x="3611" y="317" type="line" smooth="yes"/>
      <point x="3782" y="309"/>
      <point x="3829" y="236"/>
      <point x="3829" y="83" type="curve"/>
      <point x="3829" y="83" type="line"/>
      <point x="3829" y="-22"/>
      <point x="3810" y="-140"/>
      <point x="3781" y="-219" type="curve"/>
      <point x="3776" y="-274" type="line"/>
      <point x="3616" y="-560"/>
      <point x="3043" y="-695"/>
      <point x="2244" y="-695" type="curve" smooth="yes"/>
      <point x="1429" y="-695"/>
      <point x="798" y="-544"/>
      <point x="688" y="-389" type="curve"/>
      <point x="4844" y="-389" type="line"/>
      <point x="4844" y="-114" type="line"/>
      <point x="82" y="-114" type="line"/>
      <point x="187" y="-645"/>
      <point x="826" y="-998"/>
      <point x="2246" y="-998" type="curve" smooth="yes"/>
      <point x="3314" y="-998"/>
      <point x="3986" y="-744"/>
      <point x="4156" y="-334" type="curve"/>
      <point x="4164" y="-228" type="line"/>
      <point x="4193" y="-131"/>
      <point x="4211" y="-33"/>
      <point x="4211" y="89" type="curve"/>
      <point x="4211" y="89" type="line" smooth="yes"/>
      <point x="4211" y="304"/>
      <point x="4130" y="451"/>
      <point x="3910" y="463" type="curve"/>
      <point x="3910" y="472" type="line"/>
      <point x="4118" y="496"/>
      <point x="4187" y="612"/>
      <point x="4187" y="788" type="curve" smooth="yes"/>
      <point x="4187" y="788" type="line"/>
      <point x="4187" y="1042"/>
      <point x="4002" y="1172"/>
    </contour>
    <contour>
      <point x="4469" y="1137" type="line"/>
      <point x="4469" y="-389" type="line"/>
      <point x="4844" y="-389" type="line"/>
      <point x="4844" y="1137" type="line"/>
    </contour>
    <contour>
      <point x="1126" y="1177" type="curve" smooth="yes"/>
      <point x="437" y="1177"/>
      <point x="102" y="913"/>
      <point x="102" y="503" type="curve" smooth="yes"/>
      <point x="102" y="495" type="line" smooth="yes"/>
      <point x="102" y="192"/>
      <point x="251" y="-26"/>
      <point x="631" y="-26" type="curve" smooth="yes"/>
      <point x="980" y="-26"/>
      <point x="1103" y="141"/>
      <point x="1103" y="377" type="curve" smooth="yes"/>
      <point x="1103" y="377" type="line" smooth="yes"/>
      <point x="1103" y="598"/>
      <point x="992" y="716"/>
      <point x="776" y="716" type="curve" smooth="yes"/>
      <point x="585" y="716"/>
      <point x="485" y="627"/>
      <point x="464" y="512" type="curve"/>
      <point x="451" y="512" type="line"/>
      <point x="455" y="391" type="line"/>
      <point x="478" y="419"/>
      <point x="535" y="445"/>
      <point x="610" y="445" type="curve" smooth="yes"/>
      <point x="704" y="445"/>
      <point x="744" y="412"/>
      <point x="744" y="350" type="curve" smooth="yes"/>
      <point x="744" y="350" type="line" smooth="yes"/>
      <point x="744" y="296"/>
      <point x="707" y="255"/>
      <point x="619" y="255" type="curve" smooth="yes"/>
      <point x="510" y="255"/>
      <point x="466" y="304"/>
      <point x="466" y="389" type="curve"/>
      <point x="466" y="512" type="line"/>
      <point x="454" y="512" type="line"/>
      <point x="454" y="512" type="line"/>
      <point x="471" y="752"/>
      <point x="685" y="882"/>
      <point x="1142" y="882" type="curve" smooth="yes"/>
      <point x="1413" y="882"/>
      <point x="1595" y="850"/>
      <point x="1705" y="806" type="curve"/>
      <point x="1718" y="803" type="line"/>
      <point x="1844" y="766"/>
      <point x="1895" y="658"/>
      <point x="1895" y="512" type="curve" smooth="yes"/>
      <point x="1895" y="502" type="line" smooth="yes"/>
      <point x="1895" y="359"/>
      <point x="1862" y="275"/>
      <point x="1760" y="275" type="curve" smooth="yes"/>
      <point x="1658" y="275"/>
      <point x="1617" y="359"/>
      <point x="1617" y="502" type="curve" smooth="yes"/>
      <point x="1617" y="514" type="line" smooth="yes"/>
      <point x="1617" y="658"/>
      <point x="1668" y="766"/>
      <point x="1800" y="803" type="curve"/>
      <point x="1668" y="996" type="line"/>
      <point x="1364" y="949"/>
      <point x="1242" y="729"/>
      <point x="1242" y="489" type="curve" smooth="yes"/>
      <point x="1242" y="479" type="line" smooth="yes"/>
      <point x="1242" y="183"/>
      <point x="1392" y="-26"/>
      <point x="1763" y="-26" type="curve" smooth="yes"/>
      <point x="2133" y="-26"/>
      <point x="2268" y="183"/>
      <point x="2268" y="479" type="curve" smooth="yes"/>
      <point x="2268" y="489" type="line" smooth="yes"/>
      <point x="2268" y="729"/>
      <point x="2154" y="908"/>
      <point x="1906" y="1019" type="curve"/>
      <point x="1902" y="1021" type="line"/>
      <point x="1750" y="1107"/>
      <point x="1518" y="1177"/>
    </contour>
  </outline>
</glyph>
<glyph name="NnaMatraU_Simple.tm" format="2">
  <advance width="4974"/>
  <note>
NnaMatraU.tm
</note>
  <outline>
    <contour>
      <point x="2341" y="1170" type="curve" smooth="yes"/>
      <point x="2000" y="1170"/>
      <point x="1764" y="1105"/>
      <point x="1628" y="1026" type="curve"/>
      <point x="1801" y="806" type="line"/>
      <point x="1943" y="850"/>
      <point x="2133" y="884"/>
      <point x="2341" y="884" type="curve" smooth="yes"/>
      <point x="2539" y="884"/>
      <point x="2763" y="852"/>
      <point x="2865" y="806" type="curve"/>
      <point x="2877" y="803" type="line"/>
      <point x="3005" y="766"/>
      <point x="3055" y="658"/>
      <point x="3055" y="512" type="curve" smooth="yes"/>
      <point x="3055" y="502" type="line" smooth="yes"/>
      <point x="3055" y="359"/>
      <point x="3021" y="275"/>
      <point x="2919" y="275" type="curve" smooth="yes"/>
      <point x="2817" y="275"/>
      <point x="2778" y="359"/>
      <point x="2778" y="502" type="curve" smooth="yes"/>
      <point x="2778" y="514" type="line" smooth="yes"/>
      <point x="2778" y="658"/>
      <point x="2829" y="766"/>
      <point x="2961" y="803" type="curve"/>
      <point x="2828" y="996" type="line"/>
      <point x="2523" y="949"/>
      <point x="2402" y="729"/>
      <point x="2402" y="489" type="curve" smooth="yes"/>
      <point x="2402" y="479" type="line" smooth="yes"/>
      <point x="2402" y="183"/>
      <point x="2553" y="-26"/>
      <point x="2923" y="-26" type="curve" smooth="yes"/>
      <point x="3294" y="-26"/>
      <point x="3428" y="183"/>
      <point x="3428" y="479" type="curve" smooth="yes"/>
      <point x="3428" y="489" type="line" smooth="yes"/>
      <point x="3428" y="729"/>
      <point x="3313" y="908"/>
      <point x="3067" y="1019" type="curve"/>
      <point x="3063" y="1021" type="line"/>
      <point x="2921" y="1104"/>
      <point x="2706" y="1170"/>
    </contour>
    <contour>
      <point x="3514" y="1172" type="curve" smooth="yes"/>
      <point x="3216" y="1172"/>
      <point x="2994" y="1130"/>
      <point x="2838" y="1072" type="curve"/>
      <point x="2991" y="843" type="line"/>
      <point x="3141" y="884"/>
      <point x="3276" y="910"/>
      <point x="3495" y="910" type="curve" smooth="yes"/>
      <point x="3739" y="910"/>
      <point x="3828" y="859"/>
      <point x="3828" y="760" type="curve" smooth="yes"/>
      <point x="3828" y="760" type="line" smooth="yes"/>
      <point x="3828" y="662"/>
      <point x="3767" y="611"/>
      <point x="3621" y="604" type="curve" smooth="yes"/>
      <point x="3533" y="600" type="line"/>
      <point x="3533" y="320" type="line"/>
      <point x="3601" y="317" type="line" smooth="yes"/>
      <point x="3768" y="310"/>
      <point x="3819" y="241"/>
      <point x="3819" y="111" type="curve" smooth="yes"/>
      <point x="3819" y="111" type="line" smooth="yes"/>
      <point x="3819" y="-58"/>
      <point x="3747" y="-139"/>
      <point x="3492" y="-139" type="curve" smooth="yes"/>
      <point x="14" y="-139" type="line"/>
      <point x="75" y="-444" type="line"/>
      <point x="4828" y="-444" type="line"/>
      <point x="4828" y="-139" type="line"/>
      <point x="4087" y="-139" type="line"/>
      <point x="4087" y="-127" type="line"/>
      <point x="4166" y="-77"/>
      <point x="4201" y="39"/>
      <point x="4201" y="150" type="curve" smooth="yes"/>
      <point x="4201" y="150" type="line" smooth="yes"/>
      <point x="4201" y="329"/>
      <point x="4119" y="452"/>
      <point x="3898" y="463" type="curve"/>
      <point x="3898" y="472" type="line"/>
      <point x="4108" y="496"/>
      <point x="4177" y="612"/>
      <point x="4177" y="788" type="curve" smooth="yes"/>
      <point x="4177" y="788" type="line"/>
      <point x="4177" y="1042"/>
      <point x="3991" y="1172"/>
    </contour>
    <contour>
      <point x="4453" y="1137" type="line"/>
      <point x="4453" y="-444" type="line"/>
      <point x="4828" y="-444" type="line"/>
      <point x="4828" y="1137" type="line"/>
    </contour>
    <contour>
      <point x="1121" y="1177" type="curve" smooth="yes"/>
      <point x="435" y="1177"/>
      <point x="102" y="913"/>
      <point x="102" y="503" type="curve" smooth="yes"/>
      <point x="102" y="495" type="line" smooth="yes"/>
      <point x="102" y="192"/>
      <point x="251" y="-26"/>
      <point x="631" y="-26" type="curve" smooth="yes"/>
      <point x="980" y="-26"/>
      <point x="1103" y="141"/>
      <point x="1103" y="377" type="curve" smooth="yes"/>
      <point x="1103" y="377" type="line" smooth="yes"/>
      <point x="1103" y="598"/>
      <point x="992" y="716"/>
      <point x="776" y="716" type="curve" smooth="yes"/>
      <point x="585" y="716"/>
      <point x="485" y="627"/>
      <point x="464" y="512" type="curve"/>
      <point x="451" y="512" type="line"/>
      <point x="455" y="391" type="line"/>
      <point x="478" y="419"/>
      <point x="535" y="445"/>
      <point x="610" y="445" type="curve" smooth="yes"/>
      <point x="704" y="445"/>
      <point x="744" y="412"/>
      <point x="744" y="350" type="curve" smooth="yes"/>
      <point x="744" y="350" type="line" smooth="yes"/>
      <point x="744" y="296"/>
      <point x="707" y="255"/>
      <point x="619" y="255" type="curve" smooth="yes"/>
      <point x="510" y="255"/>
      <point x="466" y="304"/>
      <point x="466" y="389" type="curve"/>
      <point x="466" y="512" type="line"/>
      <point x="454" y="512" type="line"/>
      <point x="454" y="512" type="line"/>
      <point x="471" y="752"/>
      <point x="683" y="882"/>
      <point x="1137" y="882" type="curve" smooth="yes"/>
      <point x="1406" y="882"/>
      <point x="1584" y="850"/>
      <point x="1695" y="806" type="curve"/>
      <point x="1708" y="803" type="line"/>
      <point x="1834" y="766"/>
      <point x="1885" y="658"/>
      <point x="1885" y="512" type="curve" smooth="yes"/>
      <point x="1885" y="502" type="line" smooth="yes"/>
      <point x="1885" y="359"/>
      <point x="1852" y="275"/>
      <point x="1750" y="275" type="curve" smooth="yes"/>
      <point x="1648" y="275"/>
      <point x="1607" y="359"/>
      <point x="1607" y="502" type="curve" smooth="yes"/>
      <point x="1607" y="514" type="line" smooth="yes"/>
      <point x="1607" y="658"/>
      <point x="1658" y="766"/>
      <point x="1790" y="803" type="curve"/>
      <point x="1658" y="996" type="line"/>
      <point x="1354" y="949"/>
      <point x="1232" y="729"/>
      <point x="1232" y="489" type="curve" smooth="yes"/>
      <point x="1232" y="479" type="line" smooth="yes"/>
      <point x="1232" y="183"/>
      <point x="1382" y="-26"/>
      <point x="1753" y="-26" type="curve" smooth="yes"/>
      <point x="2123" y="-26"/>
      <point x="2258" y="183"/>
      <point x="2258" y="479" type="curve" smooth="yes"/>
      <point x="2258" y="489" type="line" smooth="yes"/>
      <point x="2258" y="729"/>
      <point x="2144" y="908"/>
      <point x="1896" y="1019" type="curve"/>
      <point x="1892" y="1021" type="line"/>
      <point x="1739" y="1107"/>
      <point x="1510" y="1177"/>
    </contour>
  </outline>
</glyph>
<glyph name="NnnaMatraAa.tm" format="2">
  <advance width="3766"/>
  <outline>
    <contour>
      <point x="3009" y="1172" type="curve" smooth="yes"/>
      <point x="2716" y="1172"/>
      <point x="2499" y="1126"/>
      <point x="2346" y="1061" type="curve"/>
      <point x="2499" y="832" type="line"/>
      <point x="2646" y="880"/>
      <point x="2776" y="910"/>
      <point x="2989" y="910" type="curve" smooth="yes"/>
      <point x="3221" y="910"/>
      <point x="3307" y="859"/>
      <point x="3307" y="759" type="curve" smooth="yes"/>
      <point x="3307" y="759" type="line" smooth="yes"/>
      <point x="3307" y="658"/>
      <point x="3245" y="611"/>
      <point x="3099" y="604" type="curve" smooth="yes"/>
      <point x="3011" y="600" type="line"/>
      <point x="3011" y="320" type="line"/>
      <point x="3080" y="317" type="line" smooth="yes"/>
      <point x="3250" y="310"/>
      <point x="3298" y="250"/>
      <point x="3298" y="123" type="curve" smooth="yes"/>
      <point x="3298" y="123" type="line"/>
      <point x="3298" y="-208"/>
      <point x="2797" y="-368"/>
      <point x="2043" y="-368" type="curve" smooth="yes"/>
      <point x="2037" y="-368" type="line" smooth="yes"/>
      <point x="937" y="-368"/>
      <point x="492" y="-92"/>
      <point x="492" y="526" type="curve" smooth="yes"/>
      <point x="492" y="768"/>
      <point x="541" y="944"/>
      <point x="655" y="1137" type="curve"/>
      <point x="242" y="1137" type="line"/>
      <point x="161" y="1000"/>
      <point x="110" y="786"/>
      <point x="110" y="523" type="curve" smooth="yes"/>
      <point x="110" y="-301"/>
      <point x="726" y="-681"/>
      <point x="2037" y="-681" type="curve" smooth="yes"/>
      <point x="2044" y="-681" type="line" smooth="yes"/>
      <point x="3062" y="-681"/>
      <point x="3680" y="-420"/>
      <point x="3680" y="128" type="curve"/>
      <point x="3680" y="128" type="line"/>
      <point x="3680" y="319"/>
      <point x="3599" y="452"/>
      <point x="3379" y="463" type="curve"/>
      <point x="3379" y="472" type="line"/>
      <point x="3585" y="498"/>
      <point x="3655" y="614"/>
      <point x="3655" y="787" type="curve" smooth="yes"/>
      <point x="3655" y="787" type="line" smooth="yes"/>
      <point x="3655" y="1038"/>
      <point x="3473" y="1172"/>
    </contour>
    <contour>
      <point x="1764" y="1177" type="curve" smooth="yes"/>
      <point x="1082" y="1177"/>
      <point x="750" y="913"/>
      <point x="750" y="503" type="curve" smooth="yes"/>
      <point x="750" y="495" type="line" smooth="yes"/>
      <point x="750" y="192"/>
      <point x="899" y="-26"/>
      <point x="1279" y="-26" type="curve" smooth="yes"/>
      <point x="1628" y="-26"/>
      <point x="1751" y="141"/>
      <point x="1751" y="377" type="curve" smooth="yes"/>
      <point x="1751" y="377" type="line" smooth="yes"/>
      <point x="1751" y="598"/>
      <point x="1640" y="716"/>
      <point x="1424" y="716" type="curve" smooth="yes"/>
      <point x="1233" y="716"/>
      <point x="1133" y="627"/>
      <point x="1112" y="512" type="curve"/>
      <point x="1099" y="512" type="line"/>
      <point x="1103" y="391" type="line"/>
      <point x="1126" y="419"/>
      <point x="1183" y="445"/>
      <point x="1258" y="445" type="curve" smooth="yes"/>
      <point x="1352" y="445"/>
      <point x="1392" y="412"/>
      <point x="1392" y="350" type="curve" smooth="yes"/>
      <point x="1392" y="350" type="line" smooth="yes"/>
      <point x="1392" y="296"/>
      <point x="1355" y="255"/>
      <point x="1267" y="255" type="curve" smooth="yes"/>
      <point x="1158" y="255"/>
      <point x="1114" y="304"/>
      <point x="1114" y="389" type="curve"/>
      <point x="1114" y="512" type="line"/>
      <point x="1102" y="512" type="line"/>
      <point x="1102" y="512" type="line"/>
      <point x="1119" y="752"/>
      <point x="1330" y="882"/>
      <point x="1780" y="882" type="curve" smooth="yes"/>
      <point x="2050" y="882"/>
      <point x="2233" y="850"/>
      <point x="2343" y="806" type="curve"/>
      <point x="2355" y="803" type="line"/>
      <point x="2482" y="766"/>
      <point x="2533" y="658"/>
      <point x="2533" y="512" type="curve" smooth="yes"/>
      <point x="2533" y="502" type="line" smooth="yes"/>
      <point x="2533" y="359"/>
      <point x="2499" y="275"/>
      <point x="2397" y="275" type="curve" smooth="yes"/>
      <point x="2295" y="275"/>
      <point x="2255" y="359"/>
      <point x="2255" y="502" type="curve" smooth="yes"/>
      <point x="2255" y="514" type="line" smooth="yes"/>
      <point x="2255" y="658"/>
      <point x="2306" y="766"/>
      <point x="2438" y="803" type="curve"/>
      <point x="2306" y="996" type="line"/>
      <point x="2001" y="949"/>
      <point x="1880" y="729"/>
      <point x="1880" y="489" type="curve" smooth="yes"/>
      <point x="1880" y="479" type="line" smooth="yes"/>
      <point x="1880" y="183"/>
      <point x="2030" y="-26"/>
      <point x="2401" y="-26" type="curve" smooth="yes"/>
      <point x="2770" y="-26"/>
      <point x="2906" y="183"/>
      <point x="2906" y="479" type="curve" smooth="yes"/>
      <point x="2906" y="489" type="line" smooth="yes"/>
      <point x="2906" y="729"/>
      <point x="2792" y="908"/>
      <point x="2543" y="1019" type="curve"/>
      <point x="2540" y="1021" type="line"/>
      <point x="2388" y="1107"/>
      <point x="2156" y="1177"/>
    </contour>
  </outline>
</glyph>
<glyph name="NnnaMatraU_Simple.tm" format="2">
  <advance width="3805"/>
  <note>
NnnaMatraU.tm
</note>
  <outline>
    <contour>
      <point x="2361" y="1172" type="curve" smooth="yes"/>
      <point x="2069" y="1172"/>
      <point x="1852" y="1126"/>
      <point x="1699" y="1061" type="curve"/>
      <point x="1852" y="832" type="line"/>
      <point x="1999" y="880"/>
      <point x="2129" y="910"/>
      <point x="2342" y="910" type="curve" smooth="yes"/>
      <point x="2573" y="910"/>
      <point x="2659" y="859"/>
      <point x="2659" y="759" type="curve" smooth="yes"/>
      <point x="2659" y="759" type="line" smooth="yes"/>
      <point x="2659" y="658"/>
      <point x="2598" y="611"/>
      <point x="2452" y="604" type="curve" smooth="yes"/>
      <point x="2364" y="600" type="line"/>
      <point x="2364" y="320" type="line"/>
      <point x="2432" y="317" type="line" smooth="yes"/>
      <point x="2599" y="310"/>
      <point x="2650" y="241"/>
      <point x="2650" y="113" type="curve" smooth="yes"/>
      <point x="2650" y="111" type="line"/>
      <point x="2650" y="-58"/>
      <point x="2578" y="-139"/>
      <point x="2323" y="-139" type="curve" smooth="yes"/>
      <point x="14" y="-139" type="line"/>
      <point x="75" y="-444" type="line"/>
      <point x="3659" y="-444" type="line"/>
      <point x="3659" y="-139" type="line"/>
      <point x="2918" y="-139" type="line"/>
      <point x="2918" y="-127" type="line"/>
      <point x="2997" y="-77"/>
      <point x="3032" y="39"/>
      <point x="3032" y="150" type="curve"/>
      <point x="3032" y="151" type="line" smooth="yes"/>
      <point x="3032" y="329"/>
      <point x="2951" y="454"/>
      <point x="2731" y="463" type="curve"/>
      <point x="2731" y="472" type="line"/>
      <point x="2937" y="498"/>
      <point x="3008" y="614"/>
      <point x="3008" y="787" type="curve" smooth="yes"/>
      <point x="3008" y="787" type="line" smooth="yes"/>
      <point x="3008" y="1038"/>
      <point x="2826" y="1172"/>
    </contour>
    <contour>
      <point x="3284" y="1137" type="line"/>
      <point x="3284" y="-444" type="line"/>
      <point x="3659" y="-444" type="line"/>
      <point x="3659" y="1137" type="line"/>
    </contour>
    <contour>
      <point x="1111" y="1177" type="curve" smooth="yes"/>
      <point x="432" y="1177"/>
      <point x="102" y="913"/>
      <point x="102" y="503" type="curve" smooth="yes"/>
      <point x="102" y="495" type="line" smooth="yes"/>
      <point x="102" y="192"/>
      <point x="251" y="-26"/>
      <point x="631" y="-26" type="curve" smooth="yes"/>
      <point x="980" y="-26"/>
      <point x="1103" y="141"/>
      <point x="1103" y="377" type="curve" smooth="yes"/>
      <point x="1103" y="377" type="line" smooth="yes"/>
      <point x="1103" y="598"/>
      <point x="992" y="716"/>
      <point x="776" y="716" type="curve" smooth="yes"/>
      <point x="585" y="716"/>
      <point x="485" y="627"/>
      <point x="464" y="512" type="curve"/>
      <point x="451" y="512" type="line"/>
      <point x="455" y="391" type="line"/>
      <point x="478" y="419"/>
      <point x="535" y="445"/>
      <point x="610" y="445" type="curve" smooth="yes"/>
      <point x="704" y="445"/>
      <point x="744" y="412"/>
      <point x="744" y="350" type="curve" smooth="yes"/>
      <point x="744" y="350" type="line" smooth="yes"/>
      <point x="744" y="296"/>
      <point x="707" y="255"/>
      <point x="619" y="255" type="curve" smooth="yes"/>
      <point x="510" y="255"/>
      <point x="466" y="304"/>
      <point x="466" y="389" type="curve"/>
      <point x="466" y="512" type="line"/>
      <point x="454" y="512" type="line"/>
      <point x="454" y="512" type="line"/>
      <point x="471" y="752"/>
      <point x="680" y="882"/>
      <point x="1127" y="882" type="curve" smooth="yes"/>
      <point x="1401" y="882"/>
      <point x="1582" y="850"/>
      <point x="1695" y="806" type="curve"/>
      <point x="1708" y="803" type="line"/>
      <point x="1834" y="766"/>
      <point x="1885" y="658"/>
      <point x="1885" y="512" type="curve" smooth="yes"/>
      <point x="1885" y="502" type="line" smooth="yes"/>
      <point x="1885" y="359"/>
      <point x="1852" y="275"/>
      <point x="1750" y="275" type="curve" smooth="yes"/>
      <point x="1648" y="275"/>
      <point x="1607" y="359"/>
      <point x="1607" y="502" type="curve" smooth="yes"/>
      <point x="1607" y="514" type="line" smooth="yes"/>
      <point x="1607" y="658"/>
      <point x="1658" y="766"/>
      <point x="1790" y="803" type="curve"/>
      <point x="1658" y="996" type="line"/>
      <point x="1354" y="949"/>
      <point x="1232" y="729"/>
      <point x="1232" y="489" type="curve" smooth="yes"/>
      <point x="1232" y="479" type="line" smooth="yes"/>
      <point x="1232" y="183"/>
      <point x="1382" y="-26"/>
      <point x="1753" y="-26" type="curve" smooth="yes"/>
      <point x="2123" y="-26"/>
      <point x="2258" y="183"/>
      <point x="2258" y="479" type="curve" smooth="yes"/>
      <point x="2258" y="489" type="line" smooth="yes"/>
      <point x="2258" y="729"/>
      <point x="2144" y="908"/>
      <point x="1896" y="1019" type="curve"/>
      <point x="1892" y="1021" type="line"/>
      <point x="1737" y="1107"/>
      <point x="1505" y="1177"/>
    </contour>
  </outline>
</glyph>
<glyph name="PaMatraI.tm" format="2">
  <advance width="2611"/>
  <note>
PaMatraI.tm
</note>
  <outline>
    <contour>
      <point x="1422" y="1137" type="line"/>
      <point x="1422" y="306" type="line"/>
      <point x="769" y="306" type="line"/>
      <point x="769" y="0" type="line"/>
      <point x="1808" y="0" type="line"/>
      <point x="1808" y="1137" type="line"/>
    </contour>
    <contour>
      <point x="532" y="1137" type="line"/>
      <point x="146" y="1137" type="line"/>
      <point x="146" y="0" type="line"/>
      <point x="1132" y="0" type="line"/>
      <point x="1132" y="306" type="line"/>
      <point x="532" y="306" type="line"/>
    </contour>
    <contour>
      <point x="1629" y="1790" type="curve" smooth="yes"/>
      <point x="1113" y="1790"/>
      <point x="826" y="1565"/>
      <point x="826" y="1184" type="curve" smooth="yes"/>
      <point x="826" y="1184" type="line" smooth="yes"/>
      <point x="826" y="800"/>
      <point x="1081" y="627"/>
      <point x="1466" y="627" type="curve"/>
      <point x="1466" y="924" type="line"/>
      <point x="1292" y="931"/>
      <point x="1192" y="1014"/>
      <point x="1192" y="1184" type="curve" smooth="yes"/>
      <point x="1192" y="1184" type="line" smooth="yes"/>
      <point x="1192" y="1384"/>
      <point x="1362" y="1484"/>
      <point x="1629" y="1484" type="curve" smooth="yes"/>
      <point x="1964" y="1484"/>
      <point x="2090" y="1373"/>
      <point x="2090" y="1074" type="curve" smooth="yes"/>
      <point x="2090" y="0" type="line"/>
      <point x="2465" y="0" type="line"/>
      <point x="2465" y="1051" type="line" smooth="yes"/>
      <point x="2465" y="1565"/>
      <point x="2222" y="1790"/>
    </contour>
  </outline>
</glyph>
<glyph name="PaMatraUu.tm" format="2">
  <advance width="2463"/>
  <note>
PaMatraUu.tm
</note>
  <anchor x="977" y="1218" name="top"/>
  <outline>
    <contour>
      <point x="1433" y="183" type="line"/>
      <point x="1433" y="-283" type="line"/>
      <point x="1808" y="-283" type="line"/>
      <point x="1808" y="183" type="line"/>
    </contour>
    <contour>
      <point x="2143" y="380" type="curve" smooth="yes"/>
      <point x="1949" y="380"/>
      <point x="1843" y="275"/>
      <point x="1818" y="123" type="curve"/>
      <point x="1764" y="123" type="line"/>
      <point x="1764" y="-12" type="line"/>
      <point x="1788" y="-12" type="line"/>
      <point x="1820" y="51"/>
      <point x="1877" y="93"/>
      <point x="1960" y="93" type="curve" smooth="yes"/>
      <point x="2060" y="93"/>
      <point x="2103" y="21"/>
      <point x="2103" y="-108" type="curve" smooth="yes"/>
      <point x="2103" y="-115" type="line" smooth="yes"/>
      <point x="2103" y="-470"/>
      <point x="1806" y="-651"/>
      <point x="1186" y="-651" type="curve" smooth="yes"/>
      <point x="767" y="-651"/>
      <point x="396" y="-549"/>
      <point x="396" y="-444" type="curve" smooth="yes"/>
      <point x="396" y="-398"/>
      <point x="437" y="-380"/>
      <point x="526" y="-380" type="curve" smooth="yes"/>
      <point x="651" y="-380"/>
      <point x="836" y="-407"/>
      <point x="996" y="-452" type="curve"/>
      <point x="954" y="-146" type="line"/>
      <point x="852" y="-111"/>
      <point x="660" y="-83"/>
      <point x="512" y="-83" type="curve" smooth="yes"/>
      <point x="192" y="-83"/>
      <point x="23" y="-176"/>
      <point x="23" y="-401" type="curve" smooth="yes"/>
      <point x="23" y="-776"/>
      <point x="518" y="-964"/>
      <point x="1186" y="-964" type="curve" smooth="yes"/>
      <point x="2056" y="-964"/>
      <point x="2478" y="-656"/>
      <point x="2478" y="-97" type="curve" smooth="yes"/>
      <point x="2478" y="-87" type="line" smooth="yes"/>
      <point x="2478" y="215"/>
      <point x="2375" y="380"/>
    </contour>
    <component base="Pa.tm"/>
  </outline>
</glyph>
<glyph name="PulliDflt_Half.tm" format="2">
  <note>
PulliDflt.tm
</note>
  <anchor x="225" y="1220" name="_top"/>
  <outline>
    <contour>
      <point x="225" y="1260" type="curve" smooth="yes"/>
      <point x="382" y="1260"/>
      <point x="451" y="1332"/>
      <point x="451" y="1453" type="curve" smooth="yes"/>
      <point x="451" y="1453" type="line" smooth="yes"/>
      <point x="451" y="1573"/>
      <point x="378" y="1643"/>
      <point x="225" y="1643" type="curve" smooth="yes"/>
      <point x="72" y="1643"/>
      <point x="0" y="1573"/>
      <point x="0" y="1453" type="curve" smooth="yes"/>
      <point x="0" y="1453" type="line" smooth="yes"/>
      <point x="0" y="1332"/>
      <point x="69" y="1260"/>
    </contour>
  </outline>
</glyph>
<glyph name="RaMatraU.tm" format="2">
  <advance width="2680"/>
  <note>
RaMatraU.tm
</note>
  <outline>
    <contour>
      <point x="1524" y="1054" type="line"/>
      <point x="1524" y="0" type="line"/>
      <point x="1899" y="0" type="line"/>
      <point x="1899" y="1054" type="line"/>
    </contour>
    <contour>
      <point x="2228" y="716" type="curve" smooth="yes"/>
      <point x="2038" y="716"/>
      <point x="1932" y="621"/>
      <point x="1909" y="488" type="curve"/>
      <point x="1855" y="488" type="line"/>
      <point x="1855" y="312" type="line"/>
      <point x="1879" y="312" type="line"/>
      <point x="1906" y="370"/>
      <point x="1971" y="410"/>
      <point x="2059" y="410" type="curve" smooth="yes"/>
      <point x="2175" y="410"/>
      <point x="2224" y="343"/>
      <point x="2224" y="206" type="curve" smooth="yes"/>
      <point x="2224" y="206" type="line" smooth="yes"/>
      <point x="2224" y="-104"/>
      <point x="2008" y="-275"/>
      <point x="1455" y="-275" type="curve" smooth="yes"/>
      <point x="1450" y="-275" type="line" smooth="yes"/>
      <point x="769" y="-275"/>
      <point x="498" y="-37"/>
      <point x="498" y="500" type="curve" smooth="yes"/>
      <point x="498" y="752"/>
      <point x="538" y="926"/>
      <point x="626" y="1137" type="curve"/>
      <point x="235" y="1137" type="line"/>
      <point x="169" y="986"/>
      <point x="116" y="769"/>
      <point x="116" y="496" type="curve" smooth="yes"/>
      <point x="116" y="-246"/>
      <point x="536" y="-588"/>
      <point x="1450" y="-588" type="curve" smooth="yes"/>
      <point x="1457" y="-588" type="line" smooth="yes"/>
      <point x="2238" y="-588"/>
      <point x="2606" y="-304"/>
      <point x="2606" y="224" type="curve" smooth="yes"/>
      <point x="2606" y="224" type="line" smooth="yes"/>
      <point x="2606" y="546"/>
      <point x="2490" y="716"/>
    </contour>
    <contour>
      <point x="1950" y="1137" type="line"/>
      <point x="836" y="1137" type="line"/>
      <point x="836" y="0" type="line"/>
      <point x="1210" y="0" type="line"/>
      <point x="1210" y="845" type="line"/>
      <point x="1950" y="845" type="line"/>
    </contour>
    <component base="RaBeak_Nonexporting" xOffset="1796"/>
  </outline>
</glyph>
<glyph name="RaMatraU_Simple.tm" format="2">
  <advance width="2676"/>
  <note>
RaMatraU.tm
</note>
  <outline>
    <contour>
      <point x="1520" y="1054" type="line"/>
      <point x="1520" y="0" type="line"/>
      <point x="1895" y="0" type="line"/>
      <point x="1895" y="1054" type="line"/>
    </contour>
    <contour>
      <point x="2224" y="716" type="curve" smooth="yes"/>
      <point x="2034" y="716"/>
      <point x="1928" y="621"/>
      <point x="1905" y="488" type="curve"/>
      <point x="1851" y="488" type="line"/>
      <point x="1851" y="312" type="line"/>
      <point x="1875" y="312" type="line"/>
      <point x="1902" y="370"/>
      <point x="1967" y="410"/>
      <point x="2055" y="410" type="curve" smooth="yes"/>
      <point x="2171" y="410"/>
      <point x="2220" y="343"/>
      <point x="2220" y="206" type="curve" smooth="yes"/>
      <point x="2220" y="206" type="line" smooth="yes"/>
      <point x="2220" y="-104"/>
      <point x="2004" y="-275"/>
      <point x="1451" y="-275" type="curve" smooth="yes"/>
      <point x="1446" y="-275" type="line" smooth="yes"/>
      <point x="765" y="-275"/>
      <point x="494" y="-37"/>
      <point x="494" y="500" type="curve"/>
      <point x="494" y="1137" type="line"/>
      <point x="112" y="1137" type="line"/>
      <point x="112" y="496" type="line"/>
      <point x="112" y="-246"/>
      <point x="532" y="-588"/>
      <point x="1446" y="-588" type="curve" smooth="yes"/>
      <point x="1453" y="-588" type="line" smooth="yes"/>
      <point x="2234" y="-588"/>
      <point x="2602" y="-304"/>
      <point x="2602" y="224" type="curve" smooth="yes"/>
      <point x="2602" y="224" type="line" smooth="yes"/>
      <point x="2602" y="546"/>
      <point x="2486" y="716"/>
    </contour>
    <contour>
      <point x="1946" y="1137" type="line"/>
      <point x="832" y="1137" type="line"/>
      <point x="832" y="0" type="line"/>
      <point x="1206" y="0" type="line"/>
      <point x="1206" y="845" type="line"/>
      <point x="1946" y="845" type="line"/>
    </contour>
    <component base="RaBeak_Nonexporting" xOffset="1792"/>
  </outline>
</glyph>
<glyph name="RaMatraUu.tm" format="2">
  <advance width="3104"/>
  <note>
RaMatraUu.tm
</note>
  <outline>
    <contour>
      <point x="1947" y="1054" type="line"/>
      <point x="1947" y="0" type="line"/>
      <point x="2324" y="0" type="line"/>
      <point x="2324" y="1054" type="line"/>
    </contour>
    <contour>
      <point x="2653" y="716" type="curve" smooth="yes"/>
      <point x="2461" y="716"/>
      <point x="2356" y="621"/>
      <point x="2333" y="488" type="curve"/>
      <point x="2278" y="488" type="line"/>
      <point x="2278" y="312" type="line"/>
      <point x="2303" y="312" type="line"/>
      <point x="2331" y="370"/>
      <point x="2395" y="410"/>
      <point x="2484" y="410" type="curve" smooth="yes"/>
      <point x="2600" y="410"/>
      <point x="2648" y="343"/>
      <point x="2648" y="206" type="curve" smooth="yes"/>
      <point x="2648" y="206" type="line" smooth="yes"/>
      <point x="2648" y="-144"/>
      <point x="2392" y="-340"/>
      <point x="1734" y="-340" type="curve" smooth="yes"/>
      <point x="1694" y="-340" type="line" smooth="yes"/>
      <point x="821" y="-340"/>
      <point x="479" y="-95"/>
      <point x="470" y="567" type="curve"/>
      <point x="470" y="567" type="line"/>
      <point x="470" y="584" type="line"/>
      <point x="470" y="785"/>
      <point x="521" y="876"/>
      <point x="637" y="876" type="curve" smooth="yes"/>
      <point x="722" y="876"/>
      <point x="760" y="829"/>
      <point x="760" y="743" type="curve" smooth="yes"/>
      <point x="760" y="743" type="line" smooth="yes"/>
      <point x="760" y="648"/>
      <point x="720" y="600"/>
      <point x="607" y="600" type="curve" smooth="yes"/>
      <point x="539" y="600"/>
      <point x="477" y="620"/>
      <point x="454" y="637" type="curve"/>
      <point x="445" y="637" type="line"/>
      <point x="445" y="567" type="line"/>
      <point x="479" y="567" type="line"/>
      <point x="574" y="354" type="line"/>
      <point x="611" y="342"/>
      <point x="667" y="335"/>
      <point x="727" y="335" type="curve" smooth="yes"/>
      <point x="1003" y="335"/>
      <point x="1127" y="487"/>
      <point x="1127" y="736" type="curve" smooth="yes"/>
      <point x="1127" y="736" type="line" smooth="yes"/>
      <point x="1127" y="996"/>
      <point x="989" y="1172"/>
      <point x="657" y="1172" type="curve" smooth="yes"/>
      <point x="280" y="1172"/>
      <point x="100" y="966"/>
      <point x="100" y="535" type="curve" smooth="yes"/>
      <point x="100" y="503" type="line" smooth="yes"/>
      <point x="100" y="-271"/>
      <point x="610" y="-655"/>
      <point x="1699" y="-655" type="curve" smooth="yes"/>
      <point x="1731" y="-655" type="line" smooth="yes"/>
      <point x="2615" y="-655"/>
      <point x="3030" y="-347"/>
      <point x="3030" y="224" type="curve" smooth="yes"/>
      <point x="3030" y="224" type="line" smooth="yes"/>
      <point x="3030" y="546"/>
      <point x="2914" y="716"/>
    </contour>
    <contour>
      <point x="2375" y="1137" type="line"/>
      <point x="1256" y="1137" type="line"/>
      <point x="1256" y="0" type="line"/>
      <point x="1633" y="0" type="line"/>
      <point x="1633" y="845" type="line"/>
      <point x="2375" y="845" type="line"/>
    </contour>
    <component base="RaBeak_Nonexporting" xOffset="2221"/>
  </outline>
</glyph>
<glyph name="Ra_dummy.tm" format="2">
  <advance width="1447"/>
  <note>
Ra.tm
</note>
  <anchor x="689" y="1218" name="top"/>
  <outline>
    <contour>
      <point x="1233" y="1054" type="line"/>
      <point x="858" y="1054" type="line"/>
      <point x="858" y="-32" type="line"/>
      <point x="102" y="-146" type="line"/>
      <point x="102" y="-461" type="line"/>
      <point x="1233" y="-310" type="line"/>
    </contour>
    <contour>
      <point x="1112" y="1137" type="line"/>
      <point x="146" y="1137" type="line"/>
      <point x="146" y="0" type="line"/>
      <point x="521" y="0" type="line"/>
      <point x="521" y="845" type="line"/>
      <point x="1112" y="845" type="line"/>
    </contour>
    <component base="RaBeak_Nonexporting" xOffset="869"/>
  </outline>
</glyph>
<glyph name="RraMatraI_Fly.tm" format="2">
  <advance width="2093"/>
  <note>
RraMatraI.tm
</note>
  <anchor x="1037" y="1218" name="top"/>
  <outline>
    <contour>
      <point x="2081" y="1646" type="line"/>
      <point x="1571" y="1646" type="line" smooth="yes"/>
      <point x="1339" y="1646"/>
      <point x="1226" y="1575"/>
      <point x="1226" y="1415" type="curve" smooth="yes"/>
      <point x="1226" y="1324"/>
      <point x="1259" y="1242"/>
      <point x="1343" y="1123" type="curve"/>
      <point x="1708" y="1123" type="line"/>
      <point x="1654" y="1196"/>
      <point x="1628" y="1243"/>
      <point x="1628" y="1281" type="curve" smooth="yes"/>
      <point x="1628" y="1327"/>
      <point x="1655" y="1345"/>
      <point x="1716" y="1345" type="curve" smooth="yes"/>
      <point x="2125" y="1345" type="line"/>
    </contour>
    <component base="Rra.tm"/>
  </outline>
</glyph>
<glyph name="RraMatraIi.tm" format="2">
  <advance width="2093"/>
  <note>
RraMatraIi.tm
</note>
  <anchor x="1037" y="1218" name="top"/>
  <outline>
    <contour>
      <point x="1882" y="1938" type="curve" smooth="yes"/>
      <point x="1464" y="1938"/>
      <point x="1250" y="1758"/>
      <point x="1250" y="1444" type="curve" smooth="yes"/>
      <point x="1250" y="1444" type="line" smooth="yes"/>
      <point x="1250" y="1300"/>
      <point x="1293" y="1201"/>
      <point x="1341" y="1137" type="curve"/>
      <point x="1705" y="1127" type="line"/>
      <point x="1644" y="1194"/>
      <point x="1597" y="1301"/>
      <point x="1597" y="1417" type="curve" smooth="yes"/>
      <point x="1597" y="1417" type="line" smooth="yes"/>
      <point x="1597" y="1587"/>
      <point x="1696" y="1677"/>
      <point x="1854" y="1684" type="curve"/>
      <point x="1854" y="1670" type="line"/>
      <point x="1885" y="1677"/>
      <point x="1926" y="1681"/>
      <point x="1966" y="1681" type="curve" smooth="yes"/>
      <point x="2081" y="1681"/>
      <point x="2121" y="1637"/>
      <point x="2121" y="1565" type="curve" smooth="yes"/>
      <point x="2121" y="1565" type="line" smooth="yes"/>
      <point x="2121" y="1500"/>
      <point x="2093" y="1464"/>
      <point x="2035" y="1464" type="curve" smooth="yes"/>
      <point x="1965" y="1464"/>
      <point x="1935" y="1505"/>
      <point x="1935" y="1580" type="curve" smooth="yes"/>
      <point x="1935" y="1580" type="line" smooth="yes"/>
      <point x="1935" y="1621"/>
      <point x="1942" y="1651"/>
      <point x="1952" y="1683" type="curve"/>
      <point x="1854" y="1695" type="line"/>
      <point x="1854" y="1675" type="line"/>
      <point x="1764" y="1663"/>
      <point x="1681" y="1610"/>
      <point x="1679" y="1484" type="curve" smooth="yes"/>
      <point x="1679" y="1484" type="line" smooth="yes"/>
      <point x="1679" y="1334"/>
      <point x="1789" y="1227"/>
      <point x="2038" y="1227" type="curve" smooth="yes"/>
      <point x="2295" y="1227"/>
      <point x="2429" y="1348"/>
      <point x="2429" y="1568" type="curve" smooth="yes"/>
      <point x="2429" y="1568" type="line" smooth="yes"/>
      <point x="2429" y="1799"/>
      <point x="2243" y="1938"/>
    </contour>
    <component base="Rra.tm"/>
  </outline>
</glyph>
<glyph name="RraMatraU.tm" format="2">
  <advance width="2786"/>
  <note>
RraMatraU.tm
</note>
  <outline>
    <contour>
      <point x="2265" y="1137" type="line"/>
      <point x="2265" y="-389" type="line"/>
      <point x="2640" y="-389" type="line"/>
      <point x="2640" y="1137" type="line"/>
    </contour>
    <contour>
      <point x="1515" y="1163" type="curve" smooth="yes"/>
      <point x="1224" y="1163"/>
      <point x="1066" y="1060"/>
      <point x="1028" y="854" type="curve"/>
      <point x="1019" y="854" type="line"/>
      <point x="992" y="1051"/>
      <point x="865" y="1160"/>
      <point x="620" y="1160" type="curve" smooth="yes"/>
      <point x="307" y="1160"/>
      <point x="140" y="1006"/>
      <point x="140" y="647" type="curve" smooth="yes"/>
      <point x="140" y="0" type="line"/>
      <point x="515" y="0" type="line"/>
      <point x="515" y="672" type="line" smooth="yes"/>
      <point x="515" y="804"/>
      <point x="579" y="857"/>
      <point x="674" y="857" type="curve" smooth="yes"/>
      <point x="779" y="857"/>
      <point x="827" y="804"/>
      <point x="827" y="672" type="curve" smooth="yes"/>
      <point x="827" y="0" type="line"/>
      <point x="1201" y="0" type="line"/>
      <point x="1201" y="648" type="line" smooth="yes"/>
      <point x="1201" y="793"/>
      <point x="1278" y="861"/>
      <point x="1436" y="861" type="curve" smooth="yes"/>
      <point x="1577" y="861"/>
      <point x="1631" y="817"/>
      <point x="1631" y="729" type="curve" smooth="yes"/>
      <point x="1631" y="729" type="line" smooth="yes"/>
      <point x="1631" y="646"/>
      <point x="1569" y="606"/>
      <point x="1423" y="597" type="curve" smooth="yes"/>
      <point x="1321" y="591" type="line"/>
      <point x="1321" y="313" type="line"/>
      <point x="1409" y="306" type="line" smooth="yes"/>
      <point x="1580" y="292"/>
      <point x="1631" y="208"/>
      <point x="1631" y="12" type="curve" smooth="yes"/>
      <point x="1631" y="12" type="line" smooth="yes"/>
      <point x="1631" y="-75"/>
      <point x="1620" y="-165"/>
      <point x="1611" y="-224" type="curve"/>
      <point x="1608" y="-295" type="line"/>
      <point x="1583" y="-502"/>
      <point x="1394" y="-624"/>
      <point x="1046" y="-624" type="curve" smooth="yes"/>
      <point x="671" y="-624"/>
      <point x="480" y="-519"/>
      <point x="459" y="-389" type="curve"/>
      <point x="2640" y="-389" type="line"/>
      <point x="2640" y="-114" type="line"/>
      <point x="5" y="-114" type="line"/>
      <point x="28" y="-632"/>
      <point x="367" y="-919"/>
      <point x="1046" y="-919" type="curve" smooth="yes"/>
      <point x="1645" y="-919"/>
      <point x="1938" y="-664"/>
      <point x="1988" y="-304" type="curve"/>
      <point x="1989" y="-248" type="line"/>
      <point x="2000" y="-175"/>
      <point x="2009" y="-75"/>
      <point x="2009" y="17" type="curve" smooth="yes"/>
      <point x="2009" y="17" type="line" smooth="yes"/>
      <point x="2009" y="266"/>
      <point x="1927" y="432"/>
      <point x="1703" y="456" type="curve"/>
      <point x="1703" y="465" type="line"/>
      <point x="1911" y="489"/>
      <point x="1979" y="611"/>
      <point x="1979" y="792" type="curve"/>
      <point x="1979" y="792" type="line" smooth="yes"/>
      <point x="1979" y="1037"/>
      <point x="1833" y="1163"/>
    </contour>
  </outline>
</glyph>
<glyph name="SaMatraI.tm" format="2">
  <advance width="3914"/>
  <note>
SaMatraI.tm
</note>
  <outline>
    <contour>
      <point x="869" y="1172" type="curve" smooth="yes"/>
      <point x="352" y="1172"/>
      <point x="108" y="912"/>
      <point x="108" y="507" type="curve" smooth="yes"/>
      <point x="108" y="495" type="line" smooth="yes"/>
      <point x="108" y="192"/>
      <point x="257" y="-26"/>
      <point x="637" y="-26" type="curve" smooth="yes"/>
      <point x="986" y="-26"/>
      <point x="1109" y="141"/>
      <point x="1109" y="377" type="curve" smooth="yes"/>
      <point x="1109" y="377" type="line" smooth="yes"/>
      <point x="1109" y="598"/>
      <point x="998" y="716"/>
      <point x="782" y="716" type="curve" smooth="yes"/>
      <point x="591" y="716"/>
      <point x="491" y="627"/>
      <point x="470" y="512" type="curve"/>
      <point x="457" y="512" type="line"/>
      <point x="461" y="391" type="line"/>
      <point x="484" y="419"/>
      <point x="541" y="445"/>
      <point x="616" y="445" type="curve" smooth="yes"/>
      <point x="710" y="445"/>
      <point x="750" y="412"/>
      <point x="750" y="350" type="curve" smooth="yes"/>
      <point x="750" y="350" type="line" smooth="yes"/>
      <point x="750" y="296"/>
      <point x="713" y="255"/>
      <point x="625" y="255" type="curve" smooth="yes"/>
      <point x="516" y="255"/>
      <point x="472" y="304"/>
      <point x="472" y="389" type="curve"/>
      <point x="472" y="512" type="line"/>
      <point x="460" y="512" type="line"/>
      <point x="460" y="514"/>
      <point x="460" y="514"/>
      <point x="460" y="516" type="curve"/>
      <point x="470" y="743"/>
      <point x="596" y="866"/>
      <point x="889" y="866" type="curve" smooth="yes"/>
      <point x="1205" y="866"/>
      <point x="1326" y="746"/>
      <point x="1326" y="472" type="curve" smooth="yes"/>
      <point x="1326" y="0" type="line"/>
      <point x="1701" y="0" type="line"/>
      <point x="1701" y="661" type="line" smooth="yes"/>
      <point x="1701" y="808"/>
      <point x="1746" y="868"/>
      <point x="1843" y="868" type="curve" smooth="yes"/>
      <point x="1953" y="868"/>
      <point x="1987" y="810"/>
      <point x="1987" y="657" type="curve" smooth="yes"/>
      <point x="1987" y="537" type="line" smooth="yes"/>
      <point x="1987" y="154"/>
      <point x="2152" y="-26"/>
      <point x="2557" y="-26" type="curve" smooth="yes"/>
      <point x="2967" y="-26"/>
      <point x="3124" y="171"/>
      <point x="3124" y="549" type="curve" smooth="yes"/>
      <point x="3124" y="558" type="line" smooth="yes"/>
      <point x="3124" y="922"/>
      <point x="3007" y="1158"/>
      <point x="2638" y="1158" type="curve" smooth="yes"/>
      <point x="2569" y="1158"/>
      <point x="2488" y="1139"/>
      <point x="2442" y="1119" type="curve"/>
      <point x="2756" y="1038" type="line"/>
      <point x="2752" y="1072"/>
      <point x="2750" y="1106"/>
      <point x="2750" y="1166" type="curve" smooth="yes"/>
      <point x="2750" y="1378"/>
      <point x="2874" y="1484"/>
      <point x="3071" y="1484" type="curve" smooth="yes"/>
      <point x="3303" y="1484"/>
      <point x="3393" y="1363"/>
      <point x="3393" y="1084" type="curve" smooth="yes"/>
      <point x="3393" y="0" type="line"/>
      <point x="3768" y="0" type="line"/>
      <point x="3768" y="1074" type="line" smooth="yes"/>
      <point x="3768" y="1567"/>
      <point x="3558" y="1790"/>
      <point x="3080" y="1790" type="curve" smooth="yes"/>
      <point x="2641" y="1790"/>
      <point x="2387" y="1560"/>
      <point x="2387" y="1132" type="curve" smooth="yes"/>
      <point x="2387" y="1035"/>
      <point x="2398" y="939"/>
      <point x="2413" y="868" type="curve"/>
      <point x="2429" y="870"/>
      <point x="2457" y="873"/>
      <point x="2483" y="873" type="curve" smooth="yes"/>
      <point x="2685" y="873"/>
      <point x="2742" y="774"/>
      <point x="2742" y="565" type="curve" smooth="yes"/>
      <point x="2742" y="558" type="line" smooth="yes"/>
      <point x="2742" y="370"/>
      <point x="2699" y="278"/>
      <point x="2557" y="278" type="curve" smooth="yes"/>
      <point x="2415" y="278"/>
      <point x="2362" y="353"/>
      <point x="2362" y="537" type="curve" smooth="yes"/>
      <point x="2362" y="678" type="line" smooth="yes"/>
      <point x="2362" y="1016"/>
      <point x="2221" y="1170"/>
      <point x="1922" y="1170" type="curve" smooth="yes"/>
      <point x="1635" y="1170"/>
      <point x="1499" y="1042"/>
      <point x="1499" y="791" type="curve" smooth="yes"/>
      <point x="1499" y="789" type="line"/>
      <point x="1490" y="789" type="line"/>
      <point x="1447" y="1041"/>
      <point x="1256" y="1172"/>
    </contour>
  </outline>
</glyph>
<glyph name="ShaMatraI.tm" format="2">
  <advance width="3251"/>
  <note>
ShaMatraI.tm
</note>
  <anchor x="1290" y="1218" name="top"/>
  <outline>
    <contour>
      <point x="2576" y="1790" type="curve" smooth="yes"/>
      <point x="2241" y="1790"/>
      <point x="2056" y="1628"/>
      <point x="2056" y="1353" type="curve" smooth="yes"/>
      <point x="2056" y="1353" type="line" smooth="yes"/>
      <point x="2056" y="1283"/>
      <point x="2076" y="1193"/>
      <point x="2115" y="1137" type="curve"/>
      <point x="2468" y="1137" type="line"/>
      <point x="2441" y="1179"/>
      <point x="2422" y="1238"/>
      <point x="2422" y="1309" type="curve" smooth="yes"/>
      <point x="2422" y="1309" type="line" smooth="yes"/>
      <point x="2422" y="1426"/>
      <point x="2476" y="1484"/>
      <point x="2576" y="1484" type="curve" smooth="yes"/>
      <point x="2691" y="1484"/>
      <point x="2730" y="1422"/>
      <point x="2730" y="1267" type="curve" smooth="yes"/>
      <point x="2730" y="0" type="line"/>
      <point x="3105" y="0" type="line"/>
      <point x="3105" y="1244" type="line" smooth="yes"/>
      <point x="3105" y="1624"/>
      <point x="2960" y="1790"/>
    </contour>
    <component base="Sha.tm"/>
  </outline>
</glyph>
<glyph name="ShaMatraIi.tm" format="2">
  <advance width="2574"/>
  <note>
ShaMatraIi.tm
</note>
  <anchor x="1290" y="1218" name="top"/>
  <outline>
    <contour>
      <point x="2330" y="1417" type="line" smooth="yes"/>
      <point x="2330" y="1586"/>
      <point x="2429" y="1676"/>
      <point x="2587" y="1683" type="curve"/>
      <point x="2587" y="1670" type="line"/>
      <point x="2618" y="1677"/>
      <point x="2659" y="1681"/>
      <point x="2699" y="1681" type="curve" smooth="yes"/>
      <point x="2814" y="1681"/>
      <point x="2854" y="1637"/>
      <point x="2854" y="1565" type="curve" smooth="yes"/>
      <point x="2854" y="1565" type="line" smooth="yes"/>
      <point x="2854" y="1500"/>
      <point x="2826" y="1464"/>
      <point x="2768" y="1464" type="curve" smooth="yes"/>
      <point x="2698" y="1464"/>
      <point x="2668" y="1505"/>
      <point x="2668" y="1580" type="curve" smooth="yes"/>
      <point x="2668" y="1580" type="line" smooth="yes"/>
      <point x="2668" y="1621"/>
      <point x="2675" y="1651"/>
      <point x="2685" y="1683" type="curve"/>
      <point x="2587" y="1695" type="line"/>
      <point x="2587" y="1675" type="line"/>
      <point x="2497" y="1663"/>
      <point x="2414" y="1610"/>
      <point x="2412" y="1484" type="curve" smooth="yes"/>
      <point x="2412" y="1484" type="line" smooth="yes"/>
      <point x="2412" y="1334"/>
      <point x="2522" y="1227"/>
      <point x="2771" y="1227" type="curve" smooth="yes"/>
      <point x="3028" y="1227"/>
      <point x="3162" y="1348"/>
      <point x="3162" y="1568" type="curve" smooth="yes"/>
      <point x="3162" y="1568" type="line" smooth="yes"/>
      <point x="3162" y="1799"/>
      <point x="2976" y="1938"/>
      <point x="2615" y="1938" type="curve" smooth="yes"/>
      <point x="2197" y="1938"/>
      <point x="1983" y="1760"/>
      <point x="1983" y="1449" type="curve" smooth="yes"/>
      <point x="1983" y="1449" type="line" smooth="yes"/>
      <point x="1983" y="1303"/>
      <point x="2043" y="1192"/>
      <point x="2114" y="1137" type="curve"/>
      <point x="2468" y="1137" type="line"/>
      <point x="2391" y="1196"/>
      <point x="2330" y="1308"/>
      <point x="2330" y="1417" type="curve" smooth="yes"/>
    </contour>
    <component base="Sha.tm"/>
  </outline>
</glyph>
<glyph name="ShaMatraIi_SimpleIi.tm" format="2">
  <advance width="2574"/>
  <note>
ShaMatraIi.tm
</note>
  <anchor x="1290" y="1218" name="top"/>
  <outline>
    <contour>
      <point x="2546" y="1869" type="curve" smooth="yes"/>
      <point x="2168" y="1869"/>
      <point x="2043" y="1710"/>
      <point x="2043" y="1445" type="curve" smooth="yes"/>
      <point x="2043" y="1445" type="line" smooth="yes"/>
      <point x="2043" y="1302"/>
      <point x="2081" y="1201"/>
      <point x="2124" y="1137" type="curve"/>
      <point x="2468" y="1137" type="line"/>
      <point x="2420" y="1207"/>
      <point x="2380" y="1310"/>
      <point x="2380" y="1421" type="curve" smooth="yes"/>
      <point x="2380" y="1424" type="line"/>
      <point x="2380" y="1470" type="line" smooth="yes"/>
      <point x="2380" y="1577"/>
      <point x="2424" y="1621"/>
      <point x="2532" y="1621" type="curve" smooth="yes"/>
      <point x="2621" y="1621"/>
      <point x="2660" y="1588"/>
      <point x="2660" y="1529" type="curve" smooth="yes"/>
      <point x="2660" y="1529" type="line" smooth="yes"/>
      <point x="2660" y="1470"/>
      <point x="2629" y="1438"/>
      <point x="2541" y="1438" type="curve" smooth="yes"/>
      <point x="2456" y="1438"/>
      <point x="2416" y="1456"/>
      <point x="2375" y="1471" type="curve"/>
      <point x="2372" y="1471" type="line"/>
      <point x="2372" y="1419" type="line"/>
      <point x="2387" y="1419" type="line"/>
      <point x="2475" y="1241" type="line"/>
      <point x="2523" y="1227"/>
      <point x="2586" y="1218"/>
      <point x="2660" y="1218" type="curve" smooth="yes"/>
      <point x="2889" y="1218"/>
      <point x="2993" y="1320"/>
      <point x="2993" y="1529" type="curve" smooth="yes"/>
      <point x="2993" y="1529" type="line" smooth="yes"/>
      <point x="2993" y="1744"/>
      <point x="2863" y="1869"/>
    </contour>
    <component base="Sha.tm"/>
  </outline>
</glyph>
<glyph name="Shree_SimpleIi.tm" format="2">
  <advance width="4628"/>
  <outline>
    <contour>
      <point x="1224" y="1137" type="line"/>
      <point x="838" y="1137" type="line"/>
      <point x="838" y="0" type="line"/>
      <point x="2387" y="0" type="line"/>
      <point x="2387" y="306" type="line"/>
      <point x="1224" y="306" type="line"/>
    </contour>
    <contour>
      <point x="3470" y="1052" type="line"/>
      <point x="3470" y="0" type="line"/>
      <point x="3844" y="0" type="line"/>
      <point x="3844" y="1052" type="line"/>
    </contour>
    <contour>
      <point x="108" y="1137" type="line"/>
      <point x="108" y="572" type="line"/>
      <point x="108" y="-347"/>
      <point x="766" y="-715"/>
      <point x="2447" y="-715" type="curve" smooth="yes"/>
      <point x="2516" y="-715" type="line" smooth="yes"/>
      <point x="3927" y="-715"/>
      <point x="4554" y="-398"/>
      <point x="4554" y="224" type="curve"/>
      <point x="4554" y="224" type="line" smooth="yes"/>
      <point x="4554" y="546"/>
      <point x="4436" y="716"/>
      <point x="4174" y="716" type="curve" smooth="yes"/>
      <point x="3982" y="716"/>
      <point x="3876" y="621"/>
      <point x="3853" y="488" type="curve"/>
      <point x="3799" y="488" type="line"/>
      <point x="3799" y="312" type="line"/>
      <point x="3823" y="312" type="line"/>
      <point x="3852" y="370"/>
      <point x="3915" y="410"/>
      <point x="4005" y="410" type="curve" smooth="yes"/>
      <point x="4123" y="410"/>
      <point x="4172" y="343"/>
      <point x="4172" y="206" type="curve"/>
      <point x="4172" y="206" type="line" smooth="yes"/>
      <point x="4172" y="-192"/>
      <point x="3695" y="-405"/>
      <point x="2521" y="-405" type="curve" smooth="yes"/>
      <point x="2436" y="-405" type="line" smooth="yes"/>
      <point x="983" y="-405"/>
      <point x="492" y="-157"/>
      <point x="492" y="576" type="curve"/>
      <point x="492" y="1137" type="line"/>
    </contour>
    <contour>
      <point x="3926" y="1137" type="line"/>
      <point x="2924" y="1137" type="line"/>
      <point x="2924" y="954" type="line"/>
      <point x="2914" y="954" type="line"/>
      <point x="2887" y="1086"/>
      <point x="2781" y="1162"/>
      <point x="2568" y="1162" type="curve" smooth="yes"/>
      <point x="2274" y="1162"/>
      <point x="2115" y="1014"/>
      <point x="2115" y="669" type="curve" smooth="yes"/>
      <point x="2115" y="0" type="line"/>
      <point x="2500" y="0" type="line"/>
      <point x="2500" y="694" type="line" smooth="yes"/>
      <point x="2500" y="812"/>
      <point x="2558" y="859"/>
      <point x="2644" y="859" type="curve" smooth="yes"/>
      <point x="2739" y="859"/>
      <point x="2781" y="806"/>
      <point x="2781" y="676" type="curve" smooth="yes"/>
      <point x="2781" y="0" type="line"/>
      <point x="3156" y="0" type="line"/>
      <point x="3156" y="845" type="line"/>
      <point x="3926" y="845" type="line"/>
    </contour>
    <component base="MatraIiDflt_SimpleIi.tm" xOffset="3434"/>
    <component base="RaBeak_Nonexporting" xOffset="3726"/>
  </outline>
</glyph>
<glyph name="SsaMatraI_Fly.tm" format="2">
  <advance width="3251"/>
  <note>
SsaMatraI.tm
</note>
  <anchor x="1797" y="1218" name="top"/>
  <outline>
    <contour>
      <point x="3083" y="1646" type="line"/>
      <point x="2573" y="1646" type="line" smooth="yes"/>
      <point x="2341" y="1646"/>
      <point x="2228" y="1575"/>
      <point x="2228" y="1415" type="curve" smooth="yes"/>
      <point x="2228" y="1324"/>
      <point x="2261" y="1242"/>
      <point x="2345" y="1123" type="curve"/>
      <point x="2710" y="1123" type="line"/>
      <point x="2656" y="1196"/>
      <point x="2630" y="1243"/>
      <point x="2630" y="1281" type="curve" smooth="yes"/>
      <point x="2630" y="1327"/>
      <point x="2657" y="1345"/>
      <point x="2718" y="1345" type="curve" smooth="yes"/>
      <point x="3127" y="1345" type="line"/>
    </contour>
    <component base="Ssa.tm"/>
  </outline>
</glyph>
<glyph name="SsaMatraIi.tm" format="2">
  <advance width="3251"/>
  <note>
SsaMatraIi.tm
</note>
  <anchor x="1797" y="1218" name="top"/>
  <outline>
    <contour>
      <point x="2902" y="1938" type="curve" smooth="yes"/>
      <point x="2484" y="1938"/>
      <point x="2270" y="1758"/>
      <point x="2270" y="1444" type="curve" smooth="yes"/>
      <point x="2270" y="1444" type="line" smooth="yes"/>
      <point x="2270" y="1300"/>
      <point x="2313" y="1201"/>
      <point x="2361" y="1137" type="curve"/>
      <point x="2725" y="1127" type="line"/>
      <point x="2664" y="1194"/>
      <point x="2617" y="1301"/>
      <point x="2617" y="1417" type="curve" smooth="yes"/>
      <point x="2617" y="1417" type="line" smooth="yes"/>
      <point x="2617" y="1587"/>
      <point x="2716" y="1677"/>
      <point x="2874" y="1684" type="curve"/>
      <point x="2874" y="1670" type="line"/>
      <point x="2905" y="1677"/>
      <point x="2946" y="1681"/>
      <point x="2986" y="1681" type="curve" smooth="yes"/>
      <point x="3101" y="1681"/>
      <point x="3141" y="1637"/>
      <point x="3141" y="1565" type="curve" smooth="yes"/>
      <point x="3141" y="1565" type="line" smooth="yes"/>
      <point x="3141" y="1500"/>
      <point x="3113" y="1464"/>
      <point x="3055" y="1464" type="curve" smooth="yes"/>
      <point x="2985" y="1464"/>
      <point x="2955" y="1505"/>
      <point x="2955" y="1580" type="curve" smooth="yes"/>
      <point x="2955" y="1580" type="line" smooth="yes"/>
      <point x="2955" y="1621"/>
      <point x="2962" y="1651"/>
      <point x="2972" y="1683" type="curve"/>
      <point x="2874" y="1695" type="line"/>
      <point x="2874" y="1675" type="line"/>
      <point x="2784" y="1663"/>
      <point x="2701" y="1610"/>
      <point x="2699" y="1484" type="curve" smooth="yes"/>
      <point x="2699" y="1484" type="line" smooth="yes"/>
      <point x="2699" y="1334"/>
      <point x="2809" y="1227"/>
      <point x="3058" y="1227" type="curve" smooth="yes"/>
      <point x="3315" y="1227"/>
      <point x="3449" y="1348"/>
      <point x="3449" y="1568" type="curve" smooth="yes"/>
      <point x="3449" y="1568" type="line" smooth="yes"/>
      <point x="3449" y="1799"/>
      <point x="3263" y="1938"/>
    </contour>
    <component base="Ssa.tm"/>
  </outline>
</glyph>
<glyph name="SsaMatraIi_Simple_SimpleIi.tm" format="2">
  <advance width="3251"/>
  <note>
SsaMatraIi.tm
</note>
  <anchor x="1797" y="1218" name="top"/>
  <outline>
    <contour>
      <point x="2773" y="1869" type="curve" smooth="yes"/>
      <point x="2395" y="1869"/>
      <point x="2270" y="1710"/>
      <point x="2270" y="1445" type="curve" smooth="yes"/>
      <point x="2270" y="1445" type="line" smooth="yes"/>
      <point x="2270" y="1304"/>
      <point x="2311" y="1206"/>
      <point x="2362" y="1143" type="curve"/>
      <point x="2699" y="1143" type="line"/>
      <point x="2645" y="1211"/>
      <point x="2607" y="1313"/>
      <point x="2607" y="1421" type="curve" smooth="yes"/>
      <point x="2607" y="1424" type="line"/>
      <point x="2607" y="1470" type="line" smooth="yes"/>
      <point x="2607" y="1577"/>
      <point x="2651" y="1621"/>
      <point x="2759" y="1621" type="curve" smooth="yes"/>
      <point x="2848" y="1621"/>
      <point x="2887" y="1588"/>
      <point x="2887" y="1529" type="curve" smooth="yes"/>
      <point x="2887" y="1529" type="line" smooth="yes"/>
      <point x="2887" y="1470"/>
      <point x="2856" y="1438"/>
      <point x="2768" y="1438" type="curve" smooth="yes"/>
      <point x="2683" y="1438"/>
      <point x="2643" y="1456"/>
      <point x="2602" y="1471" type="curve"/>
      <point x="2599" y="1471" type="line"/>
      <point x="2599" y="1419" type="line"/>
      <point x="2614" y="1419" type="line"/>
      <point x="2702" y="1241" type="line"/>
      <point x="2750" y="1227"/>
      <point x="2813" y="1218"/>
      <point x="2887" y="1218" type="curve" smooth="yes"/>
      <point x="3116" y="1218"/>
      <point x="3220" y="1320"/>
      <point x="3220" y="1529" type="curve" smooth="yes"/>
      <point x="3220" y="1529" type="line" smooth="yes"/>
      <point x="3220" y="1744"/>
      <point x="3090" y="1869"/>
    </contour>
    <component base="Ssa_Simple.tm"/>
  </outline>
</glyph>
<glyph name="Ssa_Above_NonExporting" format="2">
  <advance width="1693"/>
  <outline>
    <contour>
      <point x="0" y="292" type="line"/>
      <point x="0" y="0" type="line"/>
      <point x="1653" y="0" type="line"/>
      <point x="1693" y="292" type="line"/>
      <point x="1024" y="292" type="line"/>
      <point x="919" y="243" type="line"/>
      <point x="803" y="292" type="line"/>
    </contour>
    <contour>
      <point x="919" y="1170" type="curve" smooth="yes"/>
      <point x="526" y="1170"/>
      <point x="349" y="973"/>
      <point x="349" y="664" type="curve" smooth="yes"/>
      <point x="349" y="651" type="line" smooth="yes"/>
      <point x="349" y="368"/>
      <point x="479" y="178"/>
      <point x="822" y="90" type="curve"/>
      <point x="956" y="238" type="line"/>
      <point x="790" y="278"/>
      <point x="732" y="419"/>
      <point x="732" y="579" type="curve" smooth="yes"/>
      <point x="732" y="590" type="line" smooth="yes"/>
      <point x="732" y="752"/>
      <point x="775" y="857"/>
      <point x="919" y="857" type="curve" smooth="yes"/>
      <point x="1065" y="857"/>
      <point x="1107" y="752"/>
      <point x="1107" y="590" type="curve" smooth="yes"/>
      <point x="1107" y="579" type="line" smooth="yes"/>
      <point x="1107" y="419"/>
      <point x="1049" y="278"/>
      <point x="884" y="238" type="curve"/>
      <point x="1017" y="90" type="line"/>
      <point x="1361" y="178"/>
      <point x="1491" y="368"/>
      <point x="1491" y="651" type="curve" smooth="yes"/>
      <point x="1491" y="664" type="line" smooth="yes"/>
      <point x="1491" y="973"/>
      <point x="1313" y="1170"/>
    </contour>
  </outline>
</glyph>
<glyph name="TaMatraU_Simple.tm" format="2">
  <advance width="2692"/>
  <note>
TaMatraU.tm
</note>
  <outline>
    <contour>
      <point x="2171" y="1137" type="line"/>
      <point x="2171" y="-444" type="line"/>
      <point x="2546" y="-444" type="line"/>
      <point x="2546" y="1137" type="line"/>
    </contour>
    <contour>
      <point x="1241" y="444" type="line"/>
      <point x="1295" y="444" type="line" smooth="yes"/>
      <point x="1477" y="444"/>
      <point x="1554" y="371"/>
      <point x="1554" y="208" type="curve" smooth="yes"/>
      <point x="1554" y="204" type="line" smooth="yes"/>
      <point x="1554" y="-37"/>
      <point x="1422" y="-139"/>
      <point x="1079" y="-139" type="curve" smooth="yes"/>
      <point x="1" y="-139" type="line"/>
      <point x="52" y="-444" type="line"/>
      <point x="2546" y="-444" type="line"/>
      <point x="2546" y="-139" type="line"/>
      <point x="1782" y="-139" type="line"/>
      <point x="1782" y="-127" type="line"/>
      <point x="1888" y="-51"/>
      <point x="1939" y="86"/>
      <point x="1939" y="260" type="curve" smooth="yes"/>
      <point x="1939" y="266" type="line" smooth="yes"/>
      <point x="1939" y="586"/>
      <point x="1758" y="732"/>
      <point x="1322" y="732" type="curve" smooth="yes"/>
      <point x="1241" y="732" type="line"/>
    </contour>
    <component base="KaComponent_Nonexporting" xOffset="30"/>
    <component base="KaBeak_Nonexporting" xOffset="1371"/>
  </outline>
</glyph>
<glyph name="TtaMatraI.tm" format="2">
  <advance width="2118"/>
  <note>
TtaMatraI.tm
</note>
  <outline>
    <contour>
      <point x="640" y="292" type="line"/>
      <point x="525" y="292" type="line"/>
      <point x="525" y="1137" type="line"/>
      <point x="146" y="1137" type="line"/>
      <point x="146" y="0" type="line"/>
      <point x="640" y="0" type="line"/>
    </contour>
    <component base="Ssa_Above_NonExporting" xOffset="440"/>
    <component base="Ssa_Below_NonExporting" xOffset="905"/>
  </outline>
</glyph>
<glyph name="TtaMatraIi_SimpleIi.tm" format="2">
  <advance width="2006"/>
  <note>
TtaMatraIi.tm
</note>
  <outline>
    <contour>
      <point x="525" y="1137" type="line"/>
      <point x="146" y="1137" type="line"/>
      <point x="146" y="0" type="line"/>
      <point x="1982" y="0" type="line"/>
      <point x="2021" y="292" type="line"/>
      <point x="523" y="292" type="line"/>
    </contour>
    <contour>
      <point x="1265" y="1026" type="curve" smooth="yes"/>
      <point x="887" y="1026"/>
      <point x="762" y="867"/>
      <point x="762" y="602" type="curve" smooth="yes"/>
      <point x="762" y="602" type="line" smooth="yes"/>
      <point x="762" y="452"/>
      <point x="800" y="347"/>
      <point x="843" y="280" type="curve"/>
      <point x="1187" y="280" type="line"/>
      <point x="1139" y="353"/>
      <point x="1099" y="462"/>
      <point x="1099" y="578" type="curve" smooth="yes"/>
      <point x="1099" y="581" type="line"/>
      <point x="1099" y="627" type="line" smooth="yes"/>
      <point x="1099" y="734"/>
      <point x="1143" y="778"/>
      <point x="1251" y="778" type="curve" smooth="yes"/>
      <point x="1340" y="778"/>
      <point x="1379" y="745"/>
      <point x="1379" y="686" type="curve" smooth="yes"/>
      <point x="1379" y="686" type="line" smooth="yes"/>
      <point x="1379" y="627"/>
      <point x="1348" y="595"/>
      <point x="1260" y="595" type="curve" smooth="yes"/>
      <point x="1175" y="595"/>
      <point x="1135" y="613"/>
      <point x="1094" y="628" type="curve"/>
      <point x="1091" y="628" type="line"/>
      <point x="1091" y="576" type="line"/>
      <point x="1106" y="576" type="line"/>
      <point x="1194" y="398" type="line"/>
      <point x="1242" y="384"/>
      <point x="1305" y="375"/>
      <point x="1379" y="375" type="curve" smooth="yes"/>
      <point x="1608" y="375"/>
      <point x="1712" y="477"/>
      <point x="1712" y="686" type="curve" smooth="yes"/>
      <point x="1712" y="686" type="line" smooth="yes"/>
      <point x="1712" y="901"/>
      <point x="1582" y="1026"/>
    </contour>
  </outline>
</glyph>
<glyph name="TtaMatraU.tm" format="2">
  <advance width="2063"/>
  <note>
TtaMatraU.tm
</note>
  <outline>
    <contour>
      <point x="857" y="1137" type="line"/>
      <point x="857" y="0" type="line"/>
      <point x="1232" y="0" type="line"/>
      <point x="1232" y="1137" type="line"/>
    </contour>
    <contour>
      <point x="1975" y="899" type="curve"/>
      <point x="1975" y="1452"/>
      <point x="1690" y="1728"/>
      <point x="1119" y="1728" type="curve" smooth="yes"/>
      <point x="435" y="1728"/>
      <point x="118" y="1368"/>
      <point x="118" y="586" type="curve" smooth="yes"/>
      <point x="118" y="570" type="line" smooth="yes"/>
      <point x="118" y="-211"/>
      <point x="421" y="-570"/>
      <point x="1075" y="-570" type="curve" smooth="yes"/>
      <point x="1639" y="-570"/>
      <point x="1922" y="-306"/>
      <point x="1922" y="224" type="curve" smooth="yes"/>
      <point x="1922" y="224" type="line" smooth="yes"/>
      <point x="1922" y="546"/>
      <point x="1809" y="716"/>
      <point x="1552" y="716" type="curve" smooth="yes"/>
      <point x="1368" y="716"/>
      <point x="1265" y="621"/>
      <point x="1243" y="488" type="curve"/>
      <point x="1188" y="488" type="line"/>
      <point x="1188" y="312" type="line"/>
      <point x="1213" y="312" type="line"/>
      <point x="1237" y="370"/>
      <point x="1299" y="410"/>
      <point x="1383" y="410" type="curve" smooth="yes"/>
      <point x="1492" y="410"/>
      <point x="1540" y="343"/>
      <point x="1540" y="206" type="curve" smooth="yes"/>
      <point x="1540" y="206" type="line" smooth="yes"/>
      <point x="1540" y="-113"/>
      <point x="1394" y="-257"/>
      <point x="1075" y="-257" type="curve" smooth="yes"/>
      <point x="664" y="-257"/>
      <point x="500" y="-4"/>
      <point x="500" y="570" type="curve" smooth="yes"/>
      <point x="500" y="586" type="line" smooth="yes"/>
      <point x="500" y="1162"/>
      <point x="676" y="1415"/>
      <point x="1119" y="1415" type="curve" smooth="yes"/>
      <point x="1443" y="1415"/>
      <point x="1593" y="1253"/>
      <point x="1593" y="899" type="curve"/>
      <point x="1593" y="857"/>
      <point x="1591" y="832"/>
      <point x="1589" y="796" type="curve"/>
      <point x="1971" y="796" type="line"/>
      <point x="1973" y="824"/>
      <point x="1975" y="864"/>
    </contour>
  </outline>
</glyph>
<glyph name="Tta_dummy.tm" format="2">
  <advance width="2021"/>
  <note>
Tta.tm
</note>
  <anchor x="1218" y="1218" name="top"/>
  <outline>
    <contour>
      <point x="525" y="1137" type="line"/>
      <point x="146" y="1137" type="line"/>
      <point x="146" y="0" type="line"/>
      <point x="1982" y="0" type="line"/>
      <point x="2021" y="292" type="line"/>
      <point x="523" y="292" type="line"/>
    </contour>
  </outline>
</glyph>
<glyph name="VaMatraI_Fly.tm" format="2">
  <advance width="2773"/>
  <outline>
    <contour>
      <point x="2249" y="1137" type="line"/>
      <point x="2249" y="292" type="line"/>
      <point x="1544" y="292" type="line"/>
      <point x="1561" y="0" type="line"/>
      <point x="2624" y="0" type="line"/>
      <point x="2624" y="1137" type="line"/>
    </contour>
    <contour>
      <point x="2651" y="1646" type="line"/>
      <point x="1975" y="1646" type="line" smooth="yes"/>
      <point x="1724" y="1646"/>
      <point x="1602" y="1556"/>
      <point x="1602" y="1352" type="curve" smooth="yes"/>
      <point x="1602" y="1211"/>
      <point x="1680" y="1010"/>
      <point x="1745" y="901" type="curve" smooth="yes"/>
      <point x="1843" y="737"/>
      <point x="1897" y="696"/>
      <point x="2114" y="696" type="curve" smooth="yes"/>
      <point x="2262" y="696" type="line"/>
      <point x="2262" y="993" type="line"/>
      <point x="2187" y="993" type="line" smooth="yes"/>
      <point x="2127" y="993"/>
      <point x="2104" y="1005"/>
      <point x="2076" y="1052" type="curve" smooth="yes"/>
      <point x="2030" y="1128"/>
      <point x="1995" y="1220"/>
      <point x="1995" y="1271" type="curve" smooth="yes"/>
      <point x="1995" y="1324"/>
      <point x="2025" y="1345"/>
      <point x="2093" y="1345" type="curve" smooth="yes"/>
      <point x="2695" y="1345" type="line"/>
    </contour>
    <component base="Va_NonExporting" xOffset="16"/>
  </outline>
</glyph>
<glyph name="VaMatraIi_SimpleIi.tm" format="2">
  <advance width="2495"/>
  <note>
VaMatraIi.tm
</note>
  <outline>
    <contour>
      <point x="2348" y="1137" type="line"/>
      <point x="1973" y="1137" type="line"/>
      <point x="1973" y="292" type="line"/>
      <point x="1373" y="292" type="line"/>
      <point x="1391" y="0" type="line"/>
      <point x="2348" y="0" type="line"/>
    </contour>
    <contour>
      <point x="2049" y="1869" type="curve" smooth="yes"/>
      <point x="1674" y="1869"/>
      <point x="1546" y="1707"/>
      <point x="1546" y="1406" type="curve" smooth="yes"/>
      <point x="1546" y="1406" type="line"/>
      <point x="1546" y="1000"/>
      <point x="1734" y="864"/>
      <point x="2116" y="864" type="curve"/>
      <point x="2258" y="864" type="line"/>
      <point x="2258" y="1137" type="line"/>
      <point x="2137" y="1137" type="line"/>
      <point x="1938" y="1137"/>
      <point x="1884" y="1218"/>
      <point x="1884" y="1420" type="curve" smooth="yes"/>
      <point x="1884" y="1424" type="line"/>
      <point x="1884" y="1470" type="line" smooth="yes"/>
      <point x="1884" y="1577"/>
      <point x="1928" y="1621"/>
      <point x="2035" y="1621" type="curve" smooth="yes"/>
      <point x="2125" y="1621"/>
      <point x="2163" y="1588"/>
      <point x="2163" y="1529" type="curve" smooth="yes"/>
      <point x="2163" y="1529" type="line" smooth="yes"/>
      <point x="2163" y="1470"/>
      <point x="2132" y="1438"/>
      <point x="2044" y="1438" type="curve" smooth="yes"/>
      <point x="1959" y="1438"/>
      <point x="1919" y="1456"/>
      <point x="1878" y="1471" type="curve"/>
      <point x="1875" y="1471" type="line"/>
      <point x="1875" y="1419" type="line"/>
      <point x="1891" y="1419" type="line"/>
      <point x="1979" y="1241" type="line"/>
      <point x="2026" y="1227"/>
      <point x="2090" y="1218"/>
      <point x="2163" y="1218" type="curve" smooth="yes"/>
      <point x="2392" y="1218"/>
      <point x="2496" y="1320"/>
      <point x="2496" y="1529" type="curve" smooth="yes"/>
      <point x="2496" y="1529" type="line" smooth="yes"/>
      <point x="2496" y="1744"/>
      <point x="2366" y="1869"/>
    </contour>
    <component base="Va_NonExporting" xOffset="16"/>
  </outline>
</glyph>
<glyph name="VowelOo_Fused.tm" format="2">
  <advance width="2321"/>
  <note>
vowelOo.tm
</note>
  <outline>
    <contour>
      <point x="2245" y="262" type="line"/>
      <point x="1895" y="262" type="line"/>
      <point x="1629" y="99" type="line"/>
      <point x="1629" y="79" type="line"/>
      <point x="1497" y="79"/>
      <point x="1441" y="21"/>
      <point x="1421" y="-148" type="curve" smooth="yes"/>
      <point x="1418" y="-174" type="line" smooth="yes"/>
      <point x="1398" y="-343"/>
      <point x="1323" y="-412"/>
      <point x="1164" y="-412" type="curve" smooth="yes"/>
      <point x="1159" y="-412"/>
      <point x="1155" y="-412"/>
      <point x="1150" y="-412" type="curve"/>
      <point x="1150" y="-398" type="line"/>
      <point x="985" y="-400" type="line"/>
      <point x="891" y="-389"/>
      <point x="837" y="-333"/>
      <point x="837" y="-245" type="curve" smooth="yes"/>
      <point x="837" y="-243" type="line" smooth="yes"/>
      <point x="837" y="-178"/>
      <point x="863" y="-146"/>
      <point x="918" y="-146" type="curve" smooth="yes"/>
      <point x="967" y="-146"/>
      <point x="992" y="-180"/>
      <point x="992" y="-248" type="curve" smooth="yes"/>
      <point x="992" y="-248" type="line" smooth="yes"/>
      <point x="992" y="-329"/>
      <point x="967" y="-405"/>
      <point x="923" y="-447" type="curve"/>
      <point x="1150" y="-421" type="line"/>
      <point x="1150" y="-402" type="line"/>
      <point x="1250" y="-365"/>
      <point x="1303" y="-288"/>
      <point x="1303" y="-171" type="curve" smooth="yes"/>
      <point x="1303" y="-171" type="line"/>
      <point x="1303" y="2"/>
      <point x="1185" y="104"/>
      <point x="937" y="104" type="curve" smooth="yes"/>
      <point x="657" y="104"/>
      <point x="510" y="-18"/>
      <point x="510" y="-239" type="curve" smooth="yes"/>
      <point x="510" y="-239" type="line" smooth="yes"/>
      <point x="510" y="-510"/>
      <point x="715" y="-679"/>
      <point x="1129" y="-679" type="curve" smooth="yes"/>
      <point x="1580" y="-679"/>
      <point x="1739" y="-515"/>
      <point x="1780" y="-167" type="curve" smooth="yes"/>
      <point x="1782" y="-150" type="line" smooth="yes"/>
      <point x="1793" y="-60"/>
      <point x="1807" y="-22"/>
      <point x="1896" y="-21" type="curve" smooth="yes"/>
      <point x="2211" y="-19" type="line"/>
    </contour>
    <contour>
      <point x="1138" y="1259" type="curve" smooth="yes"/>
      <point x="429" y="1259"/>
      <point x="80" y="980"/>
      <point x="80" y="546" type="curve" smooth="yes"/>
      <point x="80" y="537" type="line" smooth="yes"/>
      <point x="80" y="246"/>
      <point x="230" y="37"/>
      <point x="610" y="37" type="curve" smooth="yes"/>
      <point x="958" y="37"/>
      <point x="1082" y="200"/>
      <point x="1082" y="428" type="curve" smooth="yes"/>
      <point x="1082" y="428" type="line" smooth="yes"/>
      <point x="1082" y="644"/>
      <point x="971" y="759"/>
      <point x="754" y="759" type="curve" smooth="yes"/>
      <point x="565" y="759"/>
      <point x="465" y="670"/>
      <point x="442" y="556" type="curve"/>
      <point x="423" y="556" type="line"/>
      <point x="434" y="433" type="line"/>
      <point x="457" y="461"/>
      <point x="513" y="488"/>
      <point x="589" y="488" type="curve" smooth="yes"/>
      <point x="682" y="488"/>
      <point x="722" y="458"/>
      <point x="722" y="402" type="curve" smooth="yes"/>
      <point x="722" y="402" type="line" smooth="yes"/>
      <point x="722" y="354"/>
      <point x="686" y="318"/>
      <point x="598" y="318" type="curve" smooth="yes"/>
      <point x="488" y="318"/>
      <point x="444" y="364"/>
      <point x="444" y="440" type="curve"/>
      <point x="444" y="556" type="line"/>
      <point x="432" y="556" type="line"/>
      <point x="432" y="816"/>
      <point x="683" y="958"/>
      <point x="1138" y="958" type="curve" smooth="yes"/>
      <point x="1638" y="958"/>
      <point x="1826" y="810"/>
      <point x="1826" y="510" type="curve" smooth="yes"/>
      <point x="1826" y="510" type="line" smooth="yes"/>
      <point x="1826" y="382"/>
      <point x="1800" y="331"/>
      <point x="1701" y="331" type="curve" smooth="yes"/>
      <point x="1597" y="331"/>
      <point x="1562" y="387"/>
      <point x="1562" y="510" type="curve" smooth="yes"/>
      <point x="1562" y="588"/>
      <point x="1571" y="642"/>
      <point x="1590" y="723" type="curve"/>
      <point x="1245" y="723" type="line"/>
      <point x="1229" y="669"/>
      <point x="1212" y="584"/>
      <point x="1212" y="507" type="curve" smooth="yes"/>
      <point x="1212" y="224"/>
      <point x="1326" y="90"/>
      <point x="1703" y="90" type="curve"/>
      <point x="1831" y="90"/>
      <point x="1928" y="114"/>
      <point x="2002" y="155" type="curve"/>
      <point x="2136" y="225"/>
      <point x="2185" y="375"/>
      <point x="2185" y="553" type="curve" smooth="yes"/>
      <point x="2185" y="553" type="line" smooth="yes"/>
      <point x="2185" y="973"/>
      <point x="1895" y="1259"/>
    </contour>
  </outline>
</glyph>
<glyph name="YaMatraI.tm" format="2">
  <advance width="3193"/>
  <note>
YaMatraI.tm
</note>
  <outline>
    <contour>
      <point x="2004" y="1137" type="line"/>
      <point x="2004" y="306" type="line"/>
      <point x="1494" y="306" type="line"/>
      <point x="1494" y="0" type="line"/>
      <point x="2390" y="0" type="line"/>
      <point x="2390" y="1137" type="line"/>
    </contour>
    <contour>
      <point x="1750" y="0" type="line"/>
      <point x="1750" y="306" type="line"/>
      <point x="1232" y="306" type="line"/>
      <point x="1232" y="1137" type="line"/>
      <point x="846" y="1137" type="line"/>
      <point x="846" y="515" type="line" smooth="yes"/>
      <point x="846" y="353"/>
      <point x="796" y="287"/>
      <point x="684" y="287" type="curve" smooth="yes"/>
      <point x="583" y="287"/>
      <point x="515" y="344"/>
      <point x="515" y="487" type="curve" smooth="yes"/>
      <point x="515" y="1137" type="line"/>
      <point x="140" y="1137" type="line"/>
      <point x="140" y="496" type="line" smooth="yes"/>
      <point x="140" y="134"/>
      <point x="299" y="-22"/>
      <point x="591" y="-22" type="curve" smooth="yes"/>
      <point x="819" y="-22"/>
      <point x="944" y="65"/>
      <point x="974" y="216" type="curve"/>
      <point x="989" y="216" type="line"/>
      <point x="989" y="0" type="line"/>
    </contour>
    <contour>
      <point x="2211" y="1790" type="curve" smooth="yes"/>
      <point x="1695" y="1790"/>
      <point x="1408" y="1565"/>
      <point x="1408" y="1184" type="curve" smooth="yes"/>
      <point x="1408" y="1184" type="line" smooth="yes"/>
      <point x="1408" y="800"/>
      <point x="1663" y="627"/>
      <point x="2048" y="627" type="curve"/>
      <point x="2048" y="924" type="line"/>
      <point x="1874" y="931"/>
      <point x="1774" y="1014"/>
      <point x="1774" y="1184" type="curve" smooth="yes"/>
      <point x="1774" y="1184" type="line" smooth="yes"/>
      <point x="1774" y="1384"/>
      <point x="1944" y="1484"/>
      <point x="2211" y="1484" type="curve" smooth="yes"/>
      <point x="2546" y="1484"/>
      <point x="2672" y="1373"/>
      <point x="2672" y="1074" type="curve" smooth="yes"/>
      <point x="2672" y="0" type="line"/>
      <point x="3047" y="0" type="line"/>
      <point x="3047" y="1051" type="line" smooth="yes"/>
      <point x="3047" y="1565"/>
      <point x="2804" y="1790"/>
    </contour>
  </outline>
</glyph>
